<svg width="500.000000" height="500.000000" viewBox="0 0 500 500" fill="none" xmlns="http://www.w3.org/2000/svg" xmlns:xlink="http://www.w3.org/1999/xlink">
	<desc>
			Created with Pixso.
	</desc>
	<defs>
		<clipPath id="clip580_327">
			<rect id="Business competition-bro 1" width="500.000000" height="500.000000" fill="white" fill-opacity="0"/>
		</clipPath>
	</defs>
	<rect id="Business competition-bro 1" width="500.000000" height="500.000000" fill="#FFFFFF" fill-opacity="0"/>
	<g clip-path="url(#clip580_327)">
		<path id="Vector" d="M322.1 97.34C321.06 98.17 319.85 98.76 318.56 99.08C315.01 99.87 305.56 99.47 303.96 103.81C303.44 105.11 302.65 106.28 301.63 107.23C300.6 108.19 299.38 108.9 298.04 109.33C298.04 109.33 290.56 109.73 290.16 111.33C289.76 112.93 287.01 115.67 287.01 115.67L416 115.67C416 115.67 420.34 108.97 413.24 102.67C407.03 97.15 395.68 105.51 394.24 98.67" stroke="#263238" stroke-opacity="1.000000" stroke-width="1.000000" stroke-linejoin="round" stroke-linecap="round"/>
		<path id="Vector" d="M393.07 88.63C391.63 83.43 388.6 76.43 382.45 73.84C372.19 69.5 363.52 75.42 361.15 81.33C358.78 87.24 357.21 91.18 348.15 86.06C339.09 80.92 331.15 81.33 328.43 88.06C327.64 90 326.66 91.87 325.5 93.62" stroke="#263238" stroke-opacity="1.000000" stroke-width="1.000000" stroke-linejoin="round" stroke-linecap="round"/>
		<path id="Vector" d="M103.05 166.1L147.84 166.1C147.84 166.1 150.46 162.1 146.17 158.23C141.88 154.36 133.52 161.57 134.72 153.46C134.72 153.46 133.72 143.46 127.56 140.82C125.97 140.09 124.22 139.79 122.49 139.95C120.75 140.11 119.08 140.72 117.66 141.72" stroke="#263238" stroke-opacity="1.000000" stroke-width="1.000000" stroke-linejoin="round" stroke-linecap="round"/>
		<path id="Vector" d="M114.68 145.35C113.25 148.92 112.29 151.35 106.81 148.21C101.33 145.07 96.54 145.35 94.87 149.41C93.21 153.47 91.06 155.61 88.87 156.08C86.7 156.55 81.01 156.32 80.04 158.95C79.73 159.73 79.25 160.44 78.63 161.02C78.01 161.6 77.27 162.03 76.47 162.28C76.47 162.28 71.93 162.52 71.7 163.48C71.22 164.45 70.57 165.34 69.79 166.1L96 166.1" stroke="#263238" stroke-opacity="1.000000" stroke-width="1.000000" stroke-linejoin="round" stroke-linecap="round"/>
		<path id="Vector" d="M327.25 166.1L348.4 166.1C348.4 166.1 351.02 162.1 346.73 158.23C342.44 154.36 334.09 161.57 335.28 153.46C335.28 153.46 334.33 143.46 328.12 140.82C321.91 138.17 316.68 141.82 315.24 145.35C313.79 148.88 312.85 151.35 307.37 148.21C301.88 145.07 297.1 145.35 295.45 149.41C293.79 153.47 291.63 155.61 289.45 156.08C287.26 156.55 281.57 156.32 280.63 158.95C280.31 159.73 279.83 160.44 279.21 161.02C278.59 161.59 277.85 162.03 277.04 162.28C277.04 162.28 272.51 162.52 272.28 163.48C271.8 164.45 271.15 165.34 270.37 166.1L320.19 166.1" stroke="#263238" stroke-opacity="1.000000" stroke-width="1.000000" stroke-linejoin="round" stroke-linecap="round"/>
		<g opacity="0.100000">
			<g opacity="0.100000">
				<path id="Vector" d="M23.23 232.17C27.16 232.95 35.91 230.84 35.91 230.84C35.91 230.84 32.77 225.49 32.54 225.18C29.73 221.56 22.16 216.18 17.35 217.98C16.56 218.29 15.85 218.77 15.25 219.38C14.66 219.99 14.2 220.71 13.9 221.51C13.6 222.31 13.48 223.16 13.53 224.01C13.59 224.86 13.82 225.69 14.22 226.45C15.79 229.71 19.87 231.5 23.23 232.17Z" fill="#000000" fill-opacity="1.000000" fill-rule="nonzero"/>
			</g>
			<g opacity="0.100000">
				<path id="Vector" d="M31.82 257C35.66 256.73 43.01 252.75 43.6 252.43C45.87 256.63 48.42 260.69 51.23 264.56C52.85 266.82 54.56 269.04 56.3 271.26C55.35 270.37 54.5 269.57 54.37 269.48C50.71 266.74 42.01 263.59 37.83 266.54C37.14 267.06 36.58 267.71 36.17 268.45C35.75 269.2 35.5 270.02 35.43 270.87C35.35 271.72 35.46 272.57 35.73 273.38C36.01 274.18 36.45 274.92 37.04 275.54C39.41 278.26 43.83 278.92 47.24 278.68C50.65 278.44 57.04 275.16 58.7 274.28C59.38 275.12 60.04 275.97 60.7 276.81C63.96 280.81 67.23 284.81 70.32 288.87C71.41 290.29 72.41 291.73 73.45 293.16C72.61 292.37 71.9 291.71 71.78 291.62C68.11 288.87 59.41 285.72 55.24 288.69C54.55 289.2 53.98 289.85 53.57 290.59C53.16 291.34 52.9 292.16 52.83 293.01C52.75 293.86 52.86 294.71 53.14 295.52C53.42 296.32 53.86 297.06 54.45 297.69C56.83 300.42 61.24 301.06 64.65 300.82C68.06 300.57 73.83 297.62 75.81 296.57C76.81 298.07 77.81 299.57 78.73 301.07C79.33 302.07 79.97 303.07 80.51 304.15L82.16 307.28C83.16 309.28 84.16 311.4 85.08 313.4C85.72 314.79 86.31 316.12 86.9 317.47C85.83 316.04 83.68 313.29 83.48 313.07C80.28 309.82 72.16 305.39 67.57 307.68C66.82 308.08 66.16 308.63 65.64 309.31C65.12 309.98 64.74 310.76 64.54 311.58C64.34 312.41 64.31 313.27 64.47 314.11C64.62 314.95 64.95 315.74 65.43 316.45C67.37 319.51 71.63 320.81 75.04 321.09C78.79 321.4 86.37 318.72 87.31 318.38C88.31 320.6 89.21 322.78 90.05 324.85C90.68 326.37 91.27 327.84 91.82 329.26L94.93 328.58C94.27 327.01 93.57 325.37 92.85 323.66C91.85 321.4 90.78 319 89.63 316.54C91.77 315.1 93.82 313.52 95.78 311.82C98.95 314.04 106.23 315.82 107.17 316.1C106.75 318.49 106.33 320.81 105.89 323C105.66 324.16 105.43 325.25 105.2 326.34L108.5 325.62C108.63 324.94 108.75 324.26 108.87 323.56C109.31 321.13 109.72 318.56 110.12 315.85C111.12 315.85 119.12 315.72 122.57 314.13C125.67 312.68 129.21 309.98 129.97 306.44C130.17 305.61 130.2 304.75 130.05 303.91C129.9 303.07 129.58 302.27 129.1 301.57C128.63 300.86 128 300.26 127.28 299.81C126.56 299.36 125.75 299.07 124.91 298.96C119.82 298.4 113.74 305.37 111.91 309.54C111.8 309.79 110.91 312.6 110.37 314.39C110.52 313.29 110.69 312.23 110.83 311.1C111.14 308.87 111.38 306.64 111.65 304.23C111.74 303.07 111.83 301.89 111.92 300.7C112.01 299.51 112.01 298.26 112.06 297.04C112.06 294.18 112.06 291.29 111.88 288.38C113.88 288.64 120.79 289.48 124.08 288.51C127.37 287.56 131.28 285.42 132.56 282.04C132.89 281.25 133.05 280.4 133.03 279.55C133.01 278.7 132.81 277.86 132.45 277.09C132.08 276.32 131.56 275.64 130.91 275.08C130.27 274.53 129.51 274.12 128.7 273.88C123.7 272.54 116.7 278.51 114.2 282.37C114.05 282.6 112.58 285.57 111.8 287.21C111.7 285.46 111.6 283.72 111.44 281.95C110.97 276.85 110.34 271.7 109.74 266.56C109.55 264.98 109.38 263.41 109.21 261.84C109.9 261.94 118.15 263.12 121.84 262.04C125.12 261.04 129.03 258.94 130.32 255.56C130.64 254.77 130.8 253.92 130.78 253.07C130.76 252.22 130.56 251.38 130.2 250.61C129.83 249.84 129.31 249.16 128.67 248.6C128.02 248.05 127.26 247.64 126.45 247.4C121.45 246.07 114.45 252.05 111.96 255.89C111.77 256.18 109.66 260.45 109.18 261.56C108.8 258.09 108.45 254.64 108.25 251.22C107.95 246.6 107.95 241.97 108.25 237.36C108.57 237.41 117.17 238.68 120.95 237.57C124.23 236.57 128.14 234.48 129.42 231.09C129.75 230.3 129.91 229.45 129.89 228.6C129.88 227.75 129.68 226.92 129.31 226.15C128.95 225.38 128.43 224.69 127.78 224.14C127.14 223.58 126.38 223.17 125.57 222.93C120.57 221.61 113.57 227.58 111.07 231.43C110.88 231.73 108.61 236.31 108.26 237.18C108.26 236.91 108.26 236.63 108.26 236.36C108.68 231.74 109.52 227.17 110.77 222.7C111.42 220.22 112.19 217.89 112.98 215.64C114.56 216.04 121.79 217.79 125.3 217.17C128.81 216.55 132.78 214.88 134.44 211.66C134.85 210.91 135.1 210.09 135.17 209.24C135.25 208.39 135.14 207.54 134.86 206.73C134.58 205.93 134.14 205.19 133.56 204.57C132.98 203.95 132.27 203.46 131.49 203.13C126.71 201.26 119.04 206.43 116.15 209.98C116 210.17 114.62 212.31 113.63 213.88C114.01 212.88 114.37 211.82 114.75 210.88C116.16 207.27 117.67 204.05 119.03 201.2C119.82 199.59 120.56 198.2 121.27 196.81C123.02 196.4 130.07 194.64 132.85 192.51C135.63 190.38 138.44 187.03 138.42 183.41C138.44 182.55 138.28 181.71 137.96 180.92C137.63 180.13 137.14 179.42 136.53 178.83C135.91 178.25 135.17 177.8 134.37 177.51C133.57 177.23 132.72 177.12 131.87 177.19C126.77 177.74 122.34 185.85 121.42 190.34C121.34 190.72 120.78 196.93 120.87 196.91L120.97 196.91C120.26 198.19 119.52 199.56 118.73 201.08C117.31 203.9 115.73 207.08 114.23 210.69C112.59 214.51 111.18 218.43 110 222.43C108.64 226.92 107.69 231.54 107.16 236.21C107.15 236.26 107.15 236.32 107.16 236.38C106.86 234.91 105.9 230.82 105.79 230.51C104.25 226.2 98.74 218.78 93.61 218.94C92.76 218.99 91.93 219.22 91.18 219.61C90.42 220.01 89.76 220.55 89.23 221.22C88.7 221.88 88.32 222.65 88.1 223.48C87.89 224.3 87.85 225.16 88 226C88.48 229.58 91.8 232.55 94.78 234.24C98.14 236.13 106.47 236.86 107.13 236.92C106.7 241.68 106.59 246.47 106.8 251.25C106.91 254.03 107.1 256.82 107.33 259.64C107.04 258.37 106.76 257.24 106.71 257.09C105.17 252.78 99.65 245.36 94.53 245.52C93.68 245.57 92.85 245.79 92.09 246.19C91.33 246.58 90.67 247.12 90.14 247.79C89.61 248.46 89.23 249.23 89.01 250.05C88.8 250.88 88.76 251.74 88.91 252.58C89.39 256.17 92.71 259.14 95.68 260.82C98.66 262.5 105.8 263.29 107.69 263.48C107.79 264.54 107.87 265.63 107.98 266.7C108.47 271.85 108.98 277 109.34 282.07C109.47 283.85 109.52 285.6 109.59 287.37C109.32 286.25 109.09 285.31 109.04 285.17C107.5 280.85 102.04 273.43 96.86 273.59C96 273.64 95.17 273.87 94.42 274.26C93.66 274.65 93 275.2 92.47 275.87C91.94 276.53 91.56 277.31 91.34 278.13C91.13 278.96 91.09 279.82 91.24 280.66C91.72 284.25 95.05 287.22 98.02 288.9C100.99 290.57 107.44 291.29 109.67 291.51C109.67 293.32 109.67 295.13 109.67 296.88C109.59 298.07 109.6 299.23 109.46 300.43C109.32 301.63 109.23 302.79 109.12 303.95C108.81 306.19 108.52 308.49 108.12 310.66C107.89 312.17 107.64 313.6 107.39 315.06C107.29 313.28 107.01 309.79 106.96 309.51C106.03 305.59 104.11 301.97 101.39 299C101.31 298.55 101.18 298.12 101.02 297.71C100.73 296.9 100.28 296.17 99.7 295.55C99.11 294.93 98.4 294.44 97.62 294.12C96.83 293.79 95.98 293.64 95.13 293.66C94.28 293.68 93.44 293.89 92.68 294.26C88.12 296.6 86.9 305.76 87.68 310.26C87.68 310.51 88.53 313.35 89.06 315.14C88.59 314.14 88.14 313.14 87.64 312.14C86.64 310.14 85.64 308.14 84.53 305.96L82.81 302.87C82.25 301.87 81.54 300.79 80.9 299.74C79.37 297.32 77.7 294.96 75.97 292.62C77.75 291.76 83.97 288.62 86.23 286C88.49 283.38 90.52 279.45 89.73 275.92C89.56 275.08 89.23 274.29 88.74 273.59C88.25 272.9 87.62 272.31 86.89 271.87C86.16 271.44 85.35 271.16 84.51 271.05C83.66 270.95 82.81 271.02 82 271.26C77.14 272.9 74.55 281.78 74.6 286.35C74.6 286.64 75.01 289.92 75.26 291.72C74.26 290.32 73.16 288.91 72.06 287.51C68.86 283.51 65.49 279.57 62.15 275.63C61.15 274.42 60.15 273.2 59.15 271.99C59.78 271.69 67.31 268.12 69.79 265.18C72 262.57 74.08 258.63 73.29 255.1C73.13 254.26 72.79 253.46 72.31 252.76C71.82 252.06 71.19 251.47 70.46 251.03C69.73 250.59 68.92 250.31 68.07 250.21C67.23 250.1 66.37 250.18 65.56 250.43C60.7 252.05 58.11 260.93 58.16 265.51C58.16 265.85 58.76 270.57 58.96 271.76C56.74 269.09 54.54 266.4 52.49 263.66C49.69 259.97 47.14 256.11 44.85 252.1C45.14 251.96 53.01 248.27 55.55 245.26C57.76 242.65 59.85 238.71 59.05 235.18C58.89 234.34 58.55 233.55 58.07 232.85C57.58 232.15 56.96 231.56 56.23 231.12C55.5 230.68 54.69 230.39 53.84 230.29C53 230.18 52.14 230.26 51.33 230.51C46.46 232.13 43.87 241.01 43.91 245.59C43.91 245.95 44.57 251.03 44.75 251.94C44.62 251.7 44.45 251.48 44.32 251.24C42.13 247.14 40.31 242.87 38.88 238.46C38.06 236.04 37.41 233.67 36.88 231.35C38.41 230.82 45.41 228.29 48 225.83C50.59 223.37 53 219.83 52.58 216.2C52.51 215.35 52.27 214.52 51.86 213.77C51.46 213.02 50.9 212.36 50.22 211.85C49.55 211.33 48.77 210.96 47.94 210.76C47.11 210.56 46.25 210.54 45.41 210.7C40.41 211.78 36.86 220.32 36.41 224.88C36.41 225.13 36.41 227.67 36.48 229.53C36.23 228.48 35.96 227.4 35.74 226.39C34.91 222.6 34.4 219.08 33.97 215.96C33.74 214.18 33.57 212.57 33.41 211.06C34.65 209.75 39.55 204.39 40.7 201.06C41.85 197.73 42.34 193.4 40.33 190.4C39.87 189.67 39.28 189.05 38.57 188.57C37.86 188.1 37.07 187.77 36.23 187.62C35.39 187.47 34.53 187.5 33.7 187.71C32.87 187.91 32.1 188.29 31.43 188.82C27.49 192.09 28.27 201.31 29.97 205.56C30.11 205.93 33.07 211.41 33.13 211.34L33.21 211.26C33.32 212.72 33.46 214.26 33.64 215.98C34.01 219.11 34.45 222.65 35.18 226.48C35.95 230.6 36.95 234.68 38.18 238.7C39.54 243.19 41.29 247.56 43.41 251.75C43.41 251.75 43.48 251.85 43.5 251.9C42.5 250.83 39.39 247.95 39.13 247.76C35.46 245.01 26.77 241.86 22.59 244.83C21.9 245.34 21.33 245.99 20.92 246.73C20.5 247.48 20.25 248.3 20.18 249.15C20.1 250 20.21 250.85 20.49 251.66C20.77 252.47 21.21 253.2 21.8 253.83C24 256.57 28.41 257.21 31.82 257Z" fill="#000000" fill-opacity="1.000000" fill-rule="nonzero"/>
			</g>
			<g opacity="0.100000">
				<path id="Vector" d="M112.58 214.71C112.67 214.71 112.91 208.52 112.88 208.13C112.53 203.56 109.17 194.95 104.19 193.75C103.35 193.57 102.49 193.57 101.66 193.75C100.83 193.93 100.04 194.28 99.35 194.79C98.66 195.29 98.09 195.93 97.67 196.67C97.24 197.41 96.98 198.23 96.9 199.08C96.42 202.67 98.84 206.41 101.26 208.82C104.11 211.65 112.58 214.71 112.58 214.71Z" fill="#000000" fill-opacity="1.000000" fill-rule="nonzero"/>
			</g>
		</g>
		<g opacity="0.100000">
			<g opacity="0.100000">
				<path id="Vector" d="M469.06 318.29C465.68 318.41 458.69 315.49 458.69 315.49C458.69 315.49 462.01 311.49 462.26 311.24C465.07 308.6 472.06 305.19 475.83 307.24C476.44 307.6 476.97 308.1 477.39 308.68C477.8 309.27 478.09 309.93 478.22 310.64C478.36 311.34 478.35 312.06 478.2 312.76C478.04 313.46 477.73 314.12 477.31 314.7C475.56 317.24 471.93 318.18 469.06 318.29Z" fill="#000000" fill-opacity="1.000000" fill-rule="nonzero"/>
			</g>
			<g opacity="0.100000">
				<path id="Vector" d="M458.61 337.75C455.45 337.02 449.88 332.75 449.43 332.38C446.97 335.57 444.29 338.6 441.43 341.44C439.78 343.11 438.07 344.73 436.33 346.34C437.23 345.72 438.04 345.18 438.17 345.12C441.58 343.32 449.22 341.87 452.3 344.89C452.79 345.4 453.18 346.02 453.42 346.69C453.66 347.36 453.77 348.08 453.71 348.8C453.66 349.51 453.46 350.21 453.12 350.84C452.79 351.47 452.32 352.03 451.76 352.47C449.42 354.42 445.67 354.36 442.87 353.71C440.07 353.06 435.19 349.48 433.93 348.52C433.25 349.13 432.59 349.75 431.93 350.35C428.69 353.27 425.44 356.16 422.33 359.1C421.24 360.1 420.2 361.19 419.16 362.24C419.96 361.7 420.64 361.24 420.75 361.18C424.16 359.39 431.81 357.94 434.89 360.96C435.38 361.47 435.77 362.08 436.01 362.76C436.25 363.43 436.35 364.15 436.3 364.86C436.25 365.58 436.05 366.27 435.71 366.9C435.38 367.53 434.91 368.09 434.35 368.53C432.01 370.53 428.26 370.43 425.45 369.78C422.64 369.13 418.25 365.89 416.74 364.78C415.74 365.89 414.67 367.01 413.74 368.13C413.1 368.91 412.44 369.62 411.85 370.45L410.05 372.83C408.97 374.38 407.84 375.98 406.82 377.52C406.1 378.59 405.44 379.62 404.76 380.66C405.84 379.61 407.99 377.66 408.19 377.47C411.29 375.18 418.62 372.59 422.13 375.1C422.69 375.53 423.17 376.08 423.51 376.71C423.85 377.34 424.06 378.04 424.12 378.75C424.17 379.46 424.08 380.18 423.84 380.86C423.6 381.54 423.23 382.15 422.74 382.68C420.74 384.96 417 385.48 414.13 385.25C410.98 385.01 405.04 381.77 404.3 381.36C403.19 383.08 402.13 384.76 401.16 386.36C400.44 387.54 399.75 388.69 399.1 389.79L396.6 388.79C397.35 387.57 398.15 386.31 398.99 384.98C400.11 383.23 401.34 381.39 402.62 379.5C401.03 378.01 399.53 376.42 398.14 374.76C395.21 376.18 388.92 376.76 388.14 376.76C388.14 378.76 388.21 380.76 388.29 382.66C388.29 383.66 388.37 384.6 388.41 385.53L385.77 384.53C385.77 383.94 385.77 383.37 385.77 382.76C385.77 380.68 385.77 378.46 385.77 376.19C384.95 376.05 378.27 374.88 375.65 373.1C373.27 371.48 370.65 368.76 370.53 365.72C370.46 365 370.55 364.28 370.79 363.6C371.02 362.93 371.4 362.31 371.89 361.78C372.38 361.26 372.97 360.85 373.64 360.57C374.3 360.29 375.01 360.16 375.73 360.18C380.03 360.4 384.15 367 385.15 370.72C385.21 370.94 385.58 373.39 385.79 374.95C385.79 374.01 385.79 373.11 385.84 372.15C385.84 370.26 385.98 368.37 386.07 366.34C386.16 365.34 386.24 364.34 386.32 363.34C386.4 362.34 386.57 361.34 386.7 360.28C387.03 357.9 387.49 355.51 388 353.11C386.34 353.11 380.45 352.84 377.84 351.6C375.23 350.36 372.28 348.07 371.66 345.08C371.49 344.38 371.47 343.66 371.6 342.95C371.73 342.25 372.01 341.58 372.41 340.99C372.82 340.4 373.34 339.9 373.95 339.53C374.56 339.15 375.25 338.91 375.96 338.82C380.25 338.38 385.32 344.28 386.87 347.82C386.97 348.04 387.8 350.7 388.22 352.16C388.54 350.72 388.85 349.28 389.22 347.84C390.29 343.66 391.5 339.47 392.69 335.28C393.06 333.99 393.4 332.71 393.76 331.43C393.17 331.43 386.16 331.3 383.24 329.91C380.64 328.67 377.67 326.37 377.06 323.39C376.88 322.69 376.86 321.96 376.99 321.26C377.12 320.55 377.4 319.88 377.8 319.29C378.21 318.7 378.74 318.2 379.35 317.83C379.96 317.46 380.64 317.22 381.36 317.13C385.65 316.69 390.72 322.59 392.27 326.13C392.38 326.39 393.57 330.22 393.82 331.2C394.6 328.38 395.35 325.54 395.97 322.74C396.83 318.94 397.45 315.1 397.82 311.23C397.54 311.23 390.23 311.13 387.24 309.7C384.64 308.47 381.67 306.17 381.05 303.19C380.88 302.49 380.86 301.76 380.99 301.06C381.12 300.35 381.39 299.68 381.8 299.09C382.2 298.5 382.73 298 383.34 297.63C383.95 297.25 384.63 297.01 385.35 296.92C389.65 296.48 394.71 302.39 396.26 305.92C396.39 306.2 397.66 310.32 397.84 311.07C397.84 310.85 397.9 310.62 397.92 310.4C398.17 306.5 398.08 302.59 397.65 298.71C397.44 296.57 397.12 294.53 396.76 292.54C395.4 292.67 389.16 293.16 386.32 292.18C383.48 291.2 380.4 289.28 379.46 286.38C379.21 285.7 379.11 284.98 379.16 284.27C379.22 283.55 379.42 282.86 379.76 282.23C380.1 281.59 380.56 281.04 381.13 280.6C381.7 280.16 382.35 279.85 383.05 279.68C387.26 278.76 392.95 284.07 394.88 287.42C394.98 287.6 395.88 289.56 396.45 291C396.28 290.1 396.11 289.19 395.93 288.34C395.24 285.15 394.41 282.26 393.66 279.73C393.22 278.29 392.79 276.99 392.38 275.73C390.98 275.15 385.38 272.73 383.38 270.6C381.38 268.49 379.46 265.31 379.96 262.31C380.05 261.59 380.29 260.91 380.66 260.3C381.04 259.69 381.54 259.16 382.13 258.75C382.72 258.35 383.39 258.07 384.1 257.94C384.8 257.81 385.53 257.84 386.23 258.01C390.39 259.15 392.99 266.48 393.17 270.32C393.17 270.67 392.82 275.89 392.75 275.85L392.66 275.85C393.08 277.01 393.52 278.26 393.97 279.63C394.78 282.16 395.67 285.03 396.43 288.21C397.29 291.63 397.96 295.1 398.43 298.6C398.95 302.53 399.13 306.48 398.96 310.44C398.95 310.48 398.95 310.53 398.96 310.57C399.4 309.39 400.75 306.12 400.88 305.88C402.73 302.51 408.3 297.07 412.54 297.88C413.23 298.03 413.89 298.33 414.47 298.76C415.04 299.19 415.52 299.73 415.87 300.35C416.23 300.98 416.44 301.67 416.51 302.38C416.58 303.1 416.49 303.82 416.27 304.5C415.39 307.42 412.27 309.5 409.54 310.5C406.49 311.63 399.47 311.12 398.92 311.07C398.57 315.08 397.96 319.07 397.1 323C396.64 325.29 396.1 327.6 395.54 329.9C395.95 328.9 396.33 327.99 396.4 327.9C398.26 324.51 403.83 319.09 408.06 319.9C408.76 320.05 409.42 320.35 409.99 320.78C410.57 321.2 411.05 321.75 411.4 322.37C411.75 323 411.97 323.69 412.03 324.4C412.1 325.12 412.02 325.84 411.79 326.51C410.91 329.43 407.79 331.46 405.06 332.46C402.33 333.46 396.33 333.17 394.74 333.06C394.52 333.94 394.3 334.83 394.07 335.7C392.97 339.92 391.86 344.13 390.89 348.29C390.55 349.76 390.26 351.21 389.98 352.67C390.35 351.77 390.66 351.02 390.72 350.91C392.58 347.53 398.15 342.1 402.39 342.91C403.08 343.06 403.74 343.36 404.32 343.79C404.89 344.22 405.37 344.76 405.72 345.38C406.08 346.01 406.29 346.7 406.36 347.41C406.43 348.13 406.34 348.85 406.12 349.53C405.24 352.44 402.12 354.47 399.38 355.47C396.64 356.47 391.24 356.2 389.38 356.09C389.13 357.59 388.88 359.09 388.7 360.56C388.61 361.56 388.45 362.56 388.4 363.56L388.22 366.56C388.17 368.46 388.11 370.41 388.11 372.26C388.11 373.55 388.11 374.78 388.11 376.01C388.43 374.55 389.11 371.7 389.21 371.47C390.49 368.33 392.55 365.58 395.21 363.47C395.33 363.12 395.49 362.78 395.69 362.47C396.03 361.84 396.5 361.29 397.07 360.85C397.64 360.42 398.29 360.11 398.99 359.95C399.69 359.78 400.41 359.76 401.12 359.9C401.82 360.03 402.49 360.31 403.08 360.72C406.56 363.28 406.35 371.06 405.08 374.72C405.01 374.93 403.97 377.19 403.29 378.6C403.82 377.83 404.29 377.08 404.87 376.29C405.95 374.74 407.07 373.21 408.28 371.57L410.12 369.23C410.72 368.44 411.45 367.67 412.12 366.88C413.72 365.09 415.42 363.34 417.17 361.62C415.8 360.67 411.02 357.23 409.53 354.76C408.04 352.29 406.83 348.76 407.97 345.91C408.21 345.24 408.59 344.63 409.08 344.11C409.58 343.6 410.17 343.2 410.83 342.93C411.49 342.66 412.2 342.53 412.91 342.56C413.62 342.58 414.32 342.75 414.97 343.06C418.79 345.06 419.76 352.78 419.11 356.58C419.11 356.81 418.29 359.49 417.84 360.94C418.9 359.94 419.95 358.89 421.06 357.89C424.26 354.99 427.58 352.16 430.88 349.33L433.88 346.7C433.39 346.37 427.61 342.4 425.94 339.63C424.45 337.17 423.25 333.63 424.38 330.79C424.62 330.12 425 329.51 425.49 328.99C425.99 328.48 426.58 328.08 427.24 327.81C427.9 327.54 428.61 327.41 429.32 327.43C430.03 327.45 430.73 327.62 431.38 327.93C435.2 329.93 436.17 337.65 435.52 341.45C435.52 341.74 434.35 345.58 434.02 346.54C436.23 344.62 438.41 342.67 440.48 340.67C443.34 337.96 446.02 335.06 448.5 332C448.27 331.84 442.23 327.73 440.5 324.89C439.01 322.42 437.8 318.89 438.93 316.04C439.17 315.36 439.56 314.75 440.05 314.23C440.55 313.72 441.15 313.31 441.82 313.04C442.48 312.77 443.19 312.65 443.91 312.67C444.63 312.7 445.33 312.87 445.98 313.19C449.8 315.19 450.77 322.91 450.12 326.71C450.07 327.01 448.86 331.14 448.59 331.87C448.73 331.7 448.89 331.53 449.03 331.35C451.39 328.24 453.48 324.93 455.26 321.46C456.26 319.54 457.12 317.67 457.91 315.82C456.7 315.18 451.23 312.14 449.41 309.76C447.59 307.38 446.07 304.07 446.88 301.14C447.04 300.44 447.35 299.78 447.79 299.21C448.23 298.65 448.78 298.18 449.41 297.83C450.04 297.49 450.74 297.29 451.46 297.24C452.17 297.18 452.89 297.28 453.57 297.53C457.57 299.1 459.4 306.66 459.17 310.53C459.17 310.74 458.79 312.85 458.51 314.38C458.85 313.54 459.22 312.69 459.51 311.88C460.69 308.88 461.59 305.98 462.37 303.44C462.8 302 463.16 300.68 463.48 299.44C462.63 298.18 459.27 293.07 458.76 290.18C458.25 287.28 458.42 283.59 460.49 281.37C460.96 280.82 461.53 280.39 462.18 280.08C462.83 279.78 463.54 279.62 464.26 279.61C464.97 279.59 465.68 279.73 466.34 280.01C467 280.29 467.6 280.71 468.09 281.24C470.94 284.49 469.09 292.04 467.09 295.34C466.92 295.63 463.73 299.79 463.69 299.73L463.63 299.65C463.35 300.85 463.02 302.12 462.63 303.51C462 306 461.12 308.92 460 312C458.82 315.33 457.45 318.59 455.9 321.76C454.17 325.31 452.14 328.71 449.81 331.91C449.78 331.94 449.75 331.98 449.72 332.02C450.72 331.28 453.67 329.29 453.91 329.16C457.32 327.37 464.97 325.91 468.05 328.93C468.54 329.44 468.93 330.06 469.17 330.73C469.41 331.4 469.52 332.12 469.46 332.84C469.41 333.55 469.21 334.25 468.87 334.88C468.54 335.51 468.07 336.07 467.51 336.51C465.17 338.46 461.41 338.41 458.61 337.75Z" fill="#000000" fill-opacity="1.000000" fill-rule="nonzero"/>
			</g>
			<g opacity="0.100000">
				<path id="Vector" d="M397.14 291.87C397.06 291.87 397.69 286.68 397.77 286.35C398.67 282.6 402.61 275.9 406.91 275.57C407.62 275.53 408.34 275.65 409 275.91C409.67 276.17 410.28 276.56 410.78 277.07C411.28 277.58 411.68 278.19 411.93 278.86C412.18 279.53 412.29 280.25 412.25 280.97C412.18 283.97 409.67 286.79 407.33 288.48C404.58 290.45 397.14 291.85 397.14 291.87Z" fill="#000000" fill-opacity="1.000000" fill-rule="nonzero"/>
			</g>
		</g>
		<path id="Vector" d="M208.65 33.36L221.15 152.14" stroke="#263238" stroke-opacity="1.000000" stroke-width="1.000000" stroke-linejoin="round" stroke-linecap="round"/>
		<path id="Vector" d="M246.14 58.6L236.82 60.74L228.29 77.61L214.78 73.75L214.4 77.43L231.2 84.4L237.21 76.06L237.21 90.61L255.25 91.39L258.94 74.9L265.53 80.72L265.53 96.04L269.41 96.04L271.74 76.84L261.46 60.16L246.14 58.6Z" fill="#FFFFFF" fill-opacity="1.000000" fill-rule="nonzero"/>
		<path id="Vector" d="M236.82 60.74L228.29 77.61L214.78 73.75L214.4 77.43L231.2 84.4L237.21 76.06L237.21 90.61L255.25 91.39L258.94 74.9L265.53 80.72L265.53 96.04L269.41 96.04L271.74 76.84L261.46 60.16L246.14 58.6L236.82 60.74Z" stroke="#263238" stroke-opacity="1.000000" stroke-width="1.000000" stroke-linejoin="round"/>
		<path id="Vector" d="M237.21 76.06L237.07 67.85" stroke="#263238" stroke-opacity="1.000000" stroke-width="1.000000" stroke-linejoin="round" stroke-linecap="round"/>
		<path id="Vector" d="M246 64L248.53 68.75C248.53 68.75 255.53 70.97 256.76 71.28C258.01 71.59 261.84 70.33 265 69.69C268.16 69.07 278.31 74.13 278.31 74.13L287.18 74.44L282.43 68.75L265.32 66.21L256.45 69.07L250.45 67.48L251.73 65L248.88 60.56L246 64Z" fill="#000000" fill-opacity="1.000000" fill-rule="nonzero"/>
		<path id="Vector" d="M248.53 68.75C248.53 68.75 255.53 70.97 256.76 71.28C258.01 71.59 261.84 70.33 265 69.69C268.16 69.07 278.31 74.13 278.31 74.13L287.18 74.44L282.43 68.75L265.32 66.21L256.45 69.07L250.45 67.48L251.73 65L248.88 60.56L246 64L248.53 68.75Z" stroke="#263238" stroke-opacity="1.000000" stroke-width="1.000000" stroke-linejoin="round"/>
		<path id="Vector" d="M246.91 57.24C246.39 57.14 245.86 57.25 245.42 57.54C244.99 57.83 244.68 58.28 244.58 58.8C244.2 60.74 243.81 65.59 243.81 65.59L248.46 64.23L253.9 66.56C253.9 66.56 255.64 61.51 254.67 59.77C253.7 58.03 249.24 55.69 246.91 57.24Z" fill="#FFFFFF" fill-opacity="1.000000" fill-rule="nonzero"/>
		<path id="Vector" d="M245.42 57.54C244.99 57.83 244.68 58.28 244.58 58.8C244.2 60.74 243.81 65.59 243.81 65.59L248.46 64.23L253.9 66.56C253.9 66.56 255.64 61.51 254.67 59.77C253.7 58.03 249.24 55.69 246.91 57.24C246.39 57.14 245.86 57.25 245.42 57.54Z" stroke="#263238" stroke-opacity="1.000000" stroke-width="1.000000" stroke-linejoin="round"/>
		<path id="Vector" d="M245.94 54.53C245.94 54.53 246.52 59.96 246.72 61.9C246.92 63.84 248.08 66.75 248.85 66.16C249.62 65.59 252.34 60.16 252.34 60.16L253.7 56.49L245.94 54.53Z" fill="#FFFFFF" fill-opacity="1.000000" fill-rule="nonzero"/>
		<path id="Vector" d="M246.72 61.9C246.92 63.84 248.08 66.75 248.85 66.16C249.62 65.59 252.34 60.16 252.34 60.16L253.7 56.49L245.94 54.53C245.94 54.53 246.52 59.96 246.72 61.9Z" stroke="#263238" stroke-opacity="1.000000" stroke-width="1.000000" stroke-linejoin="round"/>
		<path id="Vector" d="M246 46.6C246 46.6 244.3 46.45 244.3 49.23C244.3 52.01 245.53 52.16 245.53 52.16L246 46.6Z" fill="#FFFFFF" fill-opacity="1.000000" fill-rule="nonzero"/>
		<path id="Vector" d="M244.3 49.23C244.3 52.01 245.53 52.16 245.53 52.16L246 46.6C246 46.6 244.3 46.45 244.3 49.23Z" stroke="#263238" stroke-opacity="1.000000" stroke-width="1.000000" stroke-linejoin="round"/>
		<path id="Vector" d="M257.37 48.92C257.59 48.93 257.8 48.99 258 49.09C258.19 49.19 258.36 49.34 258.49 49.52C258.62 49.69 258.72 49.9 258.76 50.11C258.81 50.33 258.81 50.55 258.76 50.77C258.45 52.47 255.52 54.77 255.52 54.77L257.37 48.92Z" fill="#FFFFFF" fill-opacity="1.000000" fill-rule="nonzero"/>
		<path id="Vector" d="M258 49.09C258.19 49.19 258.36 49.34 258.49 49.52C258.62 49.69 258.72 49.9 258.76 50.11C258.81 50.33 258.81 50.55 258.76 50.77C258.45 52.47 255.52 54.77 255.52 54.77L257.37 48.92C257.59 48.93 257.8 48.99 258 49.09Z" stroke="#263238" stroke-opacity="1.000000" stroke-width="1.000000" stroke-linejoin="round"/>
		<path id="Vector" d="M251.76 41C251.76 41 248.66 40.22 246.91 43.9C245.16 47.6 245.55 52.06 245.91 54.58C246.27 57.1 248.63 58.26 250.96 58.26C253.29 58.26 256.76 53.41 257.54 49.73C258.32 46.04 257.76 41 251.76 41Z" fill="#FFFFFF" fill-opacity="1.000000" fill-rule="nonzero"/>
		<path id="Vector" d="M246.91 43.9C245.16 47.6 245.55 52.06 245.91 54.58C246.27 57.1 248.63 58.26 250.96 58.26C253.29 58.26 256.76 53.41 257.54 49.73C258.32 46.04 257.76 41 251.76 41C251.76 41 248.66 40.22 246.91 43.9Z" stroke="#263238" stroke-opacity="1.000000" stroke-width="1.000000" stroke-linejoin="round"/>
		<path id="Vector" d="M211.03 71.6L211.8 77.42L215.29 77.81L214.71 71.21L211.03 71.6Z" fill="#FFFFFF" fill-opacity="1.000000" fill-rule="nonzero"/>
		<path id="Vector" d="M211.8 77.42L215.29 77.81L214.71 71.21L211.03 71.6L211.8 77.42Z" stroke="#263238" stroke-opacity="1.000000" stroke-width="1.000000" stroke-linejoin="round"/>
		<path id="Vector" d="M214.78 71.51L216.19 71.32L216.47 74.42L215.06 74.61L214.78 71.51Z" fill="#FFFFFF" fill-opacity="1.000000" fill-rule="nonzero"/>
		<path id="Vector" d="M216.19 71.32L216.47 74.42L215.06 74.61L214.78 71.51L216.19 71.32Z" stroke="#263238" stroke-opacity="1.000000" stroke-width="1.000000" stroke-linejoin="round"/>
		<path id="Vector" d="M265.53 96.04L263.41 99.36L263.95 102.69L265.81 102.51L268.95 101.4L269.41 96.04L265.53 96.04Z" fill="#FFFFFF" fill-opacity="1.000000" fill-rule="nonzero"/>
		<path id="Vector" d="M263.41 99.36L263.95 102.69L265.81 102.51L268.95 101.4L269.41 96.04L265.53 96.04L263.41 99.36Z" stroke="#263238" stroke-opacity="1.000000" stroke-width="1.000000" stroke-linejoin="round"/>
		<path id="Vector" d="M237.2 90.61L235.84 96.59L220.66 116.57L230.84 145.25L233.43 144.7L231.2 117.31L243.61 104.17L245.09 105.1L245.13 119.76L259.34 143.78L262.29 143.03L255.64 119.9L256.01 95.29L255.25 91.39L237.2 90.61Z" fill="#263238" fill-opacity="1.000000" fill-rule="nonzero"/>
		<path id="Vector" d="M235.84 96.59L220.66 116.57L230.84 145.25L233.43 144.7L231.2 117.31L243.61 104.17L245.09 105.1L245.13 119.76L259.34 143.78L262.29 143.03L255.64 119.9L256.01 95.29L255.25 91.39L237.2 90.61L235.84 96.59Z" stroke="#263238" stroke-opacity="1.000000" stroke-width="1.000000" stroke-linejoin="round"/>
		<path id="Vector" d="M230.84 145.25L228.62 148.39C228.62 148.39 225.1 150.07 224.55 150.99C224 151.91 227.55 151.73 227.55 151.73L231.62 151.36L235.88 148.59L233.47 144.7L230.84 145.25Z" fill="#FFFFFF" fill-opacity="1.000000" fill-rule="nonzero"/>
		<path id="Vector" d="M228.62 148.39C228.62 148.39 225.1 150.07 224.55 150.99C224 151.91 227.55 151.73 227.55 151.73L231.62 151.36L235.88 148.59L233.47 144.7L230.84 145.25L228.62 148.39Z" stroke="#263238" stroke-opacity="1.000000" stroke-width="1.000000" stroke-linejoin="round"/>
		<path id="Vector" d="M209.18 37.59C209.18 37.59 207.32 41.83 199.64 44.74C191.96 47.65 180.84 49.24 177.93 55.33C175.02 61.42 175.02 60.9 174.49 64.33C174.2 66.33 173.27 68.19 171.84 69.62C171.84 69.62 174.49 69.89 175.84 68.04C177.19 66.19 177.7 60.89 179.84 60.09C181.98 59.29 185.87 58 185.87 58C185.87 58 182.17 61.18 181.87 62.77C181.57 64.36 181.34 68.07 180.81 70.45C180.57 71.75 179.94 72.94 179 73.87C179 73.87 182.44 73.87 183.5 71.49C184.56 69.11 183.5 65.93 186.94 63.54C190.38 61.15 194.09 62.22 199.94 62.48C205.79 62.74 211.33 59.31 211.33 59.31L209.18 37.59Z" fill="#000000" fill-opacity="1.000000" fill-rule="nonzero"/>
		<path id="Vector" d="M199.64 44.74C191.96 47.65 180.84 49.24 177.93 55.33C175.02 61.42 175.02 60.9 174.49 64.33C174.2 66.33 173.27 68.19 171.84 69.62C171.84 69.62 174.49 69.89 175.84 68.04C177.19 66.19 177.7 60.89 179.84 60.09C181.98 59.29 185.87 58 185.87 58C185.87 58 182.17 61.18 181.87 62.77C181.57 64.36 181.34 68.07 180.81 70.45C180.57 71.75 179.94 72.94 179 73.87C179 73.87 182.44 73.87 183.5 71.49C184.56 69.11 183.5 65.93 186.94 63.54C190.38 61.15 194.09 62.22 199.94 62.48C205.79 62.74 211.33 59.31 211.33 59.31L209.18 37.59C209.18 37.59 207.32 41.83 199.64 44.74Z" stroke="#263238" stroke-opacity="1.000000" stroke-width="1.000000" stroke-linejoin="round"/>
		<path id="Vector" d="M259.34 143.78L256.79 152.25L263.12 152L262.29 143.03L259.34 143.78Z" fill="#FFFFFF" fill-opacity="1.000000" fill-rule="nonzero"/>
		<path id="Vector" d="M256.79 152.25L263.12 152L262.29 143.03L259.34 143.78L256.79 152.25Z" stroke="#263238" stroke-opacity="1.000000" stroke-width="1.000000" stroke-linejoin="round"/>
		<path id="Vector" d="M249.64 48.42C249.53 48.92 249.18 49.28 248.84 49.21C248.5 49.14 248.32 48.66 248.43 48.21C248.54 47.75 248.89 47.36 249.22 47.42C249.57 47.5 249.74 47.92 249.64 48.42Z" fill="#263238" fill-opacity="1.000000" fill-rule="nonzero"/>
		<path id="Vector" d="M254.27 49.51C254.16 50.01 253.81 50.36 253.47 50.29C253.13 50.22 252.95 49.75 253.06 49.29C253.17 48.83 253.52 48.44 253.86 48.51C254.2 48.58 254.37 49 254.27 49.51Z" fill="#263238" fill-opacity="1.000000" fill-rule="nonzero"/>
		<path id="Vector" d="M251.19 49.07L249.96 52.78L251.97 52.78" stroke="#263238" stroke-opacity="1.000000" stroke-width="1.000000" stroke-linejoin="round" stroke-linecap="round"/>
		<path id="Vector" d="M248.42 53.86C248.42 53.86 249.5 55.71 252.28 54.63" stroke="#263238" stroke-opacity="1.000000" stroke-width="1.000000" stroke-linejoin="round" stroke-linecap="round"/>
		<path id="Vector" d="M248.26 45.83C248.66 45.61 249.12 45.54 249.57 45.62C250.02 45.7 250.43 45.94 250.73 46.29" stroke="#263238" stroke-opacity="1.000000" stroke-width="1.000000" stroke-linejoin="round" stroke-linecap="round"/>
		<path id="Vector" d="M253.05 46.91C253.32 46.76 253.61 46.67 253.92 46.64C254.23 46.62 254.54 46.66 254.83 46.76C255.12 46.86 255.39 47.03 255.61 47.24C255.83 47.45 256.01 47.71 256.13 48" stroke="#263238" stroke-opacity="1.000000" stroke-width="1.000000" stroke-linejoin="round" stroke-linecap="round"/>
		<path id="Vector" d="M245.33 45.37L256.44 44C256.44 44 255.98 45.85 256.6 46.31C257.22 46.77 257.37 48.94 257.37 48.94L256.91 51.41L259.38 47.09C259.38 47.09 260.15 43.69 259.53 42.61C259.32 42.28 259.05 42 258.73 41.79C258.41 41.57 258.05 41.43 257.68 41.37C257.01 40.36 256.08 39.57 254.99 39.08C253.89 38.59 252.68 38.42 251.5 38.6C247.18 39.06 245.33 41.22 245.33 42.92L245.33 45.37Z" fill="#263238" fill-opacity="1.000000" fill-rule="nonzero"/>
		<path id="Vector" d="M256.44 44C256.44 44 255.98 45.85 256.6 46.31C257.22 46.77 257.37 48.94 257.37 48.94L256.91 51.41L259.38 47.09C259.38 47.09 260.15 43.69 259.53 42.61C259.32 42.28 259.05 42 258.73 41.79C258.41 41.57 258.05 41.43 257.68 41.37C257.01 40.36 256.08 39.57 254.99 39.08C253.89 38.59 252.68 38.42 251.5 38.6C247.18 39.06 245.33 41.22 245.33 42.92L245.33 45.37L256.44 44Z" stroke="#263238" stroke-opacity="1.000000" stroke-width="1.000000" stroke-linejoin="round"/>
		<path id="Vector" d="M237.13 465.2L256.73 352.73L182.75 284.84L209.6 193.36L180.86 194L168.72 204.86L143.35 204.24L139.92 216.61L132.96 215.74L130.56 220.08L118.69 243.78L112.52 267.45L89.51 296.2L87 364.04L49.91 417.56L38.25 465.2L237.13 465.2Z" fill="#808080" fill-opacity="1.000000" fill-rule="nonzero"/>
		<path id="Vector" d="M256.73 352.73L182.75 284.84L209.6 193.36L180.86 194L168.72 204.86L143.35 204.24L139.92 216.61L132.96 215.74L130.56 220.08L118.69 243.78L112.52 267.45L89.51 296.2L87 364.04L49.91 417.56L38.25 465.2L237.13 465.2L256.73 352.73Z" stroke="#39515E" stroke-opacity="1.000000" stroke-width="1.000000" stroke-linejoin="round"/>
		<path id="Vector" d="M404.06 465.2L379.51 411.37L419.51 438.02L419.51 395.37L396 367.52L399.47 336.19L363.78 268.29L362 244.8L349.82 233.48L287.29 238L282.84 216.05L242.84 193.42L218.84 251.53L196.72 261.31L212.31 282.67L209.79 299.6L215 325.74L128 344.89C128 344.89 127.13 386.67 127.13 390.15C127.13 393.63 109.72 413.65 109.72 413.65L108.91 465.2L404.06 465.2Z" fill="#ABABAB" fill-opacity="1.000000" fill-rule="nonzero"/>
		<path id="Vector" d="M379.51 411.37L419.51 438.02L419.51 395.37L396 367.52L399.47 336.19L363.78 268.29L362 244.8L349.82 233.48L287.29 238L282.84 216.05L242.84 193.42L218.84 251.53L196.72 261.31L212.31 282.67L209.79 299.6L215 325.74L128 344.89C128 344.89 127.13 386.67 127.13 390.15C127.13 393.63 109.72 413.65 109.72 413.65L108.91 465.2L404.06 465.2L379.51 411.37Z" stroke="#39515E" stroke-opacity="1.000000" stroke-width="1.000000" stroke-linejoin="round"/>
		<path id="Vector" d="M452.51 465.2L442.12 460.65L429.06 432.8L413.39 421.49L406.43 404.95L399.47 391.89L362.27 373.72L368.04 465.2L452.51 465.2Z" fill="#CCCCCC" fill-opacity="1.000000" fill-rule="nonzero"/>
		<path id="Vector" d="M442.12 460.65L429.06 432.8L413.39 421.49L406.43 404.95L399.47 391.89L362.27 373.72L368.04 465.2L452.51 465.2L442.12 460.65Z" stroke="#39515E" stroke-opacity="1.000000" stroke-width="1.000000" stroke-linejoin="round"/>
		<path id="Vector" d="M63.14 465.09L109.66 465.09L110.5 438.02L106.15 422.36L106.15 380.58L95.7 378.84L86.99 388.41L73.07 396.25L42.9 465.2L63.14 465.2L63.14 465.09Z" fill="#CCCCCC" fill-opacity="1.000000" fill-rule="nonzero"/>
		<path id="Vector" d="M109.66 465.09L110.5 438.02L106.15 422.36L106.15 380.58L95.7 378.84L86.99 388.41L73.07 396.25L42.9 465.2L63.14 465.2L63.14 465.09L109.66 465.09Z" stroke="#39515E" stroke-opacity="1.000000" stroke-width="1.000000" stroke-linejoin="round"/>
		<path id="Vector" d="M79.23 419.77L80.25 415.43" stroke="#39515E" stroke-opacity="1.000000" stroke-width="1.000000"/>
		<path id="Vector" d="M63.14 465.2L69.35 440.71L75.19 436.99L78.62 422.41" stroke="#39515E" stroke-opacity="1.000000" stroke-width="1.000000"/>
		<path id="Vector" d="M53.1 465.46L62.96 437.52" stroke="#39515E" stroke-opacity="1.000000" stroke-width="1.000000"/>
		<path id="Vector" d="M95.84 390.4L94.88 394.94" stroke="#39515E" stroke-opacity="1.000000" stroke-width="1.000000"/>
		<path id="Vector" d="M98.07 379.78L96.25 388.45" stroke="#39515E" stroke-opacity="1.000000" stroke-width="1.000000"/>
		<path id="Vector" d="M109.66 465.09L110.5 438.02L106.15 422.36L106.15 380.58L97.44 436.28L89.6 438.89L87 454.56L85.37 465.09L109.66 465.09Z" fill="#FFFFFF" fill-opacity="1.000000" fill-rule="nonzero"/>
		<path id="Vector" d="M110.5 438.02L106.15 422.36L106.15 380.58L97.44 436.28L89.6 438.89L87 454.56L85.37 465.09L109.66 465.09L110.5 438.02Z" stroke="#39515E" stroke-opacity="1.000000" stroke-width="1.000000" stroke-linejoin="round"/>
		<path id="Vector" d="M258.6 434.22C263.55 433.55 268.39 432.23 273 430.3C276.67 428.8 279.91 426.39 282.4 423.3C282.69 422.91 282.96 422.5 283.22 422.09L276.35 391.09L262.79 379.27L260.54 369.13L247.54 358.99L243.04 374.77L235.71 384.91L235.15 422.1L242.15 435.48C247.65 435.43 253.15 435.01 258.6 434.22Z" fill="#FFFFFF" fill-opacity="1.000000" fill-rule="nonzero"/>
		<path id="Vector" d="M273 430.3C276.67 428.8 279.91 426.39 282.4 423.3C282.69 422.91 282.96 422.5 283.22 422.09L276.35 391.09L262.79 379.27L260.54 369.13L247.54 358.99L243.04 374.77L235.71 384.91L235.15 422.1L242.15 435.48C247.65 435.43 253.15 435.01 258.6 434.22C263.55 433.55 268.39 432.23 273 430.3Z" stroke="#39515E" stroke-opacity="1.000000" stroke-width="1.000000" stroke-linejoin="round"/>
		<path id="Vector" d="M258.6 434.22L257.23 422.64L261.29 411.67L261.29 405.17L260.48 395.01" stroke="#39515E" stroke-opacity="1.000000" stroke-width="1.000000"/>
		<path id="Vector" d="M266.85 399.02L269.01 411.26L273.07 412.07L272.26 422.23L273.89 427.52" stroke="#39515E" stroke-opacity="1.000000" stroke-width="1.000000"/>
		<path id="Vector" d="M265.35 390.54L266.07 394.62" stroke="#39515E" stroke-opacity="1.000000" stroke-width="1.000000"/>
		<path id="Vector" d="M251.95 364.53L255.2 397.85" stroke="#39515E" stroke-opacity="1.000000" stroke-width="1.000000"/>
		<path id="Vector" d="M212.25 433.39C221.59 434.81 231.04 435.51 240.5 435.49C242.4 435.49 244.26 435.44 246.09 435.37L245.89 424.91L242.51 420.41L242.51 388.29L248.15 382.65L247.58 359L240.82 371.4L231.82 379.28L226.18 395.62L217.18 406.33L214.92 417.6L204.22 426.6L199.95 431.15C203.98 432.01 208.08 432.75 212.25 433.39Z" fill="#CCCCCC" fill-opacity="1.000000" fill-rule="nonzero"/>
		<path id="Vector" d="M240.5 435.49C242.4 435.49 244.26 435.44 246.09 435.37L245.89 424.91L242.51 420.41L242.51 388.29L248.15 382.65L247.58 359L240.82 371.4L231.82 379.28L226.18 395.62L217.18 406.33L214.92 417.6L204.22 426.6L199.95 431.15C203.98 432.01 208.08 432.75 212.25 433.39C221.59 434.81 231.04 435.51 240.5 435.49Z" stroke="#39515E" stroke-opacity="1.000000" stroke-width="1.000000" stroke-linejoin="round"/>
		<path id="Vector" d="M375.1 465.2L422.35 465.11L361.17 428.45L346.38 392.76L334.19 391.02L323.75 377.1L318.51 382.32L322 412.78L308.95 434.54L308.95 448.47L302.85 464.13L332.3 465.2L375.1 465.2Z" fill="#FFFFFF" fill-opacity="1.000000" fill-rule="nonzero"/>
		<path id="Vector" d="M422.35 465.11L361.17 428.45L346.38 392.76L334.19 391.02L323.75 377.1L318.51 382.32L322 412.78L308.95 434.54L308.95 448.47L302.85 464.13L332.3 465.2L375.1 465.2L422.35 465.11Z" stroke="#39515E" stroke-opacity="1.000000" stroke-width="1.000000" stroke-linejoin="round"/>
		<path id="Vector" d="M351.4 465.14L349.17 452.69L352.68 445.34L351.72 430.97L354.6 433.85L374.08 465.14L351.4 465.14Z" fill="#CCCCCC" fill-opacity="1.000000" fill-rule="nonzero"/>
		<path id="Vector" d="M349.17 452.69L352.68 445.34L351.72 430.97L354.6 433.85L374.08 465.14L351.4 465.14L349.17 452.69Z" stroke="#39515E" stroke-opacity="1.000000" stroke-width="1.000000" stroke-linejoin="round"/>
		<path id="Vector" d="M351.72 430.97L365.46 437.68L370.88 444.38L386.53 452.37L397.39 459.08L404.06 465.2L374.08 465.14L351.72 430.97Z" fill="#FFFFFF" fill-opacity="1.000000" fill-rule="nonzero"/>
		<path id="Vector" d="M365.46 437.68L370.88 444.38L386.53 452.37L397.39 459.08L404.06 465.2L374.08 465.14L351.72 430.97L365.46 437.68Z" stroke="#39515E" stroke-opacity="1.000000" stroke-width="1.000000" stroke-linejoin="round"/>
		<path id="Vector" d="M308.95 434.54L308.95 448.47L302.39 464.92L327.24 465.24L322 435.41L332.45 425.84L318.51 382.32L322 412.78L308.95 434.54Z" fill="#CCCCCC" fill-opacity="1.000000" fill-rule="nonzero"/>
		<path id="Vector" d="M308.95 448.47L302.39 464.92L327.24 465.24L322 435.41L332.45 425.84L318.51 382.32L322 412.78L308.95 434.54L308.95 448.47Z" stroke="#39515E" stroke-opacity="1.000000" stroke-width="1.000000" stroke-linejoin="round"/>
		<path id="Vector" d="M334.19 391.02L343.38 410.45L347.44 410.86L350.69 420.61" stroke="#39515E" stroke-opacity="1.000000" stroke-width="1.000000"/>
		<path id="Vector" d="M340.36 449.8L341.76 454.34" stroke="#39515E" stroke-opacity="1.000000" stroke-width="1.000000"/>
		<path id="Vector" d="M334.85 414.51L337.68 425.49L342.57 433.61L336.87 438.49L339.34 446.48" stroke="#39515E" stroke-opacity="1.000000" stroke-width="1.000000"/>
		<path id="Vector" d="M218.74 191.25L198.34 213.56L197.64 172.66L217.95 148L218.74 191.25Z" fill="#CCCCCC" fill-opacity="1.000000" fill-rule="nonzero"/>
		<path id="Vector" d="M198.34 213.56L197.64 172.66L217.95 148L218.74 191.25L198.34 213.56Z" stroke="#39515E" stroke-opacity="1.000000" stroke-width="1.000000" stroke-linejoin="round"/>
		<path id="Vector" d="M204.58 280.57L225.43 262.16C226.93 260.86 228.6 259.77 230.39 258.92C232.63 257.85 234.97 257.01 237.39 256.42C240.48 255.66 243.62 255.14 246.79 254.86C250.77 254.49 254.78 254.34 258.79 254.42C268.47 254.54 278.13 255.4 287.68 256.97C295.63 258.28 303.48 260.09 311.2 262.4C318.14 264.47 324.2 266.69 329.43 268.74C334.66 270.79 338.97 272.67 342.47 274.04L315.41 291.6C312.1 290.29 307.99 288.53 303.06 286.6C298.12 284.67 292.37 282.6 285.81 280.6C278.51 278.43 271.08 276.73 263.57 275.51C254.52 274.04 245.37 273.25 236.2 273.15C232.41 273.08 228.61 273.23 224.83 273.59C221.83 273.86 218.86 274.36 215.93 275.07C213.64 275.64 211.4 276.44 209.27 277.46C207.57 278.28 205.99 279.32 204.58 280.57Z" fill="#CCCCCC" fill-opacity="1.000000" fill-rule="nonzero"/>
		<path id="Vector" d="M225.43 262.16C226.93 260.86 228.6 259.77 230.39 258.92C232.63 257.85 234.97 257.01 237.39 256.42C240.48 255.66 243.62 255.14 246.79 254.86C250.77 254.49 254.78 254.34 258.79 254.42C268.47 254.54 278.13 255.4 287.68 256.97C295.63 258.28 303.48 260.09 311.2 262.4C318.14 264.47 324.2 266.69 329.43 268.74C334.66 270.79 338.97 272.67 342.47 274.04L315.41 291.6C312.1 290.29 307.99 288.53 303.06 286.6C298.12 284.67 292.37 282.6 285.81 280.6C278.51 278.43 271.08 276.73 263.57 275.51C254.52 274.04 245.37 273.25 236.2 273.15C232.41 273.08 228.61 273.23 224.83 273.59C221.83 273.86 218.86 274.36 215.93 275.07C213.64 275.64 211.4 276.44 209.27 277.46C207.57 278.28 205.99 279.32 204.58 280.57L225.43 262.16Z" stroke="#39515E" stroke-opacity="1.000000" stroke-width="1.000000" stroke-linejoin="round"/>
		<path id="Vector" d="M271 431.11L247.46 440.11C249.51 439.34 251.48 438.36 253.34 437.19C254.98 436.14 256.45 434.86 257.72 433.38C258.91 431.97 259.83 430.36 260.44 428.63C261.06 426.77 261.35 424.83 261.29 422.88C261.28 419.47 260.23 416.15 258.29 413.35C255.81 410.05 252.64 407.34 249 405.4C243.75 402.53 238.24 400.19 232.54 398.4C225.74 396.11 217.54 393.85 207.89 391.5C194.74 388.43 181.87 384.3 169.41 379.14C158.14 374.52 147.58 368.38 138 360.88C129.2 354 121.95 345.35 116.73 335.48C111.43 324.99 108.69 313.4 108.73 301.65C108.68 296.87 109.01 292.1 109.73 287.39C110.41 282.85 111.48 278.38 112.93 274.03C114.35 269.76 116.15 265.63 118.3 261.68C120.46 257.72 122.97 253.96 125.79 250.45L142 230.12C136.02 237.55 131.42 246 128.42 255.06C126.87 259.66 125.73 264.39 125 269.19C124.25 274.18 123.92 279.23 124 284.29C123.99 296.74 126.92 309.02 132.55 320.14C138.08 330.6 145.76 339.78 155.09 347.08C164.57 354.71 175.84 361.08 188.37 366.41C201.56 371.89 215.18 376.29 229.09 379.55C239.34 382.05 247.97 384.46 255.16 386.89C261.19 388.8 267.02 391.31 272.57 394.38C277.04 396.99 280.26 399.75 282.38 402.79C284.44 405.75 285.56 409.27 285.59 412.88C285.65 414.94 285.35 417.01 284.69 418.97C284.05 420.79 283.08 422.49 281.82 423.97C280.49 425.52 278.93 426.87 277.2 427.97C275.25 429.23 273.17 430.28 271 431.11Z" fill="#CCCCCC" fill-opacity="1.000000" fill-rule="nonzero"/>
		<path id="Vector" d="M247.46 440.11C249.51 439.34 251.48 438.36 253.34 437.19C254.98 436.14 256.45 434.86 257.72 433.38C258.91 431.97 259.83 430.36 260.44 428.63C261.06 426.77 261.35 424.83 261.29 422.88C261.28 419.47 260.23 416.15 258.29 413.35C255.81 410.05 252.64 407.34 249 405.4C243.75 402.53 238.24 400.19 232.54 398.4C225.74 396.11 217.54 393.85 207.89 391.5C194.74 388.43 181.87 384.3 169.41 379.14C158.14 374.52 147.58 368.38 138 360.88C129.2 354 121.95 345.35 116.73 335.48C111.43 324.99 108.69 313.4 108.73 301.65C108.68 296.87 109.01 292.1 109.73 287.39C110.41 282.85 111.48 278.38 112.93 274.03C114.35 269.76 116.15 265.63 118.3 261.68C120.46 257.72 122.97 253.96 125.79 250.45L142 230.12C136.02 237.55 131.42 246 128.42 255.06C126.87 259.66 125.73 264.39 125 269.19C124.25 274.18 123.92 279.23 124 284.29C123.99 296.74 126.92 309.02 132.55 320.14C138.08 330.6 145.76 339.78 155.09 347.08C164.57 354.71 175.84 361.08 188.37 366.41C201.56 371.89 215.18 376.29 229.09 379.55C239.34 382.05 247.97 384.46 255.16 386.89C261.19 388.8 267.02 391.31 272.57 394.38C277.04 396.99 280.26 399.75 282.38 402.79C284.44 405.75 285.56 409.27 285.59 412.88C285.65 414.94 285.35 417.01 284.69 418.97C284.05 420.79 283.08 422.49 281.82 423.97C280.49 425.52 278.93 426.87 277.2 427.97C275.25 429.23 273.17 430.28 271 431.11L247.46 440.11Z" stroke="#39515E" stroke-opacity="1.000000" stroke-width="1.000000" stroke-linejoin="round"/>
		<path id="Vector" d="M155.09 347.08C164.57 354.71 175.84 361.08 188.37 366.41C201.56 371.89 215.18 376.29 229.09 379.55C239.34 382.05 247.97 384.46 255.16 386.89C261.19 388.8 267.02 391.31 272.57 394.38C277.04 396.99 280.26 399.75 282.38 402.79C284.44 405.75 285.56 409.26 285.59 412.88C285.75 416.62 284.61 420.31 282.37 423.32C279.88 426.41 276.64 428.82 272.97 430.32C268.37 432.25 263.54 433.56 258.6 434.24C252.61 435.1 246.56 435.53 240.5 435.51C231.04 435.53 221.59 434.83 212.25 433.41C203.27 432.04 194.38 430.14 185.64 427.7C177.14 425.33 169.05 422.59 161.5 419.7C153.97 416.81 146.97 413.7 140.66 410.7L127.88 465L357.57 465C364.72 457.02 370.32 447.78 374.08 437.75C378.01 427.05 379.84 415.7 379.46 404.32C379.12 392.15 377.27 381.32 373.64 371.61C370.02 361.9 364.4 353.07 357.14 345.69C349.67 338.03 340.14 331.28 328.28 325.26C316.42 319.24 302.14 313.91 285.28 309.1C274.42 305.94 264.93 302.9 256.81 300C249.87 297.59 243.1 294.73 236.55 291.42C231.15 288.59 227.1 285.78 224.4 282.9C221.7 280.01 220.32 277.09 220.26 274.01C220.18 271.49 220.72 268.99 221.84 266.73C223.22 264.1 225.3 261.89 227.84 260.35C231.48 258.15 235.5 256.64 239.7 255.9C246.01 254.71 252.44 254.21 258.87 254.41C268.55 254.53 278.21 255.39 287.76 256.96C295.71 258.27 303.56 260.08 311.28 262.39C318.22 264.46 324.28 266.68 329.51 268.73C334.74 270.78 339.06 272.66 342.56 274.04L357.44 207.04C352.76 205.04 347.73 203.04 342.22 201.14C336.71 199.24 330.71 197.46 324.12 195.85C317.53 194.24 310.32 192.85 302.41 191.64C294.49 190.43 285.82 189.57 276.32 189.01L275.45 149.39L218 148L218.79 191.25C204.81 193.17 191.18 197.05 178.29 202.76C167.18 207.66 157.04 214.52 148.36 223C140.41 230.85 134.16 240.25 130 250.62C125.8 261.33 123.76 272.78 124 284.29C123.99 296.74 126.92 309.02 132.55 320.14C138.08 330.6 145.76 339.78 155.09 347.08Z" fill="#FFFFFF" fill-opacity="1.000000" fill-rule="nonzero"/>
		<path id="Vector" d="M188.37 366.41C201.56 371.89 215.18 376.29 229.09 379.55C239.34 382.05 247.97 384.46 255.16 386.89C261.19 388.8 267.02 391.31 272.57 394.38C277.04 396.99 280.26 399.75 282.38 402.79C284.44 405.75 285.56 409.26 285.59 412.88C285.75 416.62 284.61 420.31 282.37 423.32C279.88 426.41 276.64 428.82 272.97 430.32C268.37 432.25 263.54 433.56 258.6 434.24C252.61 435.1 246.56 435.53 240.5 435.51C231.04 435.53 221.59 434.83 212.25 433.41C203.27 432.04 194.38 430.14 185.64 427.7C177.14 425.33 169.05 422.59 161.5 419.7C153.97 416.81 146.97 413.7 140.66 410.7L127.88 465L357.57 465C364.72 457.02 370.32 447.78 374.08 437.75C378.01 427.05 379.84 415.7 379.46 404.32C379.12 392.15 377.27 381.32 373.64 371.61C370.02 361.9 364.4 353.07 357.14 345.69C349.67 338.03 340.14 331.28 328.28 325.26C316.42 319.24 302.14 313.91 285.28 309.1C274.42 305.94 264.93 302.9 256.81 300C249.87 297.59 243.1 294.73 236.55 291.42C231.15 288.59 227.1 285.78 224.4 282.9C221.7 280.01 220.32 277.09 220.26 274.01C220.18 271.49 220.72 268.99 221.84 266.73C223.22 264.1 225.3 261.89 227.84 260.35C231.48 258.15 235.5 256.64 239.7 255.9C246.01 254.71 252.44 254.21 258.87 254.41C268.55 254.53 278.21 255.39 287.76 256.96C295.71 258.27 303.56 260.08 311.28 262.39C318.22 264.46 324.28 266.68 329.51 268.73C334.74 270.78 339.06 272.66 342.56 274.04L357.44 207.04C352.76 205.04 347.73 203.04 342.22 201.14C336.71 199.24 330.71 197.46 324.12 195.85C317.53 194.24 310.32 192.85 302.41 191.64C294.49 190.43 285.82 189.57 276.32 189.01L275.45 149.39L218 148L218.79 191.25C204.81 193.17 191.18 197.05 178.29 202.76C167.18 207.66 157.04 214.52 148.36 223C140.41 230.85 134.16 240.25 130 250.62C125.8 261.33 123.76 272.78 124 284.29C123.99 296.74 126.92 309.02 132.55 320.14C138.08 330.6 145.76 339.78 155.09 347.08C164.57 354.71 175.84 361.08 188.37 366.41Z" stroke="#39515E" stroke-opacity="1.000000" stroke-width="1.000000" stroke-linejoin="round"/>
		<path id="Vector" d="M127.87 465L140.66 410.67L124.29 420.91L113.87 465L127.87 465Z" fill="#CCCCCC" fill-opacity="1.000000" fill-rule="nonzero"/>
		<path id="Vector" d="M140.66 410.67L124.29 420.91L113.87 465L127.87 465L140.66 410.67Z" stroke="#39515E" stroke-opacity="1.000000" stroke-width="1.000000" stroke-linejoin="round"/>
		<path id="Vector" d="M404.15 451.89C403.14 451.7 402.1 451.9 401.24 452.46L405.72 455.15C405.83 454.83 405.89 454.49 405.87 454.15C405.86 453.82 405.78 453.48 405.63 453.18C405.48 452.87 405.27 452.6 405.02 452.38C404.77 452.16 404.47 451.99 404.15 451.89Z" fill="#263238" fill-opacity="1.000000" fill-rule="nonzero"/>
		<path id="Vector" d="M405.41 416.49C405.41 416.49 406.01 413.97 406.03 413.81C406.23 411.92 405.5 408.14 403.55 407.27C403.22 407.13 402.86 407.07 402.51 407.08C402.16 407.09 401.81 407.17 401.49 407.33C401.17 407.48 400.89 407.7 400.66 407.98C400.43 408.25 400.26 408.56 400.17 408.91C399.7 410.34 400.41 412.05 401.22 413.22C402.18 414.6 405.41 416.48 405.41 416.49Z" fill="#263238" fill-opacity="1.000000" fill-rule="nonzero"/>
		<path id="Vector" d="M435.06 431.87C436.28 430.4 437.75 426.87 436.6 425.05C436.4 424.75 436.14 424.5 435.84 424.32C435.54 424.13 435.2 424.01 434.85 423.96C434.5 423.91 434.14 423.94 433.8 424.04C433.46 424.14 433.14 424.31 432.88 424.55C432.33 425.09 431.92 425.75 431.66 426.47C431.4 427.19 431.3 427.96 431.38 428.73C431.38 430.4 433.07 433.73 433.08 433.73C433.09 433.73 435 432 435.06 431.87Z" fill="#263238" fill-opacity="1.000000" fill-rule="nonzero"/>
		<path id="Vector" d="M393.86 445.77C395.27 446.67 396.81 447.34 398.44 447.77C398.31 448.51 398.18 449.25 398.02 449.96C398.02 450.14 397.93 450.32 397.89 450.51L398.83 451.07C398.89 450.78 398.95 450.48 399.02 450.19C399.25 449.02 399.44 447.83 399.59 446.63C401.19 447.22 402.88 447.55 404.59 447.63C405.36 447.61 406.12 447.42 406.81 447.07C407.5 446.72 408.11 446.23 408.59 445.63C408.78 445.33 408.9 444.99 408.96 444.64C409.01 444.29 408.99 443.93 408.9 443.58C408.8 443.24 408.64 442.92 408.41 442.64C408.18 442.37 407.9 442.15 407.59 441.99C405.66 441.08 402.32 442.99 401.01 444.38C400.93 444.47 400.11 445.57 399.67 446.19C399.76 445.46 399.85 444.74 399.92 444C400.11 441.88 400.24 439.72 400.37 437.57C400.37 436.92 400.46 436.26 400.51 435.57C400.79 435.67 404.07 436.77 405.67 436.57C407.08 436.42 408.85 435.84 409.67 434.57C409.86 434.27 409.98 433.93 410.04 433.58C410.09 433.23 410.07 432.87 409.98 432.53C409.88 432.18 409.72 431.87 409.49 431.59C409.26 431.32 408.98 431.09 408.67 430.94C406.74 430.03 403.4 431.94 402.09 433.33C402 433.44 400.81 435.03 400.53 435.44C400.63 434 400.75 432.56 400.92 431.14C401.13 429.23 401.46 427.33 401.92 425.47C402.05 425.47 405.48 426.68 407.11 426.47C408.53 426.32 410.29 425.74 411.11 424.47C411.3 424.17 411.42 423.83 411.48 423.48C411.53 423.13 411.51 422.77 411.42 422.43C411.32 422.08 411.16 421.77 410.93 421.49C410.7 421.22 410.42 420.99 410.11 420.84C408.18 419.92 404.84 421.84 403.54 423.23C403.43 423.34 402.16 425.05 401.95 425.37C401.95 425.26 402 425.15 402.03 425.04C402.55 423.18 403.24 421.37 404.08 419.64C404.53 418.64 405.02 417.77 405.51 416.91C406.13 417.19 408.96 418.45 410.44 418.46C411.92 418.47 413.68 418.09 414.6 416.89C414.82 416.61 414.99 416.29 415.08 415.95C415.17 415.61 415.19 415.25 415.14 414.9C415.09 414.55 414.96 414.21 414.77 413.91C414.58 413.61 414.32 413.36 414.03 413.17C412.22 412.05 408.69 413.59 407.24 414.83C407.16 414.9 406.43 415.67 405.91 416.24C406.14 415.85 406.37 415.45 406.6 415.08C407.45 413.71 408.31 412.51 409.08 411.44C409.52 410.84 409.93 410.31 410.32 409.81C412.04 409.77 413.75 409.47 415.39 408.92C416.65 408.27 418.09 407.09 418.39 405.61C418.45 405.26 418.45 404.91 418.37 404.57C418.29 404.22 418.15 403.9 417.94 403.62C417.73 403.34 417.47 403.1 417.16 402.93C416.86 402.75 416.52 402.64 416.18 402.61C414.05 402.46 411.63 405.45 410.91 407.21C410.85 407.37 410.15 409.86 410.19 409.86L410.24 409.86C409.85 410.33 409.44 410.86 409.01 411.4C408.21 412.45 407.32 413.64 406.44 415C405.48 416.45 404.6 417.96 403.81 419.52C402.91 421.26 402.18 423.07 401.61 424.95C401.61 424.95 401.61 425 401.61 425.02C401.61 424.39 401.52 422.65 401.5 422.51C401.19 420.63 399.5 417.18 397.38 416.86C397.02 416.81 396.67 416.85 396.33 416.95C395.99 417.05 395.68 417.23 395.41 417.46C395.14 417.69 394.93 417.98 394.77 418.3C394.62 418.62 394.54 418.97 394.54 419.33C394.47 420.84 395.61 422.33 396.7 423.22C397.94 424.22 401.29 425.22 401.56 425.22C401.02 427.13 400.62 429.08 400.35 431.06C400.18 432.21 400.05 433.37 399.94 434.54C399.94 434 399.88 433.54 399.87 433.45C399.56 431.57 397.87 428.11 395.75 427.8C395.39 427.75 395.04 427.78 394.7 427.89C394.36 427.99 394.05 428.16 393.78 428.4C393.51 428.63 393.3 428.92 393.15 429.24C393 429.56 392.92 429.91 392.92 430.27C392.85 431.77 393.99 433.27 395.08 434.15C396.53 435.05 398.12 435.72 399.79 436.15C399.79 436.59 399.7 437.04 399.67 437.49C399.48 439.64 399.31 441.78 399.07 443.88C398.99 444.62 398.88 445.35 398.77 446.07C398.77 445.59 398.77 445.19 398.77 445.13C398.46 443.25 396.77 439.8 394.65 439.48C394.29 439.43 393.94 439.46 393.6 439.57C393.26 439.67 392.95 439.84 392.68 440.08C392.41 440.31 392.2 440.6 392.05 440.92C391.9 441.24 391.82 441.59 391.82 441.95C391.63 443.39 392.77 444.86 393.86 445.77Z" fill="#263238" fill-opacity="1.000000" fill-rule="nonzero"/>
		<path id="Vector" d="M449.71 428.05C448.02 426.74 444.35 427.9 442.78 428.98C442.64 429.07 440.68 430.77 440.72 430.79C440.14 430.96 439.52 431.16 438.84 431.39C437.6 431.83 436.2 432.33 434.72 432.98C433.11 433.65 431.54 434.43 430.03 435.3C428.32 436.25 426.7 437.36 425.2 438.61L425.15 438.66C425.48 438.13 426.38 436.66 426.43 436.51C427.21 434.77 427.7 430.95 426.11 429.51C425.84 429.28 425.52 429.11 425.18 429.01C424.84 428.91 424.48 428.88 424.13 428.92C423.78 428.97 423.45 429.09 423.14 429.28C422.84 429.47 422.58 429.71 422.39 430.01C421.5 431.22 421.64 433.07 422.04 434.44C422.51 435.98 424.79 438.6 424.98 438.81C423.47 440.1 422.05 441.51 420.75 443.01C419.97 443.88 419.22 444.77 418.48 445.68C418.76 445.22 419 444.8 419.03 444.74C419.81 443 420.3 439.18 418.71 437.74C418.44 437.51 418.12 437.34 417.78 437.24C417.44 437.14 417.08 437.11 416.73 437.15C416.38 437.2 416.05 437.32 415.74 437.51C415.44 437.7 415.18 437.94 414.99 438.24C414.1 439.45 414.24 441.31 414.65 442.67C415.36 444.22 416.32 445.65 417.48 446.92L416.64 447.92C415.3 449.62 413.97 451.31 412.64 452.92C412.17 453.49 411.64 454.04 411.19 454.58L411.66 453.76C412.44 452.03 412.93 448.21 411.34 446.76C411.07 446.53 410.75 446.36 410.41 446.26C410.07 446.16 409.71 446.13 409.36 446.17C409.01 446.22 408.68 446.34 408.37 446.53C408.07 446.72 407.81 446.96 407.62 447.26C406.73 448.47 406.87 450.32 407.28 451.69C407.94 453.26 408.86 454.72 410 456L409 457.08L409.88 457.61C410.49 456.98 411.08 456.32 411.67 455.61C412.68 456.97 413.9 458.17 415.29 459.17C415.94 459.57 416.68 459.82 417.44 459.9C418.2 459.99 418.98 459.91 419.71 459.67C420.03 459.53 420.32 459.32 420.56 459.06C420.8 458.8 420.98 458.49 421.1 458.15C421.21 457.82 421.25 457.46 421.21 457.11C421.18 456.75 421.07 456.41 420.9 456.11C419.79 454.28 415.9 454.04 414.1 454.48C413.98 454.48 412.69 454.97 411.98 455.24C412.45 454.68 412.93 454.13 413.39 453.55C414.72 451.89 416.02 450.16 417.32 448.44L418.52 446.88C418.7 447.11 420.84 449.88 422.26 450.58C422.91 450.97 423.64 451.23 424.41 451.31C425.17 451.4 425.94 451.32 426.67 451.08C426.99 450.94 427.28 450.73 427.52 450.47C427.76 450.21 427.94 449.9 428.06 449.56C428.17 449.23 428.21 448.87 428.17 448.52C428.14 448.16 428.03 447.82 427.86 447.52C426.76 445.69 422.92 445.44 421.06 445.88C420.92 445.88 419.06 446.59 418.6 446.78C419.48 445.63 420.37 444.5 421.3 443.41C422.53 441.93 423.87 440.54 425.3 439.25C425.38 439.36 427.59 442.25 429.05 442.98C430.31 443.64 432.1 444.13 433.46 443.48C433.78 443.34 434.07 443.13 434.31 442.87C434.56 442.61 434.74 442.3 434.85 441.96C434.96 441.63 435.01 441.27 434.97 440.92C434.94 440.57 434.83 440.22 434.66 439.92C433.55 438.09 429.71 437.85 427.86 438.28C427.71 438.28 425.71 439.04 425.35 439.2L425.6 438.96C427.06 437.7 428.63 436.57 430.29 435.59C431.2 435.03 432.1 434.59 432.99 434.11C433.35 434.68 434.99 437.29 436.25 438.11C437.51 438.93 439.16 439.58 440.58 439.11C440.91 439 441.23 438.83 441.49 438.59C441.76 438.36 441.97 438.07 442.12 437.75C442.27 437.43 442.35 437.08 442.36 436.73C442.36 436.37 442.29 436.02 442.16 435.7C441.26 433.76 437.47 433.1 435.58 433.33C435.47 433.33 434.44 433.59 433.69 433.78C434.1 433.58 434.51 433.37 434.9 433.19C436.37 432.51 437.75 431.98 438.98 431.52L440.92 430.85C442.37 431.76 443.96 432.45 445.63 432.9C446.38 433.03 447.16 433 447.9 432.81C448.64 432.61 449.33 432.26 449.93 431.77C450.17 431.52 450.36 431.22 450.49 430.89C450.61 430.56 450.66 430.21 450.64 429.86C450.62 429.51 450.53 429.16 450.37 428.85C450.2 428.54 449.98 428.27 449.71 428.05Z" fill="#263238" fill-opacity="1.000000" fill-rule="nonzero"/>
		<path id="Vector" d="M398.72 465.16L399.87 465.87L400.58 465.35L400.85 465.15L398.72 465.16Z" fill="#263238" fill-opacity="1.000000" fill-rule="nonzero"/>
		<path id="Vector" d="M67.4 399C67.11 399.19 66.85 399.44 66.66 399.74C66.47 400.04 66.34 400.37 66.29 400.72C66.23 401.07 66.25 401.43 66.34 401.77C66.43 402.11 66.59 402.43 66.81 402.71C67.53 403.53 68.53 404.06 69.62 404.19L71.76 399.28C70.25 398.6 68.51 398.28 67.4 399Z" fill="#263238" fill-opacity="1.000000" fill-rule="nonzero"/>
		<path id="Vector" d="M77.35 392.55C76.68 393.05 76.2 393.78 76 394.6L79.76 392.49C79.39 392.28 78.98 392.18 78.55 392.19C78.13 392.2 77.72 392.32 77.35 392.55Z" fill="#263238" fill-opacity="1.000000" fill-rule="nonzero"/>
		<path id="Vector" d="M78 356.81C79.27 357.89 82.88 358.87 82.88 358.87C82.88 358.87 82.81 356.29 82.79 356.13C82.48 354.25 80.79 350.79 78.69 350.46C78.34 350.41 77.98 350.44 77.64 350.54C77.3 350.64 76.99 350.81 76.72 351.05C76.45 351.28 76.24 351.57 76.09 351.89C75.94 352.21 75.86 352.56 75.85 352.92C75.81 354.42 77 355.89 78 356.81Z" fill="#263238" fill-opacity="1.000000" fill-rule="nonzero"/>
		<path id="Vector" d="M51.66 368.15C51.66 368.15 50.18 366.04 50.06 365.92C48.79 364.52 45.47 362.56 43.52 363.45C43.21 363.6 42.93 363.83 42.7 364.1C42.48 364.37 42.31 364.69 42.22 365.03C42.12 365.37 42.1 365.73 42.15 366.08C42.21 366.43 42.33 366.77 42.52 367.07C43.29 368.37 45.04 368.97 46.46 369.14C48.1 369.33 51.66 368.16 51.66 368.15Z" fill="#263238" fill-opacity="1.000000" fill-rule="nonzero"/>
		<path id="Vector" d="M49.79 360.17C49.89 360.77 50 361.41 50.12 362.11C50.39 363.4 50.68 364.85 51.12 366.41C51.57 368.1 52.12 369.77 52.77 371.41C53.48 373.23 54.35 374.98 55.37 376.65L55.37 376.71C54.91 376.31 53.54 375.21 53.37 375.14C51.77 374.14 48.04 373.14 46.37 374.48C46.11 374.71 45.9 375 45.75 375.33C45.61 375.65 45.53 376 45.53 376.36C45.53 376.71 45.61 377.06 45.75 377.39C45.9 377.71 46.11 378 46.37 378.24C47.46 379.29 49.31 379.41 50.72 379.24C52.31 379 55.22 377.09 55.45 376.94C56.54 378.6 57.73 380.2 59.02 381.72C59.77 382.6 60.56 383.47 61.35 384.33L60.5 383.65C58.89 382.65 55.16 381.65 53.5 383C53.23 383.23 53.02 383.52 52.88 383.85C52.73 384.17 52.66 384.52 52.66 384.88C52.66 385.23 52.73 385.58 52.88 385.9C53.02 386.23 53.23 386.52 53.5 386.76C54.11 387.22 54.81 387.55 55.56 387.71C56.31 387.87 57.09 387.87 57.83 387.71C59.47 387.21 61.03 386.46 62.45 385.5C62.75 385.82 63.06 386.15 63.37 386.5C64.85 388.06 66.37 389.61 67.76 391.18C68.26 391.73 68.76 392.29 69.22 392.85L68.47 392.27C66.85 391.27 63.14 390.27 61.47 391.61C61.2 391.84 60.99 392.13 60.85 392.46C60.7 392.78 60.63 393.13 60.63 393.49C60.63 393.84 60.7 394.19 60.85 394.51C60.99 394.84 61.2 395.13 61.47 395.37C62.54 396.42 64.41 396.54 65.81 396.37C67.4 395.89 68.92 395.17 70.29 394.23C70.76 394.81 71.24 395.4 71.66 396C71.95 396.41 72.25 396.78 72.5 397.21L72.5 397.27L72.89 396.41L73.1 396.28L72.46 395.4C71.74 394.45 70.97 393.52 70.16 392.61C71.65 391.78 73 390.74 74.16 389.52C74.65 388.92 75 388.23 75.2 387.48C75.39 386.74 75.41 385.96 75.27 385.21C75.18 384.86 75.02 384.55 74.79 384.27C74.56 384 74.28 383.78 73.97 383.62C73.65 383.46 73.3 383.37 72.95 383.36C72.6 383.34 72.24 383.4 71.91 383.54C69.91 384.38 69.18 388.15 69.35 390.04C69.35 390.16 69.64 391.51 69.81 392.25C69.33 391.7 68.81 391.15 68.35 390.61C66.87 389.06 65.35 387.54 63.83 386.01L62.45 384.61C62.7 384.46 65.7 382.73 66.62 381.42C67.17 380.83 67.58 380.13 67.82 379.36C68.06 378.6 68.12 377.79 68 377C67.9 376.65 67.74 376.34 67.51 376.06C67.29 375.79 67.01 375.57 66.69 375.41C66.37 375.25 66.03 375.16 65.67 375.14C65.32 375.13 64.96 375.19 64.64 375.32C62.64 376.16 61.89 379.93 62.08 381.83C62.08 381.97 62.49 383.91 62.62 384.4C61.62 383.4 60.62 382.32 59.62 381.26C58.33 379.82 57.14 378.31 56.06 376.72C56.18 376.65 59.31 374.85 60.27 373.52C60.75 372.92 61.1 372.23 61.29 371.49C61.49 370.75 61.51 369.97 61.37 369.22C61.29 368.87 61.12 368.54 60.9 368.26C60.67 367.98 60.39 367.76 60.07 367.59C59.75 367.43 59.4 367.34 59.04 367.32C58.69 367.3 58.33 367.36 58 367.5C56 368.34 55.25 372.11 55.43 374.01C55.43 374.16 55.89 376.24 55.99 376.61L55.79 376.34C54.74 374.71 53.84 373 53.1 371.22C52.68 370.22 52.33 369.28 52 368.34C53.61 367.68 55.11 366.78 56.43 365.67C56.98 365.13 57.4 364.48 57.67 363.76C57.94 363.05 58.05 362.28 58 361.52C57.93 361.17 57.8 360.84 57.6 360.55C57.41 360.25 57.15 360.01 56.86 359.82C56.56 359.63 56.23 359.51 55.88 359.45C55.53 359.4 55.17 359.42 54.83 359.52C52.83 360.14 51.62 363.8 51.58 365.71C51.58 365.81 51.68 366.87 51.75 367.64C51.62 367.21 51.48 366.77 51.35 366.36C50.87 364.82 50.54 363.36 50.27 362.09C50.1 361.36 49.98 360.7 49.87 360.09C50.98 358.77 51.88 357.29 52.54 355.7C52.79 354.97 52.87 354.2 52.78 353.43C52.69 352.67 52.44 351.94 52.04 351.29C51.82 351 51.56 350.76 51.25 350.59C50.94 350.41 50.6 350.31 50.24 350.27C49.89 350.24 49.53 350.28 49.2 350.4C48.86 350.51 48.56 350.69 48.29 350.94C46.77 352.43 47.39 356.22 48.29 357.94C48.35 358 49.77 360.2 49.79 360.17Z" fill="#263238" fill-opacity="1.000000" fill-rule="nonzero"/>
		<path id="Vector" d="M76.18 367.58C77.64 368.25 81.12 368.27 81.41 368.28C81.38 370.28 81.5 372.29 81.75 374.28C81.89 375.43 82.07 376.59 82.26 377.74C82.09 377.23 81.93 376.74 81.91 376.74C81.12 375 78.59 372.11 76.47 372.35C76.11 372.4 75.78 372.52 75.48 372.71C75.18 372.89 74.92 373.14 74.72 373.44C74.52 373.73 74.39 374.06 74.33 374.41C74.27 374.76 74.28 375.12 74.37 375.47C74.68 376.94 76.16 378.06 77.47 378.66C79.11 379.15 80.81 379.38 82.53 379.36C82.61 379.8 82.68 380.24 82.76 380.68C83.14 382.81 83.53 384.92 83.85 387.01C83.96 387.75 84.04 388.48 84.12 389.21L83.83 388.31C83.04 386.57 80.5 383.68 78.37 383.92C78.03 383.97 77.7 384.09 77.4 384.27C77.1 384.46 76.85 384.7 76.65 384.99C76.45 385.28 76.32 385.61 76.26 385.96C76.19 386.3 76.2 386.65 76.29 387C76.61 388.47 78.09 389.59 79.37 390.19C80.48 390.57 81.63 390.78 82.8 390.82L85.12 389.51L86.97 388.51L92 383C91.88 382.95 91.76 382.92 91.64 382.9C89.55 382.52 86.82 385.23 85.91 386.9C85.91 387.01 85.36 388.29 85.09 388.99C84.99 388.27 84.89 387.55 84.76 386.82C84.39 384.72 83.96 382.61 83.54 380.49C83.39 379.85 83.28 379.2 83.16 378.55C83.45 378.55 86.91 378.78 88.39 378.21C89.73 377.7 91.29 376.68 91.7 375.21C91.8 374.87 91.83 374.51 91.79 374.16C91.74 373.81 91.63 373.48 91.45 373.17C91.27 372.87 91.02 372.61 90.74 372.41C90.45 372.2 90.12 372.06 89.78 372C87.68 371.62 84.96 374.33 84.06 376C83.99 376.13 83.26 378 83.06 378.45C82.79 377.02 82.53 375.6 82.33 374.19C82.04 372.28 81.89 370.36 81.86 368.44C82 368.44 85.61 368.68 87.14 368.1C87.87 367.87 88.55 367.48 89.12 366.96C89.69 366.44 90.14 365.81 90.43 365.1C90.55 364.76 90.58 364.4 90.55 364.05C90.51 363.7 90.4 363.36 90.22 363.05C90.04 362.74 89.8 362.48 89.52 362.27C89.23 362.06 88.9 361.92 88.56 361.85C86.46 361.46 83.73 364.18 82.83 365.85C82.76 365.98 81.98 367.96 81.83 368.33C81.83 368.22 81.83 368.1 81.83 367.99C81.85 366.06 82.05 364.13 82.41 362.24C82.6 361.19 82.84 360.24 83.09 359.24C83.76 359.35 86.82 359.83 88.25 359.45C89.68 359.07 91.25 358.25 91.86 356.86C92 356.53 92.08 356.18 92.08 355.83C92.08 355.47 92.01 355.12 91.86 354.8C91.72 354.48 91.51 354.18 91.25 353.95C90.99 353.71 90.68 353.53 90.35 353.42C88.35 352.81 85.35 355.21 84.22 356.78C84.16 356.86 83.66 357.78 83.3 358.48C83.41 358.05 83.54 357.6 83.66 357.19C84.12 355.65 84.66 354.26 85.11 353.03C85.39 352.34 85.64 351.72 85.89 351.14C86.61 350.9 89.47 349.94 90.55 348.96C91.62 347.98 92.68 346.49 92.55 344.96C92.53 344.6 92.43 344.26 92.27 343.94C92.11 343.62 91.88 343.35 91.61 343.12C91.33 342.9 91.01 342.74 90.67 342.65C90.32 342.56 89.97 342.54 89.62 342.6C87.52 343 85.96 346.52 85.72 348.41C85.72 348.58 85.72 351.17 85.72 351.16C85.47 351.72 85.21 352.31 84.93 352.97C84.43 354.19 83.93 355.57 83.39 357.11C82.83 358.76 82.38 360.45 82.02 362.16C81.64 364.08 81.43 366.03 81.39 368L81.39 368.07C81.23 367.47 80.68 365.8 80.64 365.68C79.85 363.94 77.31 361.05 75.18 361.29C74.83 361.33 74.5 361.46 74.2 361.65C73.9 361.83 73.64 362.08 73.44 362.38C73.25 362.67 73.11 363.01 73.05 363.35C72.99 363.7 73.01 364.06 73.1 364.41C73.41 365.86 74.89 367 76.18 367.58Z" fill="#263238" fill-opacity="1.000000" fill-rule="nonzero"/>
		<path id="Vector" d="M221.22 389.76C220.86 389.81 220.53 389.93 220.23 390.12C219.93 390.3 219.67 390.55 219.47 390.85C219.28 391.14 219.14 391.48 219.08 391.83C219.02 392.17 219.04 392.53 219.13 392.88C219.38 393.6 219.78 394.26 220.32 394.81C220.85 395.37 221.5 395.79 222.22 396.07C223.2 396.42 224.23 396.62 225.28 396.67L226.17 395.61L226.67 394.16C225.88 392.41 223.34 389.52 221.22 389.76Z" fill="#263238" fill-opacity="1.000000" fill-rule="nonzero"/>
		<path id="Vector" d="M210.25 404.87C209.95 405.06 209.7 405.31 209.5 405.61C209.31 405.91 209.18 406.24 209.13 406.59C209.07 406.94 209.09 407.3 209.18 407.64C209.27 407.98 209.43 408.3 209.66 408.58C210.56 409.79 212.38 410.18 213.8 410.18C214.73 410.11 215.64 409.9 216.51 409.56L217.09 406.64L217.03 406.58C215.59 405.33 212.07 403.77 210.25 404.87Z" fill="#263238" fill-opacity="1.000000" fill-rule="nonzero"/>
		<path id="Vector" d="M220.2 398.47C218.57 399.47 218.25 402.69 218.54 404.67L223.33 398.98C222.95 398.54 222.43 398.24 221.85 398.15C221.28 398.06 220.69 398.17 220.2 398.47Z" fill="#263238" fill-opacity="1.000000" fill-rule="nonzero"/>
		<path id="Vector" d="M205.43 391.32C205.74 391.64 206.04 391.97 206.35 392.32C207.84 393.88 209.35 395.43 210.75 397C211.25 397.55 211.75 398.11 212.2 398.67L211.45 398.09C209.84 397.09 206.12 396.09 204.45 397.43C204.18 397.66 203.97 397.95 203.83 398.28C203.68 398.6 203.61 398.95 203.61 399.31C203.61 399.66 203.68 400.01 203.83 400.33C203.97 400.66 204.18 400.95 204.45 401.19C205.53 402.24 207.39 402.36 208.79 402.19C210.38 401.71 211.9 400.99 213.28 400.05C213.75 400.64 214.22 401.22 214.65 401.82C214.93 402.23 215.23 402.6 215.49 403.03L216.28 404.27C216.64 404.89 217.01 405.51 217.36 406.12L218.13 405.21C217.83 404.71 217.52 404.21 217.19 403.68L216.37 402.45C216.11 402.04 215.78 401.63 215.48 401.22C214.76 400.22 213.99 399.34 213.19 398.43C214.67 397.6 216.02 396.56 217.19 395.34C217.67 394.74 218.02 394.05 218.22 393.3C218.41 392.56 218.43 391.78 218.3 391.03C218.21 390.69 218.05 390.37 217.83 390.09C217.61 389.82 217.34 389.59 217.03 389.43C216.72 389.27 216.38 389.17 216.03 389.15C215.68 389.13 215.33 389.18 215 389.3C213 390.14 212.26 393.91 212.44 395.8C212.44 395.92 212.73 397.27 212.9 398.01C212.41 397.46 211.9 396.91 211.43 396.38C209.96 394.83 208.43 393.3 206.91 391.77L205.53 390.37C205.78 390.22 208.78 388.49 209.71 387.18C210.19 386.58 210.54 385.89 210.74 385.15C210.93 384.41 210.96 383.63 210.82 382.88C210.72 382.53 210.56 382.22 210.33 381.94C210.11 381.67 209.83 381.45 209.51 381.29C209.19 381.13 208.85 381.04 208.49 381.02C208.14 381.01 207.79 381.07 207.46 381.2C205.46 382.04 204.72 385.81 204.9 387.71C204.9 387.85 205.31 389.79 205.44 390.28C204.44 389.28 203.44 388.2 202.44 387.14C201.15 385.7 199.96 384.19 198.88 382.6C199 382.53 202.14 380.73 203.09 379.4C203.57 378.8 203.92 378.11 204.12 377.37C204.31 376.63 204.33 375.85 204.2 375.1C204.1 374.75 203.94 374.44 203.71 374.16C203.49 373.89 203.21 373.67 202.89 373.51C202.57 373.35 202.23 373.26 201.87 373.24C201.52 373.23 201.17 373.29 200.84 373.42C198.84 374.26 198.1 378.03 198.28 379.93C198.28 380.08 198.73 382.16 198.83 382.53L198.63 382.26C197.58 380.63 196.68 378.92 195.94 377.14C195.52 376.14 195.17 375.2 194.85 374.26C196.45 373.6 197.94 372.7 199.28 371.6C200.23 370.53 201.14 368.92 200.85 367.44C200.78 367.09 200.65 366.76 200.46 366.47C200.26 366.17 200 365.93 199.71 365.74C199.41 365.55 199.08 365.43 198.73 365.37C198.38 365.32 198.03 365.34 197.69 365.44C195.69 366.06 194.47 369.73 194.43 371.63C194.43 371.73 194.53 372.79 194.61 373.56C194.48 373.13 194.33 372.69 194.2 372.28C193.73 370.74 193.4 369.28 193.12 368.01C192.96 367.28 192.83 366.62 192.72 366.01C193.83 364.69 194.73 363.21 195.4 361.62C195.64 360.89 195.72 360.12 195.63 359.35C195.54 358.59 195.29 357.86 194.89 357.21C194.68 356.92 194.41 356.68 194.1 356.51C193.79 356.33 193.45 356.23 193.09 356.19C192.74 356.16 192.39 356.2 192.05 356.32C191.71 356.43 191.41 356.61 191.15 356.86C189.62 358.35 190.25 362.15 191.15 363.86C191.23 364.01 192.64 366.18 192.66 366.15C192.76 366.75 192.87 367.39 193 368.09C193.26 369.38 193.56 370.83 194 372.39C194.44 374.08 194.99 375.75 195.64 377.39C196.35 379.21 197.22 380.96 198.25 382.64C198.25 382.65 198.25 382.67 198.25 382.69C197.78 382.29 196.41 381.19 196.3 381.12C194.69 380.12 190.97 379.12 189.3 380.47C189.03 380.7 188.82 380.99 188.68 381.31C188.53 381.64 188.46 381.99 188.46 382.34C188.46 382.69 188.53 383.04 188.68 383.37C188.82 383.69 189.03 383.98 189.3 384.22C190.38 385.28 192.23 385.39 193.64 385.22C195.23 384.98 198.14 383.07 198.37 382.92C199.46 384.58 200.65 386.18 201.95 387.7C202.7 388.58 203.48 389.45 204.28 390.31L203.42 389.63C201.81 388.63 198.09 387.63 196.42 388.98C196.15 389.21 195.94 389.5 195.79 389.83C195.65 390.15 195.57 390.5 195.57 390.86C195.57 391.21 195.65 391.56 195.79 391.89C195.94 392.21 196.15 392.5 196.42 392.74C197.49 393.79 199.35 393.91 200.75 393.69C202.42 393.14 204 392.34 205.43 391.32Z" fill="#263238" fill-opacity="1.000000" fill-rule="nonzero"/>
		<path id="Vector" d="M220.88 362.73C222.16 363.81 225.77 364.79 225.77 364.79C225.77 364.79 225.7 362.21 225.67 362.05C225.37 360.17 223.67 356.71 221.58 356.38C221.22 356.33 220.87 356.36 220.53 356.46C220.19 356.57 219.87 356.74 219.61 356.97C219.34 357.2 219.12 357.49 218.97 357.81C218.82 358.13 218.74 358.48 218.74 358.84C218.66 360.34 219.79 361.81 220.88 362.73Z" fill="#263238" fill-opacity="1.000000" fill-rule="nonzero"/>
		<path id="Vector" d="M194.51 374.08C194.51 374.08 193.02 371.96 192.91 371.84C191.63 370.44 188.31 368.48 186.37 369.37C186.05 369.52 185.77 369.75 185.54 370.02C185.32 370.29 185.15 370.61 185.06 370.95C184.96 371.29 184.94 371.65 184.99 372C185.05 372.35 185.17 372.69 185.37 372.99C186.13 374.29 187.88 374.89 189.3 375.06C191 375.25 194.51 374.08 194.51 374.08Z" fill="#263238" fill-opacity="1.000000" fill-rule="nonzero"/>
		<path id="Vector" d="M219 373.5C220.46 374.17 223.94 374.2 224.22 374.2C224.2 376.18 224.31 378.17 224.56 380.15C224.7 381.3 224.88 382.46 225.07 383.62C224.9 383.1 224.75 382.62 224.72 382.62C223.94 380.88 221.4 377.99 219.28 378.23C218.92 378.28 218.59 378.4 218.29 378.59C217.99 378.77 217.73 379.02 217.53 379.32C217.33 379.61 217.2 379.94 217.14 380.29C217.08 380.64 217.09 381 217.18 381.35C217.5 382.82 218.98 383.94 220.28 384.54C221.92 385.03 223.62 385.26 225.34 385.24C225.42 385.68 225.49 386.12 225.57 386.56C225.95 388.69 226.34 390.81 226.66 392.89C226.66 393.2 226.73 393.51 226.77 393.82L227.4 392.02C227.06 390.16 226.68 388.29 226.31 386.42C226.18 385.78 226.05 385.13 225.93 384.49C227.29 384.57 228.66 384.54 230.02 384.4L231.78 379.31L233.17 378.1C232.98 378.01 232.79 377.94 232.59 377.91C230.49 377.53 227.77 380.24 226.87 381.91C226.8 382.04 226.07 383.91 225.87 384.36C225.6 382.93 225.34 381.51 225.14 380.1C224.85 378.19 224.7 376.27 224.67 374.35C224.81 374.35 228.42 374.59 229.95 374.01C230.68 373.78 231.36 373.39 231.93 372.87C232.5 372.35 232.95 371.72 233.25 371.01C233.36 370.67 233.39 370.31 233.36 369.96C233.32 369.61 233.21 369.27 233.03 368.96C232.85 368.65 232.61 368.39 232.33 368.18C232.04 367.97 231.71 367.83 231.37 367.76C229.27 367.37 226.54 370.09 225.64 371.76C225.57 371.89 224.79 373.87 224.64 374.24C224.64 374.13 224.64 374.02 224.64 373.9C224.67 371.97 224.86 370.04 225.22 368.15C225.41 367.15 225.65 366.15 225.9 365.15C226.57 365.26 229.63 365.74 231.06 365.36C232.49 364.98 234.06 364.16 234.67 362.77C234.81 362.44 234.89 362.09 234.89 361.74C234.89 361.38 234.82 361.03 234.68 360.71C234.53 360.39 234.32 360.09 234.06 359.86C233.8 359.62 233.49 359.44 233.16 359.33C231.16 358.72 228.16 361.12 227.03 362.69C226.97 362.77 226.47 363.69 226.11 364.39C226.23 363.96 226.35 363.51 226.47 363.1C226.94 361.56 227.47 360.17 227.92 358.94C228.2 358.25 228.46 357.63 228.7 357.05C229.42 356.81 232.28 355.85 233.36 354.87C234.44 353.89 235.5 352.4 235.36 350.87C235.34 350.51 235.24 350.16 235.08 349.85C234.92 349.53 234.69 349.26 234.42 349.03C234.14 348.81 233.82 348.65 233.48 348.56C233.13 348.47 232.78 348.45 232.43 348.51C230.33 348.91 228.77 352.43 228.54 354.32C228.54 354.49 228.49 357.08 228.54 357.07C228.29 357.63 228.03 358.22 227.76 358.88C227.26 360.1 226.71 361.48 226.21 363.02C225.65 364.67 225.2 366.36 224.84 368.07C224.43 369.98 224.19 371.93 224.13 373.89L224.13 374C223.96 373.4 223.42 371.73 223.37 371.61C222.58 369.87 220.04 366.98 217.92 367.22C217.56 367.26 217.23 367.39 216.93 367.58C216.63 367.76 216.37 368.01 216.17 368.31C215.98 368.6 215.84 368.94 215.78 369.28C215.72 369.63 215.74 369.99 215.83 370.34C216.26 371.78 217.74 372.9 219 373.5Z" fill="#263238" fill-opacity="1.000000" fill-rule="nonzero"/>
		<path id="Vector" d="M370.64 286.16L366.65 281.21L370.24 278.38L372.65 281.39L371.83 283.29L372.51 284.82L371.1 285.82M371 285.84L371.03 285.84C371.2 286.06 371.17 286.37 370.95 286.54C370.73 286.72 370.42 286.69 370.25 286.47L370.25 286.44L371 285.84ZM371.39 286.2L371.39 286.23C371.16 286.39 370.85 286.34 370.69 286.12C370.53 285.89 370.58 285.58 370.8 285.42L370.83 285.42L371.39 286.2Z" fill="#FFFFFF" fill-opacity="1.000000" fill-rule="nonzero"/>
		<path id="Vector" d="M370.64 286.16L366.65 281.21L370.24 278.38L372.65 281.39L371.83 283.29L372.51 284.82L371.1 285.82" stroke="#263238" stroke-opacity="1.000000" stroke-width="1.000000" stroke-linejoin="round" stroke-linecap="round"/>
		<path id="Vector" d="M403 294.75C403 294.75 400.27 292.31 399.25 292.47C398.23 292.63 384.85 294.87 384.85 294.87L372.54 284.82L370.66 286.16L382.44 300.94L395.24 300.14L392.49 314.14L380.84 323L399.84 334.35L403.67 322.26L418.8 307.37L412.92 300L403 294.75Z" fill="#000000" fill-opacity="1.000000" fill-rule="nonzero"/>
		<path id="Vector" d="M399.25 292.47C398.23 292.63 384.85 294.87 384.85 294.87L372.54 284.82L370.66 286.16L382.44 300.94L395.24 300.14L392.49 314.14L380.84 323L399.84 334.35L403.67 322.26L418.8 307.37L412.92 300L403 294.75C403 294.75 400.27 292.31 399.25 292.47Z" stroke="#263238" stroke-opacity="1.000000" stroke-width="1.000000" stroke-linejoin="round"/>
		<path id="Vector" d="M406.9 291.51L404.75 296.04L403.96 295.32L402.45 306.31L412.93 299.96L411.88 298.29L412.12 294.87L406.9 291.51Z" fill="#FFFFFF" fill-opacity="1.000000" fill-rule="nonzero"/>
		<path id="Vector" d="M404.75 296.04L403.96 295.32L402.45 306.31L412.93 299.96L411.88 298.29L412.12 294.87L406.9 291.51L404.75 296.04Z" stroke="#263238" stroke-opacity="1.000000" stroke-width="1.000000" stroke-linejoin="round"/>
		<path id="Vector" d="M402.45 306.31L408.58 302.59L403.46 298.99L402.45 306.31Z" fill="#FFFFFF" fill-opacity="1.000000" fill-rule="nonzero"/>
		<path id="Vector" d="M408.58 302.59L403.46 298.99L402.45 306.31L408.58 302.59Z" stroke="#263238" stroke-opacity="1.000000" stroke-width="1.000000" stroke-linejoin="round"/>
		<path id="Vector" d="M419 280.75C419 280.75 423.63 275.32 428.34 278.75C433.05 282.17 431.75 285.51 435.11 283.68C438.47 281.85 444.78 277.2 448.58 283.12C452.38 289.04 449.45 295.24 447.06 296.66C444.67 298.07 445.3 295.37 445.35 294.06C445.4 292.75 441.48 291.06 440.61 293.76C439.74 296.46 435.17 300.62 429.37 300.23C423.57 299.84 422.45 292.71 422.58 288.51C422.57 287.26 422.23 286.02 421.6 284.94C420.97 283.85 420.07 282.94 418.99 282.31L419 280.75Z" fill="#263238" fill-opacity="1.000000" fill-rule="nonzero"/>
		<path id="Vector" d="M428.34 278.75C433.05 282.17 431.75 285.51 435.11 283.68C438.47 281.85 444.78 277.2 448.58 283.12C452.38 289.04 449.45 295.24 447.06 296.66C444.67 298.07 445.3 295.37 445.35 294.06C445.4 292.75 441.48 291.06 440.61 293.76C439.74 296.46 435.17 300.62 429.37 300.23C423.57 299.84 422.45 292.71 422.58 288.51C422.57 287.26 422.23 286.02 421.6 284.94C420.97 283.85 420.07 282.94 418.99 282.31L419 280.75C419 280.75 423.63 275.32 428.34 278.75Z" stroke="#263238" stroke-opacity="1.000000" stroke-width="1.000000" stroke-linejoin="round"/>
		<path id="Vector" d="M407.9 279.63C407.9 279.63 405 286.09 405.6 289.9C406.2 293.71 405.88 296.64 407.82 297.38C409.76 298.12 416.19 294.23 417.61 291.66C419.03 289.09 421.06 285.38 420.5 281.82C419.94 278.26 413.12 273.07 407.9 279.63Z" fill="#FFFFFF" fill-opacity="1.000000" fill-rule="nonzero"/>
		<path id="Vector" d="M405.6 289.9C406.2 293.71 405.88 296.64 407.82 297.38C409.76 298.12 416.19 294.23 417.61 291.66C419.03 289.09 421.06 285.38 420.5 281.82C419.94 278.26 413.12 273.07 407.9 279.63C407.9 279.63 405 286.09 405.6 289.9Z" stroke="#263238" stroke-opacity="1.000000" stroke-width="1.000000" stroke-linejoin="round"/>
		<path id="Vector" d="M409 286.41C408.85 286.91 408.53 287.25 408.28 287.17C408.03 287.09 407.95 286.63 408.1 286.17C408.25 285.71 408.57 285.32 408.82 285.41C409.07 285.49 409.11 285.91 409 286.41Z" fill="#263238" fill-opacity="1.000000" fill-rule="nonzero"/>
		<path id="Vector" d="M413.62 288.32C413.47 288.82 413.14 289.18 412.89 289.1C412.64 289.01 412.56 288.56 412.71 288.1C412.86 287.64 413.19 287.26 413.44 287.32C413.69 287.4 413.77 287.82 413.62 288.32Z" fill="#263238" fill-opacity="1.000000" fill-rule="nonzero"/>
		<path id="Vector" d="M410.17 287.24C410.17 287.24 410.47 287.46 410.05 288.24C409.63 289.01 408.62 288.74 408.73 289.41C408.84 290.07 410.11 290.41 410.11 290.41" stroke="#263238" stroke-opacity="1.000000" stroke-width="1.000000" stroke-linejoin="round" stroke-linecap="round"/>
		<path id="Vector" d="M407.84 291.57C407.84 291.57 409.45 293.09 410.89 292.72" stroke="#263238" stroke-opacity="1.000000" stroke-width="1.000000" stroke-linejoin="round" stroke-linecap="round"/>
		<path id="Vector" d="M415.14 286.73L412.15 285.97" stroke="#263238" stroke-opacity="1.000000" stroke-width="1.000000" stroke-linejoin="round" stroke-linecap="round"/>
		<path id="Vector" d="M409.79 284.84L408.36 283.56" stroke="#263238" stroke-opacity="1.000000" stroke-width="1.000000" stroke-linejoin="round" stroke-linecap="round"/>
		<path id="Vector" d="M407.9 279.63C407.9 279.63 407.47 280.63 406.97 282C408.66 281.12 411.57 280.13 414.23 281.76C416.89 283.41 418.23 287.18 418.77 289.49C419.9 287.2 420.91 284.49 420.5 281.82C419.94 278.26 413.12 273.07 407.9 279.63Z" fill="#263238" fill-opacity="1.000000" fill-rule="nonzero"/>
		<path id="Vector" d="M406.97 282C408.66 281.12 411.57 280.13 414.23 281.76C416.89 283.41 418.23 287.18 418.77 289.49C419.9 287.2 420.91 284.49 420.5 281.82C419.94 278.26 413.12 273.07 407.9 279.63C407.9 279.63 407.47 280.63 406.97 282Z" stroke="#263238" stroke-opacity="1.000000" stroke-width="1.000000" stroke-linejoin="round"/>
		<path id="Vector" d="M418.08 289.39C418.08 289.39 420.16 287.48 420.08 289.22C420 290.96 417.61 291.99 417.08 292.07C416.55 292.15 416.59 291.48 416.59 291.48M418.41 289.73L418.41 289.75C418.21 289.94 417.9 289.93 417.71 289.72C417.52 289.52 417.53 289.21 417.74 289.02L417.77 289.02L418.41 289.73ZM416.11 291.47L416.09 291.45C416.1 291.17 416.34 290.96 416.62 290.98C416.89 290.99 417.1 291.23 417.08 291.51L417.06 291.52L416.11 291.47Z" fill="#FFFFFF" fill-opacity="1.000000" fill-rule="nonzero"/>
		<path id="Vector" d="M418.08 289.39C418.08 289.39 420.16 287.48 420.08 289.22C420 290.96 417.61 291.99 417.08 292.07C416.55 292.15 416.59 291.48 416.59 291.48" stroke="#263238" stroke-opacity="1.000000" stroke-width="1.000000" stroke-linejoin="round" stroke-linecap="round"/>
		<path id="Vector" d="M418.79 307.38L415.59 330.19C415.52 330.67 415.28 331.12 414.91 331.44C414.55 331.77 414.08 331.96 413.59 331.98L412.9 331.98C412.36 332 411.84 331.81 411.44 331.46C411.04 331.11 410.79 330.62 410.75 330.09L409.5 316.37L418.79 307.38Z" fill="#000000" fill-opacity="1.000000" fill-rule="nonzero"/>
		<path id="Vector" d="M415.59 330.19C415.52 330.67 415.28 331.12 414.91 331.44C414.55 331.77 414.08 331.96 413.59 331.98L412.9 331.98C412.36 332 411.84 331.81 411.44 331.46C411.04 331.11 410.79 330.62 410.75 330.09L409.5 316.37L418.79 307.38L415.59 330.19Z" stroke="#263238" stroke-opacity="1.000000" stroke-width="1.000000" stroke-linejoin="round"/>
		<path id="Vector" d="M413 327.06L402.73 318L400.43 319.93L410.29 331.34C410.5 331.57 410.77 331.75 411.06 331.86C411.36 331.98 411.68 332.02 412 332L412.81 332C413.12 331.98 413.42 331.9 413.69 331.76C413.97 331.61 414.21 331.41 414.39 331.16C414.58 330.91 414.71 330.62 414.77 330.32C414.83 330.01 414.82 329.7 414.75 329.4L413 327.06ZM413.3 326.68L413.33 326.68C413.54 326.87 413.56 327.18 413.37 327.39C413.19 327.6 412.87 327.62 412.66 327.43L412.66 327.4L413.3 326.68ZM414.29 329.53L414.26 329.52C414.19 329.25 414.35 328.98 414.62 328.91C414.89 328.84 415.16 329 415.23 329.27L415.22 329.3L414.29 329.53Z" fill="#000000" fill-opacity="1.000000" fill-rule="nonzero"/>
		<path id="Vector" d="M413 327.06L402.73 318L400.43 319.93L410.29 331.34C410.5 331.57 410.77 331.75 411.06 331.86C411.36 331.98 411.68 332.02 412 332L412.81 332C413.12 331.98 413.42 331.9 413.69 331.76C413.97 331.61 414.21 331.41 414.39 331.16C414.58 330.91 414.71 330.62 414.77 330.32C414.83 330.01 414.82 329.7 414.75 329.4" stroke="#263238" stroke-opacity="1.000000" stroke-width="1.000000" stroke-linejoin="round" stroke-linecap="round"/>
		<path id="Vector" d="M402.73 317.99L400.32 314.14L394.9 313.54L394.93 316.76L397.53 318.94L399.18 319.17L400.43 319.92L402.73 317.99Z" fill="#FFFFFF" fill-opacity="1.000000" fill-rule="nonzero"/>
		<path id="Vector" d="M400.32 314.14L394.9 313.54L394.93 316.76L397.53 318.94L399.18 319.17L400.43 319.92L402.73 317.99L400.32 314.14Z" stroke="#263238" stroke-opacity="1.000000" stroke-width="1.000000" stroke-linejoin="round"/>
		<path id="Vector" d="M373.71 330C373.71 330 362.39 344.73 363.01 347.17C363.63 349.61 380.17 375.44 380.17 375.44L382.47 373.92L373.38 345.54L391.65 338.27L373.71 330Z" fill="#FFFFFF" fill-opacity="1.000000" fill-rule="nonzero"/>
		<path id="Vector" d="M363.01 347.17C363.63 349.61 380.17 375.44 380.17 375.44L382.47 373.92L373.38 345.54L391.65 338.27L373.71 330C373.71 330 362.39 344.73 363.01 347.17Z" stroke="#263238" stroke-opacity="1.000000" stroke-width="1.000000" stroke-linejoin="round"/>
		<path id="Vector" d="M382.83 335.46L384.17 341.35L390.22 339.03L382.83 335.46Z" fill="#263238" fill-opacity="1.000000" fill-rule="nonzero"/>
		<path id="Vector" d="M384.17 341.35L390.22 339.03L382.83 335.46L384.17 341.35Z" stroke="#263238" stroke-opacity="1.000000" stroke-width="1.000000"/>
		<path id="Vector" d="M380.17 375.39L377.17 380.39C377.17 380.39 374.78 383.97 375.48 384.19C377.01 384.68 380.97 382.08 382.1 381.28C383.23 380.48 384.44 379.95 385.19 379.42C385.94 378.89 387.44 378.58 385.39 376.68C384.7 376.05 382.51 373.87 382.51 373.87L380.17 375.39Z" fill="#FFFFFF" fill-opacity="1.000000" fill-rule="nonzero"/>
		<path id="Vector" d="M377.17 380.39C377.17 380.39 374.78 383.97 375.48 384.19C377.01 384.68 380.97 382.08 382.1 381.28C383.23 380.48 384.44 379.95 385.19 379.42C385.94 378.89 387.44 378.58 385.39 376.68C384.7 376.05 382.51 373.87 382.51 373.87L380.17 375.39L377.17 380.39Z" stroke="#263238" stroke-opacity="1.000000" stroke-width="1.000000" stroke-linejoin="round"/>
		<path id="Vector" d="M398.86 325.29C393.76 323.26 388.55 321.54 383.25 320.13C374.08 317.64 367.3 315.71 367.43 318C367.56 320.29 384.24 357.18 384.24 357.18L387.1 356.27L382.74 335.93C382.74 335.93 389.74 340.83 394.91 338.4C400.08 335.97 402.05 329.4 401.69 327.16M399.02 324.84L399.04 324.83C399.3 324.93 399.42 325.22 399.32 325.48C399.22 325.74 398.93 325.86 398.67 325.76L398.66 325.73L399.02 324.84ZM401.21 327.25L401.19 327.24C401.15 326.96 401.33 326.71 401.61 326.66C401.88 326.62 402.13 326.8 402.18 327.08L402.16 327.1L401.21 327.25Z" fill="#263238" fill-opacity="1.000000" fill-rule="nonzero"/>
		<path id="Vector" d="M398.86 325.29C393.76 323.26 388.55 321.54 383.25 320.13C374.08 317.64 367.3 315.71 367.43 318C367.56 320.29 384.24 357.18 384.24 357.18L387.1 356.27L382.74 335.93C382.74 335.93 389.74 340.83 394.91 338.4C400.08 335.97 402.05 329.4 401.69 327.16" stroke="#263238" stroke-opacity="1.000000" stroke-width="1.000000" stroke-linejoin="round" stroke-linecap="round"/>
		<path id="Vector" d="M381.3 319.6C373.14 317.39 367.3 315.87 367.43 318C367.56 320.29 384.24 357.18 384.24 357.18L387.1 356.27L382.74 335.93C384.23 332.3 382.65 324.67 381.3 319.6Z" fill="#FFFFFF" fill-opacity="1.000000" fill-rule="nonzero"/>
		<path id="Vector" d="M367.43 318C367.56 320.29 384.24 357.18 384.24 357.18L387.1 356.27L382.74 335.93C384.23 332.3 382.65 324.67 381.3 319.6C373.14 317.39 367.3 315.87 367.43 318Z" stroke="#263238" stroke-opacity="1.000000" stroke-width="1.000000" stroke-linejoin="round"/>
		<path id="Vector" d="M383.12 335.64L383.15 335.64C383.31 335.87 383.25 336.18 383.02 336.34C382.79 336.5 382.48 336.44 382.32 336.21L382.33 336.18L383.12 335.64ZM375.16 325.78L375.13 325.78C374.97 325.55 375.03 325.24 375.26 325.08C375.49 324.92 375.8 324.98 375.96 325.21L375.95 325.24L375.16 325.78Z" fill="#FFFFFF" fill-opacity="1.000000" fill-rule="nonzero"/>
		<path id="Vector" d="M382.74 335.93L375.55 325.5" stroke="#263238" stroke-opacity="1.000000" stroke-width="1.000000" stroke-linejoin="round" stroke-linecap="round"/>
		<path id="Vector" d="M384.24 357.18L381.56 362.23C381.56 362.23 376.15 367.47 377.35 367.74C378.55 368.01 388.72 363.64 389.48 362.6C390.24 361.56 387.1 356.27 387.1 356.27L384.24 357.18Z" fill="#FFFFFF" fill-opacity="1.000000" fill-rule="nonzero"/>
		<path id="Vector" d="M381.56 362.23C381.56 362.23 376.15 367.47 377.35 367.74C378.55 368.01 388.72 363.64 389.48 362.6C390.24 361.56 387.1 356.27 387.1 356.27L384.24 357.18L381.56 362.23Z" stroke="#263238" stroke-opacity="1.000000" stroke-width="1.000000" stroke-linejoin="round"/>
		<path id="Vector" d="M371.8 283.72L397.02 313.75" stroke="#263238" stroke-opacity="1.000000" stroke-width="1.000000"/>
		<path id="Vector" d="M294.2 190.72L368.21 279.28" stroke="#263238" stroke-opacity="1.000000" stroke-width="1.000000"/>
		<path id="Vector" d="M399.18 319.16L399.18 465.16" stroke="#263238" stroke-opacity="1.000000" stroke-width="1.000000"/>
		<path id="Vector" d="M158.33 278.59C158.33 278.59 163.64 309.72 157.87 319.59C152.09 329.46 137.59 322.35 137.59 322.35L137.59 464.16" stroke="#263238" stroke-opacity="1.000000" stroke-width="1.000000"/>
		<path id="Vector" d="M126.39 290.24C126.39 290.24 131.1 289.7 131.46 290.79C131.65 291.68 131.65 292.6 131.46 293.5C131.46 293.5 134.17 296.4 134.17 298.39C134.17 300.38 131.28 301.29 131.28 301.29L130.74 305.99L123.5 306.35L122.59 300.74C122.59 300.74 119.87 290.06 126.39 290.24Z" fill="#FFFFFF" fill-opacity="1.000000" fill-rule="nonzero"/>
		<path id="Vector" d="M131.46 290.79C131.65 291.68 131.65 292.6 131.46 293.5C131.46 293.5 134.17 296.4 134.17 298.39C134.17 300.38 131.28 301.29 131.28 301.29L130.74 305.99L123.5 306.35L122.59 300.74C122.59 300.74 119.87 290.06 126.39 290.24C126.39 290.24 131.1 289.7 131.46 290.79Z" stroke="#263238" stroke-opacity="1.000000" stroke-width="1.000000" stroke-linejoin="round"/>
		<path id="Vector" d="M127.84 298L125.84 295.1C126.51 294 126.88 292.76 126.92 291.48C126.92 289.48 126.74 285.87 122.58 285.87C118.42 285.87 115.7 289.13 114.8 296.19C113.9 303.25 118.05 306.69 124.03 305.42C130 304.15 127.84 298 127.84 298Z" fill="#263238" fill-opacity="1.000000" fill-rule="nonzero"/>
		<path id="Vector" d="M125.84 295.1C126.51 294 126.88 292.76 126.92 291.48C126.92 289.48 126.74 285.87 122.58 285.87C118.42 285.87 115.7 289.13 114.8 296.19C113.9 303.25 118.05 306.69 124.03 305.42C130 304.15 127.84 298 127.84 298L125.84 295.1Z" stroke="#263238" stroke-opacity="1.000000" stroke-width="1.000000" stroke-linejoin="round"/>
		<path id="Vector" d="M127.66 296.76C127.66 296.76 124.58 296.4 124.76 298.76C124.8 299.26 125 299.74 125.33 300.13C125.66 300.53 126.09 300.81 126.58 300.95C127.08 301.08 127.6 301.07 128.08 300.91C128.56 300.74 128.98 300.43 129.28 300.03M127.69 296.28L127.71 296.26C127.99 296.29 128.18 296.54 128.15 296.81C128.12 297.09 127.88 297.28 127.6 297.25L127.58 297.23L127.69 296.28ZM128.89 299.75L128.88 299.73C129.05 299.5 129.36 299.46 129.58 299.62C129.81 299.79 129.85 300.1 129.69 300.32L129.66 300.33L128.89 299.75Z" fill="#FFFFFF" fill-opacity="1.000000" fill-rule="nonzero"/>
		<path id="Vector" d="M127.66 296.76C127.66 296.76 124.58 296.4 124.76 298.76C124.8 299.26 125 299.74 125.33 300.13C125.66 300.53 126.09 300.81 126.58 300.95C127.08 301.08 127.6 301.07 128.08 300.91C128.56 300.74 128.98 300.43 129.28 300.03" stroke="#263238" stroke-opacity="1.000000" stroke-width="1.000000" stroke-linejoin="round" stroke-linecap="round"/>
		<path id="Vector" d="M123.37 308.12L116.7 310C116.7 310 116.18 311.29 115.4 313C114.35 315.31 111.46 320 111.46 320L98.11 323.81L93.82 337.64L92.87 343.36L100.49 339.54L100.97 326.2L112.97 324.35L118.12 311.35L123.37 308.12Z" fill="#263238" fill-opacity="1.000000" fill-rule="nonzero"/>
		<path id="Vector" d="M116.7 310C116.7 310 116.18 311.29 115.4 313C114.35 315.31 111.46 320 111.46 320L98.11 323.81L93.82 337.64L92.87 343.36L100.49 339.54L100.97 326.2L112.97 324.35L118.12 311.35L123.37 308.12L116.7 310Z" stroke="#263238" stroke-opacity="1.000000" stroke-width="1.000000" stroke-linejoin="round"/>
		<path id="Vector" d="M134 306.17C134 306.17 128.75 303.82 124.77 304.35C120.79 304.9 121.15 306.9 121.15 306.9L121.33 309.6C121.33 309.6 128 307.62 134 306.17Z" fill="#000000" fill-opacity="1.000000" fill-rule="nonzero"/>
		<path id="Vector" d="M124.77 304.35C120.79 304.9 121.15 306.9 121.15 306.9L121.33 309.6C121.33 309.6 128 307.62 134 306.17C134 306.17 128.75 303.82 124.77 304.35Z" stroke="#263238" stroke-opacity="1.000000" stroke-width="1.000000" stroke-linejoin="round"/>
		<path id="Vector" d="M116.07 319.39L119.82 336.73C119.84 336.93 119.92 337.13 120.04 337.3C120.16 337.48 120.32 337.62 120.51 337.71C120.69 337.81 120.9 337.86 121.11 337.87C121.32 337.87 121.53 337.82 121.72 337.73L130.19 333.5L116.07 319.39Z" fill="#000000" fill-opacity="1.000000" fill-rule="nonzero"/>
		<path id="Vector" d="M119.82 336.73C119.84 336.93 119.92 337.13 120.04 337.3C120.16 337.48 120.32 337.62 120.51 337.71C120.69 337.81 120.9 337.86 121.11 337.87C121.32 337.87 121.53 337.82 121.72 337.73L130.19 333.5L116.07 319.39L119.82 336.73Z" stroke="#263238" stroke-opacity="1.000000" stroke-width="1.000000" stroke-linejoin="round"/>
		<path id="Vector" d="M125.05 328.42L125.04 328.39C125.16 328.14 125.46 328.04 125.71 328.17C125.96 328.29 126.06 328.59 125.93 328.84L125.91 328.85L125.05 328.42ZM123.93 332.79L123.94 332.82C123.82 333.07 123.52 333.17 123.27 333.04C123.02 332.92 122.92 332.62 123.05 332.37L123.08 332.36L123.93 332.79Z" fill="#FFFFFF" fill-opacity="1.000000" fill-rule="nonzero"/>
		<path id="Vector" d="M125.49 328.62L123.5 332.6" stroke="#263238" stroke-opacity="1.000000" stroke-width="1.000000" stroke-linejoin="round" stroke-linecap="round"/>
		<path id="Vector" d="M143.03 346.18L153.97 364.26L152.52 388.71L157.77 388.53L163.02 359.37L155.35 338.94L143.03 346.18Z" fill="#263238" fill-opacity="1.000000" fill-rule="nonzero"/>
		<path id="Vector" d="M153.97 364.26L152.52 388.71L157.77 388.53L163.02 359.37L155.35 338.94L143.03 346.18L153.97 364.26Z" stroke="#263238" stroke-opacity="1.000000" stroke-width="1.000000" stroke-linejoin="round"/>
		<path id="Vector" d="M121.32 309.6C121.32 309.6 116.07 318.66 116.07 319.39C116.07 320.12 136.53 339.84 136.53 339.84L152.1 329.52L142.32 312.51L156.39 298.7L157.48 280.04L154.95 279.87L150.42 293.45L135.42 305.26L121.32 309.6Z" fill="#000000" fill-opacity="1.000000" fill-rule="nonzero"/>
		<path id="Vector" d="M116.07 319.39C116.07 320.12 136.53 339.84 136.53 339.84L152.1 329.52L142.32 312.51L156.39 298.7L157.48 280.04L154.95 279.87L150.42 293.45L135.42 305.26L121.32 309.6C121.32 309.6 116.07 318.66 116.07 319.39Z" stroke="#263238" stroke-opacity="1.000000" stroke-width="1.000000" stroke-linejoin="round"/>
		<path id="Vector" d="M154.95 279.87L155.13 275.71L159.64 272.26L160.02 273.17L160.02 275.89L160.2 278.06L157.48 280.04L154.95 279.87Z" fill="#FFFFFF" fill-opacity="1.000000" fill-rule="nonzero"/>
		<path id="Vector" d="M155.13 275.71L159.64 272.26L160.02 273.17L160.02 275.89L160.2 278.06L157.48 280.04L154.95 279.87L155.13 275.71Z" stroke="#263238" stroke-opacity="1.000000" stroke-width="1.000000" stroke-linejoin="round"/>
		<path id="Vector" d="M136.53 339.84C136.53 339.84 139.97 345.63 142.53 347.44C145.09 349.25 153 343.64 155 342C157 340.36 164.6 330.6 164.6 330.6L171.66 360.68L176.01 358.87C176.01 358.87 173.46 318.87 172.2 317.75C170.94 316.63 151.38 329.33 151.38 329.33L136.53 339.84Z" fill="#263238" fill-opacity="1.000000" fill-rule="nonzero"/>
		<path id="Vector" d="M142.53 347.44C145.09 349.25 153 343.64 155 342C157 340.36 164.6 330.6 164.6 330.6L171.66 360.68L176.01 358.87C176.01 358.87 173.46 318.87 172.2 317.75C170.94 316.63 151.38 329.33 151.38 329.33L136.53 339.84C136.53 339.84 139.97 345.63 142.53 347.44Z" stroke="#263238" stroke-opacity="1.000000" stroke-width="1.000000" stroke-linejoin="round"/>
		<path id="Vector" d="M176 358.88L182.15 358.88C183.24 358.88 185.95 357.25 186.15 358.52C186.35 359.79 180.9 363.22 178.72 364.31C176.62 365.12 174.43 365.67 172.21 365.94L171.66 360.69L176 358.88Z" fill="#FFFFFF" fill-opacity="1.000000" fill-rule="nonzero"/>
		<path id="Vector" d="M182.15 358.88C183.24 358.88 185.95 357.25 186.15 358.52C186.35 359.79 180.9 363.22 178.72 364.31C176.62 365.12 174.43 365.67 172.21 365.94L171.66 360.69L176 358.88L182.15 358.88Z" stroke="#263238" stroke-opacity="1.000000" stroke-width="1.000000" stroke-linejoin="round"/>
		<path id="Vector" d="M157.77 388.53L160.85 394.14C160.85 394.14 164.65 395.77 164.65 396.5C164.65 397.23 158.5 396.86 157.95 396.86C157.39 396.86 151.25 390.86 151.25 390.86L152.52 388.68L157.77 388.53Z" fill="#FFFFFF" fill-opacity="1.000000" fill-rule="nonzero"/>
		<path id="Vector" d="M160.85 394.14C160.85 394.14 164.65 395.77 164.65 396.5C164.65 397.23 158.5 396.86 157.95 396.86C157.39 396.86 151.25 390.86 151.25 390.86L152.52 388.68L157.77 388.53L160.85 394.14Z" stroke="#263238" stroke-opacity="1.000000" stroke-width="1.000000" stroke-linejoin="round"/>
		<path id="Vector" d="M159.64 272.26L218.74 191.25" stroke="#263238" stroke-opacity="1.000000" stroke-width="1.000000"/>
		<path id="Vector" d="M12 465.2L486 465.2" stroke="#263238" stroke-opacity="1.000000" stroke-width="1.000000" stroke-linejoin="round" stroke-linecap="round"/>
	</g>
</svg>
