<svg width="119.751953" height="119.752014" viewBox="0 0 119.752 119.752" fill="none" xmlns="http://www.w3.org/2000/svg" xmlns:xlink="http://www.w3.org/1999/xlink">
	<desc>
			Created with Pixso.
	</desc>
	<defs>
		<clipPath id="clip580_309">
			<rect id="light-bulb-svgrepo-com 1" width="85.235268" height="85.235268" transform="translate(52.992188 0.000000) rotate(38.441547)" fill="white" fill-opacity="0"/>
		</clipPath>
	</defs>
	<rect id="light-bulb-svgrepo-com 1" width="85.235268" height="85.235268" transform="translate(52.992188 0.000000) rotate(38.441547)" fill="#FFFFFF" fill-opacity="0"/>
	<g clip-path="url(#clip580_309)">
		<path id="Vector" d="M70.09 75.05C74.74 73.86 78.78 71.23 81.77 67.47C85.44 62.84 87.07 57.07 86.35 51.21C85.64 45.36 82.66 40.14 77.99 36.54C73.46 33.05 67.81 31.49 62.09 32.17C56.36 32.84 51.23 35.66 47.63 40.11C44.55 43.92 42.87 48.52 42.77 53.41C42.61 61.35 39.87 69.05 35.07 75.11L29.81 81.73C27.48 84.67 27.97 88.96 30.91 91.29L35.87 95.23C38.8 97.56 43.09 97.07 45.43 94.13L50.68 87.5C55.54 81.38 62.24 77.06 70.09 75.05ZM45.57 53.47C45.66 49.21 47.12 45.2 49.81 41.87C56.27 33.88 68.14 32.49 76.28 38.76C80.35 41.91 82.94 46.45 83.57 51.55C84.19 56.66 82.77 61.69 79.57 65.72C76.97 69.01 73.44 71.29 69.39 72.33C61.12 74.45 54.01 78.94 48.8 85.33L37.59 76.43C42.57 69.97 45.4 61.83 45.57 53.47ZM32.6 82.73L33.3 81.84L43.51 92.04L43.23 92.38C43.08 92.57 42.92 92.73 42.75 92.88L32.6 82.73ZM35.06 79.63L35.85 78.63L47.07 87.54L45.26 89.83L35.06 79.63ZM32.65 89.1C31.47 88.16 30.96 86.69 31.2 85.3L39.79 93.88C39.02 93.83 38.26 93.55 37.61 93.03L32.65 89.1L32.65 89.1Z" fill="#000000" fill-opacity="1.000000" fill-rule="nonzero"/>
		<path id="Vector" d="M52.47 46.9C52.84 46.25 53.26 45.63 53.74 45.05C54.23 44.44 54.13 43.56 53.53 43.07C52.93 42.59 52.04 42.68 51.56 43.28C50.99 43.98 50.48 44.73 50.04 45.5C49.68 46.11 49.84 46.87 50.38 47.29C50.43 47.34 50.49 47.38 50.55 47.41C51.22 47.8 52.08 47.57 52.47 46.9Z" fill="#000000" fill-opacity="1.000000" fill-rule="nonzero"/>
		<path id="Vector" d="M45.69 68.71C45.8 68.8 45.93 68.87 46.07 68.93C46.8 69.2 47.61 68.82 47.88 68.1C49.6 63.43 50.52 58.54 50.62 53.57C50.64 52.74 50.72 51.92 50.88 51.13C51.03 50.37 50.53 49.63 49.77 49.48C49.01 49.33 48.28 49.83 48.13 50.59C47.94 51.54 47.84 52.53 47.82 53.51C47.72 58.17 46.86 62.75 45.24 67.13C45.03 67.71 45.23 68.34 45.69 68.71Z" fill="#000000" fill-opacity="1.000000" fill-rule="nonzero"/>
		<path id="Vector" d="M73.19 66.79C72.83 66.1 71.98 65.85 71.29 66.22C70.31 66.75 69.24 67.16 68.14 67.44C67.39 67.64 66.94 68.4 67.13 69.15C67.21 69.46 67.38 69.72 67.61 69.9C67.95 70.16 68.39 70.27 68.83 70.16C70.16 69.82 71.43 69.32 72.62 68.69C73.3 68.32 73.56 67.47 73.19 66.79Z" fill="#000000" fill-opacity="1.000000" fill-rule="nonzero"/>
		<path id="Vector" d="M73.36 42.88C79.41 47.69 80.43 56.53 75.62 62.58C75.35 62.93 75.06 63.26 74.75 63.58C74.22 64.14 74.24 65.02 74.8 65.56C74.83 65.59 74.86 65.62 74.9 65.65C75.46 66.09 76.28 66.04 76.78 65.51C77.14 65.14 77.49 64.74 77.82 64.33C83.59 57.06 82.37 46.46 75.1 40.69C74.49 40.21 73.61 40.31 73.13 40.91C72.65 41.52 72.75 42.4 73.36 42.88Z" fill="#000000" fill-opacity="1.000000" fill-rule="nonzero"/>
		<path id="Vector" d="M79.74 34.84C80.35 35.32 81.23 35.22 81.71 34.61L86.59 28.46C87.08 27.85 86.97 26.97 86.37 26.49C85.76 26.01 84.88 26.11 84.4 26.72L79.51 32.87C79.03 33.47 79.14 34.36 79.74 34.84Z" fill="#000000" fill-opacity="1.000000" fill-rule="nonzero"/>
		<path id="Vector" d="M66.91 28.19C66.83 28.7 67.04 29.19 67.42 29.49C67.61 29.64 67.84 29.74 68.09 29.78C68.85 29.9 69.57 29.37 69.68 28.6L70.83 20.84C70.95 20.07 70.42 19.36 69.65 19.24C68.89 19.13 68.17 19.66 68.06 20.42L66.91 28.19Z" fill="#000000" fill-opacity="1.000000" fill-rule="nonzero"/>
		<path id="Vector" d="M78.21 84.97L75.32 77.67C75.04 76.95 74.22 76.6 73.5 76.88C72.78 77.17 72.43 77.98 72.72 78.7L75.6 86C75.69 86.24 75.84 86.44 76.03 86.58C76.41 86.89 76.94 86.98 77.42 86.79C78.14 86.51 78.49 85.69 78.21 84.97Z" fill="#000000" fill-opacity="1.000000" fill-rule="nonzero"/>
		<path id="Vector" d="M50.76 23.14L53.65 30.44C53.74 30.68 53.89 30.88 54.08 31.03C54.46 31.33 54.99 31.42 55.47 31.23C56.19 30.95 56.54 30.13 56.26 29.41L53.37 22.11C53.09 21.39 52.27 21.04 51.55 21.32C50.83 21.61 50.48 22.42 50.76 23.14Z" fill="#000000" fill-opacity="1.000000" fill-rule="nonzero"/>
		<path id="Vector" d="M91.83 73.97L85.68 69.09C85.07 68.6 84.19 68.71 83.71 69.31C83.22 69.92 83.33 70.8 83.93 71.28L90.08 76.16C90.69 76.65 91.57 76.55 92.05 75.94C92.53 75.33 92.43 74.45 91.83 73.97Z" fill="#000000" fill-opacity="1.000000" fill-rule="nonzero"/>
		<path id="Vector" d="M45.27 38.8C45.75 38.2 45.65 37.31 45.04 36.83L38.89 31.95C38.28 31.47 37.4 31.57 36.92 32.18C36.44 32.78 36.54 33.66 37.15 34.15L43.3 39.03C43.9 39.51 44.79 39.41 45.27 38.8Z" fill="#000000" fill-opacity="1.000000" fill-rule="nonzero"/>
		<path id="Vector" d="M89.28 58.97C89.46 59.11 89.69 59.22 89.94 59.25L97.71 60.41C98.47 60.52 99.19 59.99 99.3 59.22C99.41 58.46 98.89 57.75 98.12 57.63L90.35 56.48C89.59 56.37 88.88 56.89 88.76 57.66C88.69 58.17 88.9 58.66 89.28 58.97Z" fill="#000000" fill-opacity="1.000000" fill-rule="nonzero"/>
		<path id="Vector" d="M39.03 48.86L31.27 47.71C30.5 47.6 29.79 48.12 29.67 48.89C29.6 49.4 29.81 49.89 30.19 50.2C30.37 50.34 30.6 50.45 30.85 50.48L38.62 51.64C39.38 51.75 40.1 51.22 40.21 50.45C40.32 49.69 39.8 48.98 39.03 48.86Z" fill="#000000" fill-opacity="1.000000" fill-rule="nonzero"/>
		<path id="Vector" d="M87.31 45.04C87.4 45.28 87.56 45.47 87.74 45.62C88.12 45.92 88.65 46.02 89.13 45.83L96.43 42.94C97.15 42.66 97.5 41.84 97.22 41.12C96.93 40.4 96.12 40.05 95.4 40.34L88.1 43.22C87.38 43.5 87.03 44.32 87.31 45.04Z" fill="#000000" fill-opacity="1.000000" fill-rule="nonzero"/>
	</g>
</svg>
