<svg width="311.000000" height="311.000000" viewBox="0 0 311 311" fill="none" xmlns="http://www.w3.org/2000/svg" xmlns:xlink="http://www.w3.org/1999/xlink">
	<desc>
			Created with Pixso.
	</desc>
	<defs>
		<clipPath id="clip580_1025">
			<rect id="Online test-bro 1" width="311.000000" height="311.000000" fill="white" fill-opacity="0"/>
		</clipPath>
	</defs>
	<rect id="Online test-bro 1" width="311.000000" height="311.000000" fill="#FFFFFF" fill-opacity="0"/>
	<g clip-path="url(#clip580_1025)">
		<path id="Vector" d="M249.85 270.1C259.8 263.08 267.95 253.81 273.64 243.04C309.19 176.43 301.16 78.21 232.69 36.08C201.04 16.61 155.5 4.29 121.29 24.28C93.54 40.5 76.54 71.03 62.47 98.81C53.63 116.31 46.35 135.09 35.45 151.43C21.32 172.63 5.76 200.94 21.47 225.58C42.87 259.13 83.29 274.45 119.95 284.54C159.72 295.48 204.44 297.03 241.18 275.68C244.15 273.96 247.04 272.1 249.85 270.1Z" fill="#C8C8C8" fill-opacity="1.000000" fill-rule="nonzero"/>
		<g opacity="0.700000">
			<path id="Vector" d="M249.85 270.1C259.8 263.08 267.95 253.81 273.64 243.04C309.19 176.43 301.16 78.21 232.69 36.08C201.04 16.61 155.5 4.29 121.29 24.28C93.54 40.5 76.54 71.03 62.47 98.81C53.63 116.31 46.35 135.09 35.45 151.43C21.32 172.63 5.76 200.94 21.47 225.58C42.87 259.13 83.29 274.45 119.95 284.54C159.72 295.48 204.44 297.03 241.18 275.68C244.15 273.96 247.04 272.1 249.85 270.1Z" fill="#FFFFFF" fill-opacity="1.000000" fill-rule="nonzero"/>
		</g>
		<g opacity="0.300000">
			<g opacity="0.300000">
				<path id="Vector" d="M281.14 50.05L281.14 134.19L217.07 134.19L217.07 50.05L281.14 50.05Z" stroke="#000000" stroke-opacity="1.000000" stroke-width="1.000000"/>
			</g>
			<g opacity="0.300000">
				<path id="Vector" d="M269.38 65.49L269.38 118.75L228.83 118.75L228.83 65.49L269.38 65.49Z" stroke="#000000" stroke-opacity="1.000000" stroke-width="1.000000"/>
			</g>
		</g>
		<path id="Vector" d="M202.06 40.62L32.44 40.62L32.44 191.6L202.06 191.6L202.06 40.62Z" fill="#263238" fill-opacity="1.000000" fill-rule="nonzero"/>
		<path id="Vector" d="M202.06 40.62L202.06 191.6L32.44 191.6L32.44 40.62L202.06 40.62Z" stroke="#263238" stroke-opacity="1.000000" stroke-width="1.000000"/>
		<path id="Vector" d="M198.85 36.94L29.23 36.94L29.23 187.93L198.85 187.93L198.85 36.94Z" fill="#FFFFFF" fill-opacity="1.000000" fill-rule="nonzero"/>
		<path id="Vector" d="M198.85 36.94L198.85 187.93L29.23 187.93L29.23 36.94L198.85 36.94Z" stroke="#263238" stroke-opacity="1.000000" stroke-width="1.000000" stroke-linejoin="round"/>
		<path id="Vector" d="M165.82 97.87L174.25 97.87L174.25 89.44L165.82 89.44L165.82 97.87Z" fill="#FFFFFF" fill-opacity="1.000000" fill-rule="nonzero"/>
		<path id="Vector" d="M165.82 97.87L165.82 89.44L174.25 89.44L174.25 97.87L165.82 97.87Z" stroke="#263238" stroke-opacity="1.000000" stroke-width="1.000000" stroke-linejoin="round"/>
		<path id="Vector" d="M176.86 97.87L185.3 97.87L185.3 89.44L176.86 89.44L176.86 97.87Z" fill="#FFFFFF" fill-opacity="1.000000" fill-rule="nonzero"/>
		<path id="Vector" d="M176.86 97.87L176.86 89.44L185.3 89.44L185.3 97.87L176.86 97.87Z" stroke="#263238" stroke-opacity="1.000000" stroke-width="1.000000" stroke-linejoin="round"/>
		<path id="Vector" d="M162.43 93.69L162.45 93.67C162.73 93.67 162.95 93.89 162.95 94.17C162.95 94.45 162.73 94.67 162.45 94.67L162.43 94.65L162.43 93.69ZM119.62 94.65L119.6 94.67C119.32 94.67 119.1 94.45 119.1 94.17C119.1 93.89 119.32 93.67 119.6 93.67L119.62 93.69L119.62 94.65Z" fill="#FFFFFF" fill-opacity="1.000000" fill-rule="nonzero"/>
		<path id="Vector" d="M162.45 94.17L119.6 94.17" stroke="#263238" stroke-opacity="1.000000" stroke-width="1.000000" stroke-linejoin="round" stroke-linecap="round"/>
		<path id="Vector" d="M165.82 117.78L174.25 117.78L174.25 109.35L165.82 109.35L165.82 117.78Z" fill="#FFFFFF" fill-opacity="1.000000" fill-rule="nonzero"/>
		<path id="Vector" d="M165.82 117.78L165.82 109.35L174.25 109.35L174.25 117.78L165.82 117.78Z" stroke="#263238" stroke-opacity="1.000000" stroke-width="1.000000" stroke-linejoin="round"/>
		<path id="Vector" d="M176.86 117.78L185.3 117.78L185.3 109.35L176.86 109.35L176.86 117.78Z" fill="#FFFFFF" fill-opacity="1.000000" fill-rule="nonzero"/>
		<path id="Vector" d="M176.86 117.78L176.86 109.35L185.3 109.35L185.3 117.78L176.86 117.78Z" stroke="#263238" stroke-opacity="1.000000" stroke-width="1.000000" stroke-linejoin="round"/>
		<path id="Vector" d="M162.43 113.59L162.45 113.57C162.73 113.57 162.95 113.79 162.95 114.07C162.95 114.35 162.73 114.57 162.45 114.57L162.43 114.55L162.43 113.59ZM119.62 114.55L119.6 114.57C119.32 114.57 119.1 114.35 119.1 114.07C119.1 113.79 119.32 113.57 119.6 113.57L119.62 113.59L119.62 114.55Z" fill="#FFFFFF" fill-opacity="1.000000" fill-rule="nonzero"/>
		<path id="Vector" d="M162.45 114.07L119.6 114.07" stroke="#263238" stroke-opacity="1.000000" stroke-width="1.000000" stroke-linejoin="round" stroke-linecap="round"/>
		<path id="Vector" d="M165.82 137.69L174.25 137.69L174.25 129.26L165.82 129.26L165.82 137.69Z" fill="#FFFFFF" fill-opacity="1.000000" fill-rule="nonzero"/>
		<path id="Vector" d="M165.82 137.69L165.82 129.26L174.25 129.26L174.25 137.69L165.82 137.69Z" stroke="#263238" stroke-opacity="1.000000" stroke-width="1.000000" stroke-linejoin="round"/>
		<path id="Vector" d="M176.86 137.69L185.3 137.69L185.3 129.26L176.86 129.26L176.86 137.69Z" fill="#FFFFFF" fill-opacity="1.000000" fill-rule="nonzero"/>
		<path id="Vector" d="M176.86 137.69L176.86 129.26L185.3 129.26L185.3 137.69L176.86 137.69Z" stroke="#263238" stroke-opacity="1.000000" stroke-width="1.000000" stroke-linejoin="round"/>
		<path id="Vector" d="M162.43 133.5L162.45 133.48C162.73 133.48 162.95 133.7 162.95 133.98C162.95 134.26 162.73 134.48 162.45 134.48L162.43 134.46L162.43 133.5ZM119.62 134.46L119.6 134.48C119.32 134.48 119.1 134.26 119.1 133.98C119.1 133.7 119.32 133.48 119.6 133.48L119.62 133.5L119.62 134.46Z" fill="#FFFFFF" fill-opacity="1.000000" fill-rule="nonzero"/>
		<path id="Vector" d="M162.45 133.98L119.6 133.98" stroke="#263238" stroke-opacity="1.000000" stroke-width="1.000000" stroke-linejoin="round" stroke-linecap="round"/>
		<path id="Vector" d="M85.18 97.87L93.62 97.87L93.62 89.44L85.18 89.44L85.18 97.87Z" fill="#FFFFFF" fill-opacity="1.000000" fill-rule="nonzero"/>
		<path id="Vector" d="M85.18 97.87L85.18 89.44L93.62 89.44L93.62 97.87L85.18 97.87Z" stroke="#263238" stroke-opacity="1.000000" stroke-width="1.000000" stroke-linejoin="round"/>
		<path id="Vector" d="M96.23 97.87L104.67 97.87L104.67 89.44L96.23 89.44L96.23 97.87Z" fill="#FFFFFF" fill-opacity="1.000000" fill-rule="nonzero"/>
		<path id="Vector" d="M96.23 97.87L96.23 89.44L104.67 89.44L104.67 97.87L96.23 97.87Z" stroke="#263238" stroke-opacity="1.000000" stroke-width="1.000000" stroke-linejoin="round"/>
		<path id="Vector" d="M81.79 93.69L81.81 93.67C82.09 93.67 82.31 93.89 82.31 94.17C82.31 94.45 82.09 94.67 81.81 94.67L81.79 94.65L81.79 93.69ZM38.98 94.65L38.96 94.67C38.68 94.67 38.46 94.45 38.46 94.17C38.46 93.89 38.68 93.67 38.96 93.67L38.98 93.69L38.98 94.65Z" fill="#FFFFFF" fill-opacity="1.000000" fill-rule="nonzero"/>
		<path id="Vector" d="M81.81 94.17L38.96 94.17" stroke="#263238" stroke-opacity="1.000000" stroke-width="1.000000" stroke-linejoin="round" stroke-linecap="round"/>
		<path id="Vector" d="M85.18 117.78L93.62 117.78L93.62 109.35L85.18 109.35L85.18 117.78Z" fill="#FFFFFF" fill-opacity="1.000000" fill-rule="nonzero"/>
		<path id="Vector" d="M85.18 117.78L85.18 109.35L93.62 109.35L93.62 117.78L85.18 117.78Z" stroke="#263238" stroke-opacity="1.000000" stroke-width="1.000000" stroke-linejoin="round"/>
		<path id="Vector" d="M96.23 117.78L104.67 117.78L104.67 109.35L96.23 109.35L96.23 117.78Z" fill="#FFFFFF" fill-opacity="1.000000" fill-rule="nonzero"/>
		<path id="Vector" d="M96.23 117.78L96.23 109.35L104.67 109.35L104.67 117.78L96.23 117.78Z" stroke="#263238" stroke-opacity="1.000000" stroke-width="1.000000" stroke-linejoin="round"/>
		<path id="Vector" d="M81.79 113.59L81.81 113.57C82.09 113.57 82.31 113.79 82.31 114.07C82.31 114.35 82.09 114.57 81.81 114.57L81.79 114.55L81.79 113.59ZM38.98 114.55L38.96 114.57C38.68 114.57 38.46 114.35 38.46 114.07C38.46 113.79 38.68 113.57 38.96 113.57L38.98 113.59L38.98 114.55Z" fill="#FFFFFF" fill-opacity="1.000000" fill-rule="nonzero"/>
		<path id="Vector" d="M81.81 114.07L38.96 114.07" stroke="#263238" stroke-opacity="1.000000" stroke-width="1.000000" stroke-linejoin="round" stroke-linecap="round"/>
		<path id="Vector" d="M85.18 137.69L93.62 137.69L93.62 129.26L85.18 129.26L85.18 137.69Z" fill="#FFFFFF" fill-opacity="1.000000" fill-rule="nonzero"/>
		<path id="Vector" d="M85.18 137.69L85.18 129.26L93.62 129.26L93.62 137.69L85.18 137.69Z" stroke="#263238" stroke-opacity="1.000000" stroke-width="1.000000" stroke-linejoin="round"/>
		<path id="Vector" d="M96.23 137.69L104.67 137.69L104.67 129.26L96.23 129.26L96.23 137.69Z" fill="#FFFFFF" fill-opacity="1.000000" fill-rule="nonzero"/>
		<path id="Vector" d="M96.23 137.69L96.23 129.26L104.67 129.26L104.67 137.69L96.23 137.69Z" stroke="#263238" stroke-opacity="1.000000" stroke-width="1.000000" stroke-linejoin="round"/>
		<path id="Vector" d="M81.79 133.5L81.81 133.48C82.09 133.48 82.31 133.7 82.31 133.98C82.31 134.26 82.09 134.48 81.81 134.48L81.79 134.46L81.79 133.5ZM38.98 134.46L38.96 134.48C38.68 134.48 38.46 134.26 38.46 133.98C38.46 133.7 38.68 133.48 38.96 133.48L38.98 133.5L38.98 134.46Z" fill="#FFFFFF" fill-opacity="1.000000" fill-rule="nonzero"/>
		<path id="Vector" d="M81.81 133.98L38.96 133.98" stroke="#263238" stroke-opacity="1.000000" stroke-width="1.000000" stroke-linejoin="round" stroke-linecap="round"/>
		<path id="Vector" d="M50.92 166.69L41.63 166.69L41.63 175.98L50.92 175.98L50.92 166.69Z" fill="#FFFFFF" fill-opacity="1.000000" fill-rule="nonzero"/>
		<path id="Vector" d="M50.92 166.69L50.92 175.98L41.63 175.98L41.63 166.69L50.92 166.69Z" stroke="#263238" stroke-opacity="1.000000" stroke-width="1.000000" stroke-linejoin="round"/>
		<path id="Vector" d="M88.84 166.69L79.55 166.69L79.55 175.98L88.84 175.98L88.84 166.69Z" fill="#FFFFFF" fill-opacity="1.000000" fill-rule="nonzero"/>
		<path id="Vector" d="M88.84 166.69L88.84 175.98L79.55 175.98L79.55 166.69L88.84 166.69Z" stroke="#263238" stroke-opacity="1.000000" stroke-width="1.000000" stroke-linejoin="round"/>
		<path id="Vector" d="M128.27 166.69L118.98 166.69L118.98 175.98L128.27 175.98L128.27 166.69Z" fill="#FFFFFF" fill-opacity="1.000000" fill-rule="nonzero"/>
		<path id="Vector" d="M128.27 166.69L128.27 175.98L118.98 175.98L118.98 166.69L128.27 166.69Z" stroke="#263238" stroke-opacity="1.000000" stroke-width="1.000000" stroke-linejoin="round"/>
		<path id="Vector" d="M99 92.26L100.44 95.15L107.4 88.42" stroke="#263238" stroke-opacity="1.000000" stroke-width="2.000000" stroke-linejoin="round" stroke-linecap="round"/>
		<path id="Vector" d="M99 111.95L100.44 114.83L107.4 108.11" stroke="#263238" stroke-opacity="1.000000" stroke-width="2.000000" stroke-linejoin="round" stroke-linecap="round"/>
		<path id="Vector" d="M86.99 132.59L88.44 135.47L95.4 128.75" stroke="#263238" stroke-opacity="1.000000" stroke-width="2.000000" stroke-linejoin="round" stroke-linecap="round"/>
		<path id="Vector" d="M179.17 92.03L180.61 94.91L187.57 88.18" stroke="#263238" stroke-opacity="1.000000" stroke-width="2.000000" stroke-linejoin="round" stroke-linecap="round"/>
		<path id="Vector" d="M167.55 112.19L168.99 115.07L175.95 108.35" stroke="#263238" stroke-opacity="1.000000" stroke-width="2.000000" stroke-linejoin="round" stroke-linecap="round"/>
		<path id="Vector" d="M167.55 132.41L168.99 135.29L175.95 128.58" stroke="#263238" stroke-opacity="1.000000" stroke-width="2.000000" stroke-linejoin="round" stroke-linecap="round"/>
		<path id="Vector" d="M198.85 36.94L29.23 36.94L29.23 60.53L198.85 60.53L198.85 36.94Z" fill="#FFFFFF" fill-opacity="1.000000" fill-rule="nonzero"/>
		<path id="Vector" d="M198.85 36.94L198.85 60.53L29.23 60.53L29.23 36.94L198.85 36.94Z" stroke="#263238" stroke-opacity="1.000000" stroke-width="1.000000" stroke-linejoin="round"/>
		<path id="Vector" d="M198.85 36.94L192.46 36.94L192.46 187.93L198.85 187.93L198.85 36.94Z" fill="#DBDBDB" fill-opacity="1.000000" fill-rule="nonzero"/>
		<path id="Vector" d="M198.85 36.94L198.85 187.93L192.46 187.93L192.46 36.94L198.85 36.94Z" stroke="#263238" stroke-opacity="1.000000" stroke-width="1.000000" stroke-linejoin="round"/>
		<path id="Vector" d="M198.85 59.63L192.46 59.63L192.46 88.77L198.85 88.77L198.85 59.63Z" fill="#949494" fill-opacity="1.000000" fill-rule="nonzero"/>
		<path id="Vector" d="M198.85 59.63L198.85 88.77L192.46 88.77L192.46 59.63L198.85 59.63Z" stroke="#263238" stroke-opacity="1.000000" stroke-width="1.000000" stroke-linejoin="round"/>
		<path id="Vector" d="M198.85 36.94L29.23 36.94L29.23 48.41L198.85 48.41L198.85 36.94Z" fill="#DBDBDB" fill-opacity="1.000000" fill-rule="nonzero"/>
		<path id="Vector" d="M198.85 36.94L198.85 48.41L29.23 48.41L29.23 36.94L198.85 36.94Z" stroke="#263238" stroke-opacity="1.000000" stroke-width="1.000000" stroke-linejoin="round"/>
		<path id="Vector" d="M104.72 40.28L37.83 40.28L37.83 45.06L104.72 45.06L104.72 40.28Z" fill="#FFFFFF" fill-opacity="1.000000" fill-rule="nonzero"/>
		<path id="Vector" d="M104.72 40.28L104.72 45.06L37.83 45.06L37.83 40.28L104.72 40.28Z" stroke="#263238" stroke-opacity="1.000000" stroke-width="1.000000" stroke-linejoin="round"/>
		<path id="Vector" d="M188.83 40.51L194.71 40.51" stroke="#263238" stroke-opacity="1.000000" stroke-width="1.000000" stroke-linejoin="round" stroke-linecap="round"/>
		<path id="Vector" d="M188.83 42.99L194.71 42.99" stroke="#263238" stroke-opacity="1.000000" stroke-width="1.000000" stroke-linejoin="round" stroke-linecap="round"/>
		<path id="Vector" d="M188.83 45.48L194.71 45.48" stroke="#263238" stroke-opacity="1.000000" stroke-width="1.000000" stroke-linejoin="round" stroke-linecap="round"/>
		<path id="Vector" d="M88.48 70.07C88.48 68.6 89.26 67.76 90.68 67.76C92.09 67.76 92.87 68.6 92.87 70.07L92.87 74.85C92.87 76.31 92.09 77.15 90.68 77.15C89.26 77.15 88.48 76.31 88.48 74.85L88.48 70.07ZM89.93 74.94C89.93 75.59 90.22 75.84 90.68 75.84C91.14 75.84 91.42 75.59 91.42 74.94L91.42 69.96C91.42 69.3 91.14 69.06 90.68 69.06C90.22 69.06 89.93 69.3 89.93 69.96L89.93 74.94Z" fill="#263238" fill-opacity="1.000000" fill-rule="nonzero"/>
		<path id="Vector" d="M95.09 70.4L95.09 77.05L93.79 77.05L93.79 67.86L95.6 67.86L97.08 73.36L97.08 67.86L98.37 67.86L98.37 77.05L96.88 77.05L95.09 70.4Z" fill="#263238" fill-opacity="1.000000" fill-rule="nonzero"/>
		<path id="Vector" d="M99.4 67.86L100.85 67.86L100.85 75.74L103.25 75.74L103.25 77.05L99.42 77.05L99.4 67.86Z" fill="#263238" fill-opacity="1.000000" fill-rule="nonzero"/>
		<path id="Vector" d="M103.87 67.86L105.31 67.86L105.31 77.05L103.87 77.05L103.87 67.86Z" fill="#263238" fill-opacity="1.000000" fill-rule="nonzero"/>
		<path id="Vector" d="M107.64 70.4L107.64 77.05L106.36 77.05L106.36 67.86L108.17 67.86L109.65 73.36L109.65 67.86L110.94 67.86L110.94 77.05L109.47 77.05L107.64 70.4Z" fill="#263238" fill-opacity="1.000000" fill-rule="nonzero"/>
		<path id="Vector" d="M113.4 71.74L115.38 71.74L115.38 73.05L113.4 73.05L113.4 75.74L115.89 75.74L115.89 77.05L111.96 77.05L111.96 67.86L115.89 67.86L115.89 69.17L113.4 69.17L113.4 71.74Z" fill="#263238" fill-opacity="1.000000" fill-rule="nonzero"/>
		<path id="Vector" d="M118.41 67.86L122.87 67.86L122.87 69.17L121.35 69.17L121.35 77.05L119.91 77.05L119.91 69.17L118.41 69.17L118.41 67.86Z" fill="#263238" fill-opacity="1.000000" fill-rule="nonzero"/>
		<path id="Vector" d="M124.94 71.74L126.92 71.74L126.92 73.05L124.94 73.05L124.94 75.74L127.43 75.74L127.43 77.05L123.49 77.05L123.49 67.86L127.43 67.86L127.43 69.17L124.94 69.17L124.94 71.74Z" fill="#263238" fill-opacity="1.000000" fill-rule="nonzero"/>
		<path id="Vector" d="M130.27 67.76C131.67 67.76 132.39 68.6 132.39 70.07L132.39 70.36L131.03 70.36L131.03 69.98C131.03 69.32 130.77 69.07 130.31 69.07C129.85 69.07 129.59 69.32 129.59 69.98C129.59 71.84 132.41 72.22 132.41 74.85C132.41 76.31 131.67 77.15 130.25 77.15C128.84 77.15 128.13 76.31 128.13 74.85L128.13 74.28L129.5 74.28L129.5 74.94C129.5 75.59 129.78 75.83 130.24 75.83C130.7 75.83 130.99 75.59 130.99 74.94C130.99 73.07 128.17 72.69 128.17 70.07C128.13 68.6 128.87 67.76 130.27 67.76Z" fill="#263238" fill-opacity="1.000000" fill-rule="nonzero"/>
		<path id="Vector" d="M132.82 67.86L137.28 67.86L137.28 69.17L135.77 69.17L135.77 77.05L134.35 77.05L134.35 69.17L132.84 69.17L132.82 67.86Z" fill="#263238" fill-opacity="1.000000" fill-rule="nonzero"/>
		<path id="Vector" d="M48.86 164.45L47.4 164.45L47.15 162.78L45.4 162.78L45.15 164.45L43.8 164.45L45.27 155.27L47.38 155.27L48.86 164.45ZM45.56 161.53L46.96 161.53L46.26 156.89L45.56 161.53Z" fill="#263238" fill-opacity="1.000000" fill-rule="nonzero"/>
		<path id="Vector" d="M86.17 157.36L86.17 157.68C86.17 158.63 85.89 159.23 85.24 159.55C86.02 159.85 86.32 160.55 86.32 161.52L86.32 162.27C86.32 163.69 85.57 164.45 84.13 164.45L81.86 164.45L81.86 155.27L84.03 155.27C85.53 155.27 86.17 155.96 86.17 157.36ZM83.3 156.56L83.3 158.98L83.87 158.98C84.4 158.98 84.73 158.75 84.73 158.01L84.73 157.5C84.73 156.85 84.51 156.56 84 156.56L83.3 156.56ZM83.3 160.29L83.3 163.11L84.13 163.11C84.61 163.11 84.87 162.89 84.87 162.21L84.87 161.41C84.87 160.55 84.6 160.29 83.95 160.29L83.3 160.29Z" fill="#263238" fill-opacity="1.000000" fill-rule="nonzero"/>
		<path id="Vector" d="M125.97 161.03L125.97 162.27C125.97 163.74 125.24 164.58 123.82 164.58C122.4 164.58 121.67 163.74 121.67 162.27L121.67 157.49C121.67 156.02 122.4 155.18 123.82 155.18C125.24 155.18 125.97 156.02 125.97 157.49L125.97 158.39L124.61 158.39L124.61 157.36C124.61 156.7 124.32 156.45 123.86 156.45C123.4 156.45 123.11 156.7 123.11 157.36L123.11 162.34C123.11 163 123.41 163.23 123.86 163.23C124.31 163.23 124.61 163 124.61 162.34L124.61 161.03L125.97 161.03Z" fill="#263238" fill-opacity="1.000000" fill-rule="nonzero"/>
		<path id="Vector" d="M39.64 150.85L39.62 150.87C39.34 150.87 39.12 150.65 39.12 150.37C39.12 150.09 39.34 149.87 39.62 149.87L39.64 149.89L39.64 150.85ZM149.85 149.89L149.87 149.87C150.14 149.87 150.37 150.09 150.37 150.37C150.37 150.65 150.14 150.87 149.87 150.87L149.85 150.85L149.85 149.89Z" fill="#FFFFFF" fill-opacity="1.000000" fill-rule="nonzero"/>
		<path id="Vector" d="M39.62 150.37L149.87 150.37" stroke="#263238" stroke-opacity="1.000000" stroke-width="1.000000" stroke-linejoin="round" stroke-linecap="round"/>
		<g opacity="0.300000">
			<path id="Vector" d="M220.7 37.68L220.7 25.51L232.87 25.51L232.87 37.68L220.7 37.68Z" stroke="#000000" stroke-opacity="1.000000" stroke-width="1.000000" stroke-linejoin="round"/>
		</g>
		<g opacity="0.300000">
			<path id="Vector" d="M236.64 37.68L236.64 25.51L248.81 25.51L248.81 37.68L236.64 37.68Z" stroke="#000000" stroke-opacity="1.000000" stroke-width="1.000000" stroke-linejoin="round"/>
		</g>
		<g opacity="0.300000">
			<path id="Vector" d="M223.32 30.32L225.4 34.48L231.5 27.75" stroke="#000000" stroke-opacity="1.000000" stroke-width="2.000000" stroke-linejoin="round" stroke-linecap="round"/>
		</g>
		<g opacity="0.300000">
			<path id="Vector" d="M36.43 216.27L36.43 204.1L48.6 204.1L48.6 216.27L36.43 216.27Z" stroke="#000000" stroke-opacity="1.000000" stroke-width="1.000000" stroke-linejoin="round"/>
		</g>
		<g opacity="0.300000">
			<path id="Vector" d="M52.37 216.27L52.37 204.1L64.54 204.1L64.54 216.27L52.37 216.27Z" stroke="#000000" stroke-opacity="1.000000" stroke-width="1.000000" stroke-linejoin="round"/>
		</g>
		<g opacity="0.300000">
			<path id="Vector" d="M39.04 208.91L41.12 213.07L47.22 206.34" stroke="#000000" stroke-opacity="1.000000" stroke-width="2.000000" stroke-linejoin="round" stroke-linecap="round"/>
		</g>
		<g opacity="0.300000">
			<path id="Vector" d="M94.1 216.27L94.1 204.1L106.27 204.1L106.27 216.27L94.1 216.27Z" stroke="#000000" stroke-opacity="1.000000" stroke-width="1.000000" stroke-linejoin="round"/>
		</g>
		<g opacity="0.300000">
			<path id="Vector" d="M110.04 216.27L110.04 204.1L122.21 204.1L122.21 216.27L110.04 216.27Z" stroke="#000000" stroke-opacity="1.000000" stroke-width="1.000000" stroke-linejoin="round"/>
		</g>
		<g opacity="0.300000">
			<path id="Vector" d="M96.71 208.91L98.79 213.07L104.9 206.34" stroke="#000000" stroke-opacity="1.000000" stroke-width="2.000000" stroke-linejoin="round" stroke-linecap="round"/>
		</g>
		<g opacity="0.300000">
			<g opacity="0.300000">
				<path id="Vector" d="M112.98 31.6C108.72 32.29 104.71 29.39 104.02 25.13C103.33 20.87 106.22 16.86 110.48 16.17C114.74 15.48 118.75 18.38 119.44 22.64C120.13 26.9 117.24 30.91 112.98 31.6Z" stroke="#000000" stroke-opacity="1.000000" stroke-width="1.000000" stroke-linejoin="round"/>
			</g>
			<g opacity="0.300000">
				<path id="Vector" d="M113.91 26.71L111.73 23.89L111.73 19.44" stroke="#000000" stroke-opacity="1.000000" stroke-width="1.000000" stroke-linejoin="round" stroke-linecap="round"/>
			</g>
		</g>
		<g opacity="0.300000">
			<g opacity="0.300000">
				<path id="Vector" d="M257.55 173.73L256.4 173.73L256.2 172.41L254.79 172.41L254.59 173.73L253.54 173.73L254.71 166.45L256.38 166.45L257.55 173.73ZM254.94 171.42L256.04 171.42L255.49 167.74L254.94 171.42Z" fill="#000000" fill-opacity="1.000000" fill-rule="nonzero"/>
			</g>
			<g opacity="0.300000">
				<path id="Vector" d="M273.84 168.12L273.84 168.38C273.89 168.67 273.84 168.97 273.71 169.23C273.58 169.5 273.37 169.71 273.11 169.85C273.4 169.98 273.64 170.21 273.8 170.49C273.95 170.77 274.01 171.1 273.96 171.41L273.96 172.03C273.99 172.27 273.97 172.51 273.89 172.73C273.81 172.95 273.68 173.16 273.51 173.32C273.35 173.49 273.14 173.62 272.92 173.69C272.69 173.77 272.45 173.79 272.22 173.76L270.42 173.76L270.42 166.45L272.15 166.45C273.33 166.45 273.84 167 273.84 168.12ZM271.57 167.5L271.57 169.43L272.01 169.43C272.44 169.43 272.7 169.24 272.7 168.66L272.7 168.25C272.7 167.73 272.53 167.5 272.11 167.5L271.57 167.5ZM271.57 170.47L271.57 172.71L272.22 172.71C272.6 172.71 272.84 172.53 272.84 171.99L272.84 171.37C272.84 170.7 272.62 170.49 272.1 170.49L271.57 170.47Z" fill="#000000" fill-opacity="1.000000" fill-rule="nonzero"/>
			</g>
			<g opacity="0.300000">
				<path id="Vector" d="M290.34 171.05L290.34 172.01C290.34 173.18 289.76 173.84 288.63 173.84C287.51 173.84 286.92 173.18 286.92 172.01L286.92 168.22C286.92 167.05 287.51 166.39 288.63 166.39C289.76 166.39 290.34 167.05 290.34 168.22L290.34 168.93L289.26 168.93L289.26 168.12C289.26 167.6 289.03 167.41 288.67 167.41C288.31 167.41 288.04 167.6 288.04 168.12L288.04 172.06C288.04 172.58 288.27 172.77 288.67 172.77C289.06 172.77 289.26 172.58 289.26 172.06L289.26 171.05L290.34 171.05Z" fill="#000000" fill-opacity="1.000000" fill-rule="nonzero"/>
			</g>
			<g opacity="0.300000">
				<path id="Vector" d="M259.83 177.71L259.83 186.56L250.98 186.56L250.98 177.71L259.83 177.71Z" stroke="#000000" stroke-opacity="1.000000" stroke-width="1.000000"/>
			</g>
			<g opacity="0.300000">
				<path id="Vector" d="M276.29 177.71L276.29 186.56L267.44 186.56L267.44 177.71L276.29 177.71Z" stroke="#000000" stroke-opacity="1.000000" stroke-width="1.000000"/>
			</g>
			<g opacity="0.300000">
				<path id="Vector" d="M292.76 177.71L292.76 186.56L283.91 186.56L283.91 177.71L292.76 177.71Z" stroke="#000000" stroke-opacity="1.000000" stroke-width="1.000000"/>
			</g>
		</g>
		<path id="Vector" d="M50.03 280.24L31.3 280.24" stroke="#263238" stroke-opacity="1.000000" stroke-width="1.000000"/>
		<path id="Vector" d="M294.41 280.24L56.13 280.24" stroke="#263238" stroke-opacity="1.000000" stroke-width="1.000000"/>
		<path id="Vector" d="M222.45 280.03L226.45 219.2L229.4 190.28L221.32 181.25L217.26 178.3C217.26 178.3 211.55 183.28 207.5 184.38C203.45 185.48 199.56 186.6 199.56 186.6C199.56 186.6 185.74 212.57 184.63 224.36C183.52 236.14 181.68 279.81 181.68 279.81L183.22 280.03L222.45 280.03Z" fill="#9E9E9E" fill-opacity="1.000000" fill-rule="nonzero"/>
		<path id="Vector" d="M226.45 219.2L229.4 190.28L221.32 181.25L217.26 178.3C217.26 178.3 211.55 183.28 207.5 184.38C203.45 185.48 199.56 186.6 199.56 186.6C199.56 186.6 185.74 212.57 184.63 224.36C183.52 236.14 181.68 279.81 181.68 279.81L183.22 280.03L222.45 280.03L226.45 219.2Z" stroke="#263238" stroke-opacity="1.000000" stroke-width="1.000000"/>
		<path id="Vector" d="M203.46 229.88C203.46 229.88 202.77 229.53 204.15 225.97" stroke="#263238" stroke-opacity="1.000000" stroke-width="1.000000"/>
		<path id="Vector" d="M201.83 185.97C202.52 190.89 202.9 195.84 202.97 200.8C202.97 200.8 207.12 199.14 210.44 193.34C212.27 190.22 213.85 186.97 215.15 183.6L201.83 185.97Z" fill="#263238" fill-opacity="1.000000" fill-rule="nonzero"/>
		<path id="Vector" d="M202.97 200.8C202.97 200.8 207.12 199.14 210.44 193.34C212.27 190.22 213.85 186.97 215.15 183.6L201.83 185.97C202.52 190.89 202.9 195.84 202.97 200.8Z" stroke="#263238" stroke-opacity="1.000000" stroke-width="1.000000"/>
		<path id="Vector" d="M222.45 280.03L226.05 225.34C222.52 227.14 215.54 230.12 207.85 230.25C198.63 230.41 187.22 223.25 187.22 223.25L184.65 224.26C184.65 224.29 184.65 224.33 184.65 224.36C183.54 236.17 181.7 279.81 181.7 279.81L183.24 280.03L222.45 280.03Z" fill="#FFFFFF" fill-opacity="1.000000" fill-rule="nonzero"/>
		<path id="Vector" d="M226.05 225.34C222.52 227.14 215.54 230.12 207.85 230.25C198.63 230.41 187.22 223.25 187.22 223.25L184.65 224.26C184.65 224.29 184.65 224.33 184.65 224.36C183.54 236.17 181.7 279.81 181.7 279.81L183.24 280.03L222.45 280.03L226.05 225.34Z" stroke="#263238" stroke-opacity="1.000000" stroke-width="1.000000"/>
		<path id="Vector" d="M216.45 249.42C216.45 263.51 216.94 277.06 217.07 280.02L244.22 280.02C244.6 275.63 246.94 248.3 248.14 238.5C249.45 227.8 258.06 211.86 258.06 206.16C258.06 200.45 259.81 201.36 251.94 197.21C244.08 193.06 226.74 184.1 224.34 183.01C221.94 181.91 219.31 179.27 219.31 179.27C219.31 179.27 220.18 184.74 219.93 199.58C219.69 214.43 216.45 233.49 216.45 249.42Z" fill="#FFFFFF" fill-opacity="1.000000" fill-rule="nonzero"/>
		<g opacity="0.200000">
			<g opacity="0.200000">
				<path id="Vector" d="M219.31 179.33C219.64 181.91 219.82 184.51 219.87 187.12L219.87 179.86C219.52 179.54 219.31 179.33 219.31 179.33Z" fill="#000000" fill-opacity="1.000000" fill-rule="nonzero"/>
			</g>
			<g opacity="0.200000">
				<path id="Vector" d="M255.02 214.88L255.02 216.74C255.23 216.18 255.44 215.63 255.64 215.09L255.64 214.87L255.72 214.87C255.8 214.66 255.87 214.45 255.95 214.24L255.64 214.24L255.64 206.5L258.04 206.5C258.04 206.41 258.04 206.31 258.04 206.21C258.04 206.12 258.04 205.99 258.04 205.88L255.64 205.88L255.64 199.25C255.44 199.13 255.24 199.02 255.02 198.89L255.02 205.88L248.48 205.88L248.48 198.1L253.54 198.1L252.37 197.48L248.48 197.48L248.48 195.43L247.86 195.1L247.86 197.46L241.33 197.46L241.33 191.7L240.71 191.38L240.71 197.46L234.18 197.46L234.18 189.71L237.43 189.71L236.22 189.08L234.18 189.08L234.18 188.03L233.56 187.71L233.56 189.08L227.03 189.08L227.03 184.39C226.81 184.28 226.6 184.17 226.4 184.08L226.4 189.08L219.93 189.08C219.93 189.29 219.93 189.49 219.93 189.71L226.4 189.71L226.4 197.48L219.99 197.48C219.99 197.69 219.99 197.89 219.99 198.1L226.4 198.1L226.4 205.88L219.87 205.88L219.87 202.92C219.75 205.96 219.52 209.14 219.25 212.38L219.25 214.25L219.09 214.25L219.03 214.87L219.25 214.87L219.25 222.67L218.32 222.67L218.26 223.29L219.28 223.29L219.28 231.07L217.52 231.07L217.46 231.69L219.28 231.69L219.28 239.47L216.86 239.47L216.82 240.09L219.31 240.09L219.31 247.86L216.55 247.86C216.55 248.07 216.55 248.28 216.55 248.48L219.31 248.48L219.31 256.26L216.57 256.26C216.57 256.47 216.57 256.68 216.57 256.88L219.31 256.88L219.31 264.66L216.69 264.66C216.69 264.87 216.69 265.07 216.69 265.28L219.29 265.28L219.29 280.05L219.92 280.05L219.92 265.26L226.4 265.26L226.4 280.03L227.03 280.03L227.03 265.26L233.56 265.26L233.56 280.03L234.18 280.03L234.18 265.26L240.71 265.26L240.71 280.03L241.33 280.03L241.33 265.26L245.52 265.26C245.52 265.05 245.52 264.85 245.57 264.64L241.33 264.64L241.33 256.88L246.31 256.88C246.31 256.68 246.35 256.47 246.37 256.26L241.33 256.26L241.33 248.48L247.08 248.48C247.08 248.27 247.12 248.07 247.14 247.86L241.33 247.86L241.33 240.09L247.86 240.09L247.86 240.91L248.14 238.53C248.22 237.84 248.34 237.11 248.48 236.37L248.48 231.69L249.65 231.69L249.83 231.07L248.48 231.07L248.48 223.29L252.53 223.29C252.61 223.09 252.68 222.88 252.76 222.67L248.48 222.67L248.48 214.9L255.02 214.88ZM248.48 206.5L255.02 206.5L255.02 214.27L248.48 214.27L248.48 206.5ZM226.4 264.64L219.87 264.64L219.87 256.88L226.4 256.88L226.4 264.64ZM226.4 256.24L219.87 256.24L219.87 248.47L226.4 248.47L226.4 256.24ZM226.4 247.84L219.87 247.84L219.87 240.09L226.4 240.09L226.4 247.84ZM226.4 239.45L219.87 239.45L219.87 231.67L226.4 231.67L226.4 239.45ZM226.4 231.05L219.87 231.05L219.87 223.29L226.4 223.29L226.4 231.05ZM226.4 222.65L219.87 222.65L219.87 214.88L226.4 214.88L226.4 222.65ZM226.4 214.26L219.87 214.26L219.87 206.5L226.4 206.5L226.4 214.26ZM233.56 264.64L227.03 264.64L227.03 256.88L233.56 256.88L233.56 264.64ZM233.56 256.24L227.03 256.24L227.03 248.47L233.56 248.47L233.56 256.24ZM233.56 247.84L227.03 247.84L227.03 240.09L233.56 240.09L233.56 247.84ZM233.56 239.45L227.03 239.45L227.03 231.67L233.56 231.67L233.56 239.45ZM233.56 231.05L227.03 231.05L227.03 223.29L233.56 223.29L233.56 231.05ZM233.56 222.65L227.03 222.65L227.03 214.88L233.56 214.88L233.56 222.65ZM233.56 214.26L227.03 214.26L227.03 206.5L233.56 206.5L233.56 214.26ZM233.56 205.86L227.03 205.86L227.03 198.08L233.56 198.08L233.56 205.86ZM233.56 197.46L227.03 197.46L227.03 189.71L233.56 189.71L233.56 197.46ZM240.71 264.64L234.18 264.64L234.18 256.88L240.71 256.88L240.71 264.64ZM240.71 256.24L234.18 256.24L234.18 248.47L240.71 248.47L240.71 256.24ZM240.71 247.84L234.18 247.84L234.18 240.09L240.71 240.09L240.71 247.84ZM240.71 239.45L234.18 239.45L234.18 231.67L240.71 231.67L240.71 239.45ZM240.71 231.05L234.18 231.05L234.18 223.29L240.71 223.29L240.71 231.05ZM240.71 222.65L234.18 222.65L234.18 214.88L240.71 214.88L240.71 222.65ZM240.71 214.26L234.18 214.26L234.18 206.5L240.71 206.5L240.71 214.26ZM240.71 205.86L234.18 205.86L234.18 198.08L240.71 198.08L240.71 205.86ZM247.86 239.45L241.33 239.45L241.33 231.67L247.86 231.67L247.86 239.45ZM247.86 231.05L241.33 231.05L241.33 223.29L247.86 223.29L247.86 231.05ZM247.86 222.65L241.33 222.65L241.33 214.88L247.86 214.88L247.86 222.65ZM247.86 214.26L241.33 214.26L241.33 206.5L247.86 206.5L247.86 214.26ZM247.86 205.86L241.33 205.86L241.33 198.08L247.86 198.08L247.86 205.86Z" fill="#000000" fill-opacity="1.000000" fill-rule="nonzero"/>
			</g>
		</g>
		<path id="Vector" d="M217.07 280.02L244.22 280.02C244.6 275.63 246.94 248.3 248.14 238.5C249.45 227.8 258.06 211.86 258.06 206.16C258.06 200.45 259.81 201.36 251.94 197.21C244.08 193.06 226.74 184.1 224.34 183.01C221.94 181.91 219.31 179.27 219.31 179.27C219.31 179.27 220.18 184.74 219.93 199.58C219.69 214.43 216.45 233.49 216.45 249.42C216.45 263.51 216.94 277.06 217.07 280.02Z" stroke="#263238" stroke-opacity="1.000000" stroke-width="1.000000"/>
		<path id="Vector" d="M219.31 179.33C219.31 179.33 220.18 184.79 219.93 199.64C219.89 203.37 219.63 207.4 219.31 211.56C220.06 210.53 222.47 207.25 223.04 207.07C223.7 206.85 227.19 210.13 230.03 210.56C232.87 211 233.96 211 230.91 207.72C227.85 204.44 226.55 194.84 225.45 187.63C225.24 186.08 224.9 184.56 224.43 183.07L224.36 183.07C221.93 181.96 219.31 179.33 219.31 179.33Z" fill="#263238" fill-opacity="1.000000" fill-rule="nonzero"/>
		<path id="Vector" d="M219.93 199.64C219.89 203.37 219.63 207.4 219.31 211.56C220.06 210.53 222.47 207.25 223.04 207.07C223.7 206.85 227.19 210.13 230.03 210.56C232.87 211 233.96 211 230.91 207.72C227.85 204.44 226.55 194.84 225.45 187.63C225.24 186.08 224.9 184.56 224.43 183.07L224.36 183.07C221.93 181.96 219.31 179.33 219.31 179.33C219.31 179.33 220.18 184.79 219.93 199.64Z" stroke="#263238" stroke-opacity="1.000000" stroke-width="1.000000"/>
		<path id="Vector" d="M237.23 246.88C239.24 245.97 240.82 245.18 240.82 245.18L241.56 250.89C241.56 250.89 230.69 255.67 224.61 256.04C218.54 256.41 217.98 256.6 217.98 256.6L218.16 251.07" stroke="#263238" stroke-opacity="1.000000" stroke-width="1.000000"/>
		<path id="Vector" d="M231.79 249.11C232.9 248.74 234.21 248.21 235.48 247.66" stroke="#263238" stroke-opacity="1.000000" stroke-width="1.000000"/>
		<path id="Vector" d="M220.18 250.52C223.36 250.44 226.53 250.15 229.68 249.65" stroke="#263238" stroke-opacity="1.000000" stroke-width="1.000000"/>
		<path id="Vector" d="M241.56 250.89L241.93 255.31" stroke="#263238" stroke-opacity="1.000000" stroke-width="1.000000"/>
		<path id="Vector" d="M158.23 280.03L188.78 280.03C188.85 277.64 189.73 247.2 190.33 231.67C190.95 215.5 201.92 190.97 201.92 190.97C201.92 190.97 203.39 187.51 201.83 185.95C200.28 184.4 196.55 185.02 193.75 187.2C190.95 189.38 165.14 200.57 163.58 202.13C162.03 203.68 162.34 208.97 161.72 215.19C161.09 221.41 150.83 264.33 150.83 264.33C150.83 264.33 148.03 264.95 147.1 265.57C146.17 266.19 146.17 268.06 146.17 268.06C146.17 268.06 147.41 268.37 151.14 270.24C154.58 271.95 157.74 278.92 158.23 280.03Z" fill="#FFFFFF" fill-opacity="1.000000" fill-rule="nonzero"/>
		<g opacity="0.200000">
			<path id="Vector" d="M197.79 198.08L197.79 201.26C198 200.69 198.21 200.14 198.41 199.6L198.41 198.08L199 198.08L199.24 197.46L198.41 197.46L198.41 189.71L202.33 189.71C202.38 189.51 202.43 189.3 202.46 189.08L198.41 189.08L198.41 185.18C198.21 185.21 198 185.24 197.79 185.29L197.79 189.08L191.26 189.08L191.26 188.66L190.64 188.98L190.64 189.08L190.43 189.08L189.18 189.71L190.64 189.71L190.64 197.48L184.11 197.48L184.11 192.13L183.49 192.42L183.49 197.46L176.95 197.46L176.95 195.48L176.33 195.77L176.33 197.46L172.72 197.46L171.4 198.08L176.33 198.08L176.33 205.88L169.8 205.88L169.8 198.85L169.18 199.15L169.18 205.88L162.65 205.88L162.65 204.31C162.3 206.58 162.09 208.86 162.03 211.15L162.03 214.26L161.8 214.26L161.75 214.88L162.03 214.88L162.03 222.67L160.35 222.67L160.22 223.29L162.03 223.29L162.03 231.07L158.54 231.07C158.49 231.27 158.44 231.49 158.4 231.69L162.03 231.69L162.03 239.47L156.65 239.47C156.6 239.68 156.55 239.88 156.5 240.09L162.03 240.09L162.03 247.86L155.5 247.86L155.5 244.44L154.87 247.13L154.87 247.83L154.71 247.83L154.57 248.45L154.87 248.45L154.87 256.26L152.75 256.26L152.6 256.88L154.87 256.88L154.87 264.66L149.59 264.66C148.96 264.83 148.34 265.03 147.73 265.28L147.73 268.66C147.91 268.74 148.12 268.82 148.35 268.93L148.35 265.28L154.87 265.28L154.87 273.99C155.09 274.3 155.3 274.61 155.5 274.93L155.5 265.28L162.03 265.28L162.03 280.06L162.65 280.06L162.65 265.26L169.18 265.26L169.18 280.03L169.8 280.03L169.8 265.26L176.33 265.26L176.33 280.03L176.95 280.03L176.95 265.26L183.49 265.26L183.49 280.03L184.11 280.03L184.11 265.26L189.21 265.26L189.21 264.64L184.11 264.64L184.11 256.88L189.48 256.88L189.48 256.26L184.11 256.26L184.11 248.48L189.74 248.48L189.74 247.86L184.11 247.86L184.11 240.09L190.02 240.09C190.02 239.88 190.02 239.67 190.02 239.47L184.11 239.47L184.11 231.69L190.33 231.69C190.33 231.49 190.33 231.28 190.36 231.07L184.11 231.07L184.11 223.29L190.64 223.29L190.64 227.89C190.8 226.57 191.01 225.2 191.26 223.82L191.26 223.29L191.36 223.29C191.4 223.09 191.44 222.88 191.48 222.67L191.26 222.67L191.26 214.9L193.34 214.9C193.4 214.69 193.46 214.49 193.52 214.27L191.26 214.27L191.26 206.5L195.93 206.5C196 206.29 196.07 206.08 196.14 205.88L191.26 205.88L191.26 198.1L197.79 198.08ZM191.26 189.71L197.79 189.71L197.79 197.48L191.26 197.48L191.26 189.71ZM162.03 264.66L155.5 264.66L155.5 256.88L162.03 256.88L162.03 264.66ZM162.03 256.26L155.5 256.26L155.5 248.48L162.03 248.48L162.03 256.26ZM169.18 264.66L162.65 264.66L162.65 256.88L169.18 256.88L169.18 264.66ZM169.18 256.26L162.65 256.26L162.65 248.48L169.18 248.48L169.18 256.26ZM169.18 247.86L162.65 247.86L162.65 240.09L169.18 240.09L169.18 247.86ZM169.18 239.47L162.65 239.47L162.65 231.69L169.18 231.69L169.18 239.47ZM169.18 231.07L162.65 231.07L162.65 223.29L169.18 223.29L169.18 231.07ZM169.18 222.67L162.65 222.67L162.65 214.9L169.18 214.9L169.18 222.67ZM169.18 214.27L162.65 214.27L162.65 206.5L169.18 206.5L169.18 214.27ZM176.33 264.66L169.8 264.66L169.8 256.88L176.33 256.88L176.33 264.66ZM176.33 256.26L169.8 256.26L169.8 248.48L176.33 248.48L176.33 256.26ZM176.33 247.86L169.8 247.86L169.8 240.09L176.33 240.09L176.33 247.86ZM176.33 239.47L169.8 239.47L169.8 231.69L176.33 231.69L176.33 239.47ZM176.33 231.07L169.8 231.07L169.8 223.29L176.33 223.29L176.33 231.07ZM176.33 222.67L169.8 222.67L169.8 214.9L176.33 214.9L176.33 222.67ZM176.33 214.27L169.8 214.27L169.8 206.5L176.33 206.5L176.33 214.27ZM183.49 264.66L176.95 264.66L176.95 256.88L183.49 256.88L183.49 264.66ZM183.49 256.26L176.95 256.26L176.95 248.48L183.49 248.48L183.49 256.26ZM183.49 247.86L176.95 247.86L176.95 240.09L183.49 240.09L183.49 247.86ZM183.49 239.47L176.95 239.47L176.95 231.69L183.49 231.69L183.49 239.47ZM183.49 231.07L176.95 231.07L176.95 223.29L183.49 223.29L183.49 231.07ZM183.49 222.67L176.95 222.67L176.95 214.9L183.49 214.9L183.49 222.67ZM183.49 214.27L176.95 214.27L176.95 206.5L183.49 206.5L183.49 214.27ZM183.49 205.88L176.95 205.88L176.95 198.1L183.49 198.1L183.49 205.88ZM190.64 222.67L184.11 222.67L184.11 214.9L190.64 214.9L190.64 222.67ZM190.64 214.27L184.11 214.27L184.11 206.5L190.64 206.5L190.64 214.27ZM190.64 205.88L184.11 205.88L184.11 198.1L190.64 198.1L190.64 205.88Z" fill="#000000" fill-opacity="1.000000" fill-rule="nonzero"/>
		</g>
		<path id="Vector" d="M188.78 280.03C188.85 277.64 189.73 247.2 190.33 231.67C190.95 215.5 201.92 190.97 201.92 190.97C201.92 190.97 203.39 187.51 201.83 185.95C200.28 184.4 196.55 185.02 193.75 187.2C190.95 189.38 165.14 200.57 163.58 202.13C162.03 203.68 162.34 208.97 161.72 215.19C161.09 221.41 150.83 264.33 150.83 264.33C150.83 264.33 148.03 264.95 147.1 265.57C146.17 266.19 146.17 268.06 146.17 268.06C146.17 268.06 147.41 268.37 151.14 270.24C154.58 271.95 157.74 278.92 158.23 280.03L188.78 280.03Z" stroke="#263238" stroke-opacity="1.000000" stroke-width="1.000000"/>
		<path id="Vector" d="M146.17 268.08C146.17 268.08 147.41 268.39 151.14 270.25C154.87 272.12 158.29 280.21 158.29 280.21L164.32 280.21C164.7 279.07 165.63 274.96 161.4 269.94C156.43 264.03 150.83 264.35 150.83 264.35C150.83 264.35 148.03 264.97 147.1 265.59C146.17 266.21 146.17 268.08 146.17 268.08Z" fill="#263238" fill-opacity="1.000000" fill-rule="nonzero"/>
		<path id="Vector" d="M151.14 270.25C154.87 272.12 158.29 280.21 158.29 280.21L164.32 280.21C164.7 279.07 165.63 274.96 161.4 269.94C156.43 264.03 150.83 264.35 150.83 264.35C150.83 264.35 148.03 264.97 147.1 265.59C146.17 266.21 146.17 268.08 146.17 268.08C146.17 268.08 147.41 268.39 151.14 270.25Z" stroke="#263238" stroke-opacity="1.000000" stroke-width="1.000000"/>
		<path id="Vector" d="M198.08 185.21C196.74 188.75 193.57 196.76 190.95 200.57C187.53 205.55 181.31 209.59 183.49 211.46C185.66 213.32 191.88 207.41 191.88 207.41C191.88 207.41 193.44 211.77 193.75 213.01C193.77 213.07 193.79 213.12 193.83 213.17C196.07 205.61 198.77 198.2 201.92 190.97C201.92 190.97 203.38 187.51 201.83 185.95C201.03 185.15 199.66 184.93 198.08 185.21Z" fill="#263238" fill-opacity="1.000000" fill-rule="nonzero"/>
		<path id="Vector" d="M190.95 200.57C187.53 205.55 181.31 209.59 183.49 211.46C185.66 213.32 191.88 207.41 191.88 207.41C191.88 207.41 193.44 211.77 193.75 213.01C193.77 213.07 193.79 213.12 193.83 213.17C196.07 205.61 198.77 198.2 201.92 190.97C201.92 190.97 203.38 187.51 201.83 185.95C201.03 185.15 199.66 184.93 198.08 185.21C196.74 188.75 193.57 196.76 190.95 200.57Z" stroke="#263238" stroke-opacity="1.000000" stroke-width="1.000000"/>
		<path id="Vector" d="M175.36 215.24C175.54 214.09 175.66 212.93 175.71 211.77" stroke="#263238" stroke-opacity="1.000000" stroke-width="1.000000"/>
		<path id="Vector" d="M170.42 280.81C170.42 280.81 171.36 260.91 171.36 249.4C171.36 241.11 173.61 227.16 174.88 218.62" stroke="#263238" stroke-opacity="1.000000" stroke-width="1.000000"/>
		<path id="Vector" d="M171.98 245.06C171.98 245.06 176.95 246.62 179.44 246.93L186.91 247.86L186.34 254.91C186.34 254.91 185.97 254.7 180.38 252.84C174.78 250.97 171.36 249.42 171.36 249.42" stroke="#263238" stroke-opacity="1.000000" stroke-width="1.000000"/>
		<path id="Vector" d="M186.34 254.89C186.34 254.89 185.97 268.7 185.97 270.57C185.97 272.43 180.38 271.19 180.38 271.19" stroke="#263238" stroke-opacity="1.000000" stroke-width="1.000000"/>
		<path id="Vector" d="M190.81 178.65C190.81 178.65 196.67 187.08 201.92 190.97C207.17 194.86 211.65 189.41 215.15 183.58C218.65 177.74 220.99 173.46 222.73 168.41C224.48 163.35 222.73 154.99 215.74 148.38C208.74 141.77 192.39 132.04 188.31 137.1C184.23 142.15 180.34 153.27 183.06 162.77C184.68 168.48 187.3 173.85 190.81 178.65Z" fill="#9E9E9E" fill-opacity="1.000000" fill-rule="nonzero"/>
		<path id="Vector" d="M201.92 190.97C207.17 194.86 211.65 189.41 215.15 183.58C218.65 177.74 220.99 173.46 222.73 168.41C224.48 163.35 222.73 154.99 215.74 148.38C208.74 141.77 192.39 132.04 188.31 137.1C184.23 142.15 180.34 153.27 183.06 162.77C184.68 168.48 187.3 173.85 190.81 178.65C190.81 178.65 196.67 187.08 201.92 190.97Z" stroke="#263238" stroke-opacity="1.000000" stroke-width="1.000000"/>
		<path id="Vector" d="M188.34 160.5C190.55 159.84 192.91 159.84 195.12 160.5" stroke="#263238" stroke-opacity="1.000000" stroke-width="2.000000" stroke-linecap="round"/>
		<path id="Vector" d="M193.36 165.71C193.54 166.72 193.31 167.61 192.83 167.69C192.35 167.78 191.82 167.03 191.63 166.02C191.45 165.01 191.68 164.12 192.16 164.04C192.64 163.95 193.17 164.69 193.36 165.71Z" fill="#263238" fill-opacity="1.000000" fill-rule="nonzero"/>
		<path id="Vector" d="M210.66 165.98C210.84 166.98 210.6 167.84 210.13 167.96C209.66 168.08 209.12 167.3 208.94 166.29C208.75 165.27 208.99 164.39 209.47 164.3C209.95 164.22 210.47 164.96 210.66 165.98Z" fill="#263238" fill-opacity="1.000000" fill-rule="nonzero"/>
		<path id="Vector" d="M197.84 179.69C200.09 180.47 202.47 180.8 204.84 180.66C208.93 180.47 212.43 177.55 212.43 177.55" stroke="#263238" stroke-opacity="1.000000" stroke-width="1.000000"/>
		<path id="Vector" d="M188.92 141.39C188.92 141.39 197.56 161.1 198.64 161.64C199.72 162.18 201.88 155.7 201.88 155.7C201.88 155.7 204.85 161.09 208.37 162.72C211.89 164.34 212.96 161.64 212.96 161.64C214.72 162.63 216.43 163.72 218.09 164.88L219.44 165.96L220.79 170.82C220.79 170.82 216.74 184.05 218.09 185.67C219.44 187.29 226.99 185.13 226.99 185.13C226.99 185.13 225.13 187.83 227.54 187.83C229.94 187.83 234.28 188.37 240.49 180C246.7 171.62 247.24 158.13 247.24 158.13C247.24 158.13 250.21 161.37 250.48 157.32C250.75 153.27 246.97 146.52 246.97 146.52C246.97 146.52 252.91 152.46 252.37 146.25C251.84 140.05 248.32 133.02 246.97 131.41C245.62 129.79 237.52 125.19 237.52 125.19C237.52 125.19 240.76 124.64 238.33 120.86C235.91 117.08 226.99 116 223.75 116C220.51 116 213.76 117.09 213.76 117.09C213.76 117.09 218.09 108.71 213.5 108.17C208.91 107.63 200.81 116.55 200.81 116.55C200.81 116.55 192.72 110.06 190.28 111.41C187.83 112.76 189.47 114.65 189.47 114.65C189.47 114.65 178.95 115.46 175.97 120.05C173 124.64 176.51 127.34 176.51 127.34C176.51 127.34 157.62 140.3 160.58 145.16C163.55 150.02 168.96 145.43 168.96 145.43C168.96 145.43 161.39 164.87 162.47 166.22C163.56 167.57 168.69 165.68 168.69 165.68C168.69 165.68 168.43 181.33 172.48 182.96C176.53 184.58 177.33 181.61 177.33 181.61C177.33 181.61 179.49 183.77 184.36 184.03C189.22 184.3 190.83 178.63 190.83 178.63C190.83 178.63 185.43 165.95 185.71 155.42C185.98 144.9 188.92 141.39 188.92 141.39Z" fill="#263238" fill-opacity="1.000000" fill-rule="nonzero"/>
		<path id="Vector" d="M198.64 161.64C199.72 162.18 201.88 155.7 201.88 155.7C201.88 155.7 204.85 161.09 208.37 162.72C211.89 164.34 212.96 161.64 212.96 161.64C214.72 162.63 216.43 163.72 218.09 164.88L219.44 165.96L220.79 170.82C220.79 170.82 216.74 184.05 218.09 185.67C219.44 187.29 226.99 185.13 226.99 185.13C226.99 185.13 225.13 187.83 227.54 187.83C229.94 187.83 234.28 188.37 240.49 180C246.7 171.62 247.24 158.13 247.24 158.13C247.24 158.13 250.21 161.37 250.48 157.32C250.75 153.27 246.97 146.52 246.97 146.52C246.97 146.52 252.91 152.46 252.37 146.25C251.84 140.05 248.32 133.02 246.97 131.41C245.62 129.79 237.52 125.19 237.52 125.19C237.52 125.19 240.76 124.64 238.33 120.86C235.91 117.08 226.99 116 223.75 116C220.51 116 213.76 117.09 213.76 117.09C213.76 117.09 218.09 108.71 213.5 108.17C208.91 107.63 200.81 116.55 200.81 116.55C200.81 116.55 192.72 110.06 190.28 111.41C187.83 112.76 189.47 114.65 189.47 114.65C189.47 114.65 178.95 115.46 175.97 120.05C173 124.64 176.51 127.34 176.51 127.34C176.51 127.34 157.62 140.3 160.58 145.16C163.55 150.02 168.96 145.43 168.96 145.43C168.96 145.43 161.39 164.87 162.47 166.22C163.56 167.57 168.69 165.68 168.69 165.68C168.69 165.68 168.43 181.33 172.48 182.96C176.53 184.58 177.33 181.61 177.33 181.61C177.33 181.61 179.49 183.77 184.36 184.03C189.22 184.3 190.83 178.63 190.83 178.63C190.83 178.63 185.43 165.95 185.71 155.42C185.98 144.9 188.92 141.39 188.92 141.39C188.92 141.39 197.56 161.1 198.64 161.64Z" stroke="#263238" stroke-opacity="1.000000" stroke-width="1.000000"/>
		<path id="Vector" d="M199.79 164.13C199.79 164.13 197.84 174.24 199.4 176.38C200.95 178.52 206.4 176.38 206.79 175.22" fill="#9E9E9E" fill-opacity="1.000000" fill-rule="nonzero"/>
		<path id="Vector" d="M199.79 164.13C199.79 164.13 197.84 174.24 199.4 176.38C200.95 178.52 206.4 176.38 206.79 175.22" stroke="#263238" stroke-opacity="1.000000" stroke-width="1.000000"/>
		<path id="Vector" d="M191.71 170.35C187.47 170.35 184.03 167.83 184.03 164.71C184.03 161.6 187.47 159.07 191.71 159.07C195.96 159.07 199.4 161.6 199.4 164.71C199.4 167.83 195.96 170.35 191.71 170.35Z" stroke="#263238" stroke-opacity="1.000000" stroke-width="1.000000"/>
		<path id="Vector" d="M210.19 169.97C205.95 169.97 202.51 167.44 202.51 164.33C202.51 161.21 205.95 158.69 210.19 158.69C214.43 158.69 217.87 161.21 217.87 164.33C217.87 167.44 214.43 169.97 210.19 169.97Z" stroke="#263238" stroke-opacity="1.000000" stroke-width="1.000000"/>
		<path id="Vector" d="M199.79 164.13C199.79 164.13 201.34 162.97 202.51 164.33" stroke="#263238" stroke-opacity="1.000000" stroke-width="1.000000"/>
		<path id="Vector" d="M135.78 271.75C135.78 271.75 145.55 269 148.55 268.5C151.56 268 157.57 273.51 158.57 276.51C159.58 279.52 158.29 280.19 158.29 280.19L138.28 279.52L135.78 271.75Z" fill="#9E9E9E" fill-opacity="1.000000" fill-rule="nonzero"/>
		<path id="Vector" d="M148.55 268.5C151.56 268 157.57 273.51 158.57 276.51C159.58 279.52 158.29 280.19 158.29 280.19L138.28 279.52L135.78 271.75C135.78 271.75 145.55 269 148.55 268.5Z" stroke="#263238" stroke-opacity="1.000000" stroke-width="1.000000"/>
		<path id="Vector" d="M139.32 270.78C139.32 270.78 146.69 273.54 148.53 274.65C150.38 275.76 149.82 277.97 148.72 279.07C147.39 280.18 145.81 280.94 144.11 281.28C142.39 281.38 140.67 281.38 138.96 281.28C136.75 281.1 134.72 281.47 132.88 281.47C131.04 281.47 125.51 280.92 125.51 280.92L123.85 279.81C123.85 279.81 120.74 280.73 118.32 281.67C115.91 282.62 116.66 280.57 118.51 279.09C120.35 277.62 124.96 273.94 125.7 273.57C126.44 273.2 135.83 270.46 135.83 270.46L139.32 270.78Z" fill="#9E9E9E" fill-opacity="1.000000" fill-rule="nonzero"/>
		<path id="Vector" d="M148.53 274.65C150.38 275.76 149.82 277.97 148.72 279.07C147.39 280.18 145.81 280.94 144.11 281.28C142.39 281.38 140.67 281.38 138.96 281.28C136.75 281.1 134.72 281.47 132.88 281.47C131.04 281.47 125.51 280.92 125.51 280.92L123.85 279.81C123.85 279.81 120.74 280.73 118.32 281.67C115.91 282.62 116.66 280.57 118.51 279.09C120.35 277.62 124.96 273.94 125.7 273.57C126.44 273.2 135.83 270.46 135.83 270.46L139.32 270.78C139.32 270.78 146.69 273.54 148.53 274.65Z" stroke="#263238" stroke-opacity="1.000000" stroke-width="1.000000"/>
		<path id="Vector" d="M142.09 271.52C142.09 271.52 137.29 269.31 136 269.31C134.71 269.31 125.5 272.42 124.22 273.36C122.93 274.3 121.63 283.12 122.55 283.68C123.47 284.23 124.22 282.57 124.42 281.47C124.63 280.37 127.19 274.47 127.19 274.47L125.32 283.86C125.32 283.86 126.06 285.33 126.8 284.04C127.53 282.76 132.14 273.91 132.51 273.36C132.99 272.84 133.55 272.41 134.17 272.07C134.17 272.07 133.25 276.13 132.51 280C131.77 283.86 132.33 284.97 133.43 285.15C134.54 285.33 135.09 282.76 135.64 281.47C136.19 280.18 138.59 272.8 138.59 272.8" fill="#9E9E9E" fill-opacity="1.000000" fill-rule="nonzero"/>
		<path id="Vector" d="M142.09 271.52C142.09 271.52 137.29 269.31 136 269.31C134.71 269.31 125.5 272.42 124.22 273.36C122.93 274.3 121.63 283.12 122.55 283.68C123.47 284.23 124.22 282.57 124.42 281.47C124.63 280.37 127.19 274.47 127.19 274.47L125.32 283.86C125.32 283.86 126.06 285.33 126.8 284.04C127.53 282.76 132.14 273.91 132.51 273.36C132.99 272.84 133.55 272.41 134.17 272.07C134.17 272.07 133.25 276.13 132.51 280C131.77 283.86 132.33 284.97 133.43 285.15C134.54 285.33 135.09 282.76 135.64 281.47C136.19 280.18 138.59 272.8 138.59 272.8" stroke="#263238" stroke-opacity="1.000000" stroke-width="1.000000"/>
		<path id="Vector" d="M147.41 275.21C147.41 275.21 141.89 280.92 141.14 282.2C140.41 283.49 140.41 283.68 142.44 283.68C144.47 283.68 150.73 279.62 151.28 279.07C151.83 278.51 151.65 276.86 150.36 275.75C149.95 275.43 149.46 275.22 148.95 275.12C148.44 275.03 147.91 275.05 147.41 275.21Z" fill="#9E9E9E" fill-opacity="1.000000" fill-rule="nonzero"/>
		<path id="Vector" d="M141.14 282.2C140.41 283.49 140.41 283.68 142.44 283.68C144.47 283.68 150.73 279.62 151.28 279.07C151.83 278.51 151.65 276.86 150.36 275.75C149.95 275.43 149.46 275.22 148.95 275.12C148.44 275.03 147.91 275.05 147.41 275.21C147.41 275.21 141.89 280.92 141.14 282.2Z" stroke="#263238" stroke-opacity="1.000000" stroke-width="1.000000"/>
		<path id="Vector" d="M181.91 274.57C181.91 274.57 174.54 276.95 172.72 278.3C170.91 279.65 168.3 281.14 168.87 281.59C169.43 282.05 171.25 281.59 171.82 281.14C172.38 280.69 174.99 280.23 174.99 280.23C174.99 280.23 178.05 278.42 180.43 276.95C182.81 275.48 184.62 273.89 181.91 274.57Z" fill="#9E9E9E" fill-opacity="1.000000" fill-rule="nonzero"/>
		<path id="Vector" d="M172.72 278.3C170.91 279.65 168.3 281.14 168.87 281.59C169.43 282.05 171.25 281.59 171.82 281.14C172.38 280.69 174.99 280.23 174.99 280.23C174.99 280.23 178.05 278.42 180.43 276.95C182.81 275.48 184.62 273.89 181.91 274.57C181.91 274.57 174.54 276.95 172.72 278.3Z" stroke="#263238" stroke-opacity="1.000000" stroke-width="1.000000"/>
		<path id="Vector" d="M222.59 262.09C222.59 262.09 202.06 265.82 194.64 268.43C187.21 271.04 184.26 272.85 180.54 275.48C176.83 278.1 169.3 283.06 170.42 283.93C171.54 284.8 175.44 281.75 176.1 281.1C176.76 280.44 181.56 278.48 181.56 278.48L184.77 276.84C184.77 276.84 179.93 282.79 178.19 284.3C176.45 285.81 177.63 286.76 178.94 286.32C180.25 285.89 182.73 283.28 182.73 283.28L190.71 278.03C190.71 278.03 187.43 282.62 185.9 283.93C184.37 285.23 187.65 286.33 188.31 285.24C188.97 284.14 192.24 281.31 192.24 281.31C192.24 281.31 197.69 278.47 199 277.38C200.32 276.28 203.59 273.23 203.59 273.23L228.05 275.19C228.05 275.19 229.58 274.32 228.7 269.3C227.83 264.27 222.59 262.09 222.59 262.09Z" fill="#9E9E9E" fill-opacity="1.000000" fill-rule="nonzero"/>
		<path id="Vector" d="M194.64 268.43C187.21 271.04 184.26 272.85 180.54 275.48C176.83 278.1 169.3 283.06 170.42 283.93C171.54 284.8 175.44 281.75 176.1 281.1C176.76 280.44 181.56 278.48 181.56 278.48L184.77 276.84C184.77 276.84 179.93 282.79 178.19 284.3C176.45 285.81 177.63 286.76 178.94 286.32C180.25 285.89 182.73 283.28 182.73 283.28L190.71 278.03C190.71 278.03 187.43 282.62 185.9 283.93C184.37 285.23 187.65 286.33 188.31 285.24C188.97 284.14 192.24 281.31 192.24 281.31C192.24 281.31 197.69 278.47 199 277.38C200.32 276.28 203.59 273.23 203.59 273.23L228.05 275.19C228.05 275.19 229.58 274.32 228.7 269.3C227.83 264.27 222.59 262.09 222.59 262.09C222.59 262.09 202.06 265.82 194.64 268.43Z" stroke="#263238" stroke-opacity="1.000000" stroke-width="1.000000"/>
		<path id="Vector" d="M239.19 223.44L251.2 253.15L231.76 259.92L237.22 275.86C237.22 275.86 251.18 275.9 262.1 275.24C273.02 274.58 280.69 267.99 278.94 260.13C277.19 252.28 270.64 240.91 265.4 227.37C260.15 213.83 261.78 205.76 259.38 201.61C256.97 197.46 250.2 196.37 250.2 196.37L246.47 195.75L239.19 223.44Z" fill="#FFFFFF" fill-opacity="1.000000" fill-rule="nonzero"/>
		<g opacity="0.200000">
			<path id="Vector" d="M277.1 268.39L277.1 265.28L278.72 265.28C278.79 265.08 278.84 264.87 278.89 264.66L277.1 264.66L277.1 256.88L278.03 256.88C277.96 256.68 277.89 256.47 277.82 256.26L277.1 256.26L277.1 254.36C276.9 253.85 276.69 253.32 276.47 252.79L276.47 256.26L269.94 256.26L269.94 248.48L274.63 248.48C274.54 248.28 274.45 248.07 274.36 247.86L269.94 247.86L269.94 240.09L270.81 240.09C270.71 239.88 270.62 239.68 270.53 239.47L269.94 239.47L269.94 238.17C269.74 237.71 269.53 237.25 269.32 236.78L269.32 239.47L262.79 239.47L262.79 231.69L267.14 231.69C267.06 231.49 266.97 231.28 266.89 231.07L262.79 231.07L262.79 223.29L263.95 223.29C263.89 223.09 263.82 222.88 263.76 222.67L262.79 222.67L262.79 219.13C262.55 218.14 262.35 217.2 262.17 216.3L262.17 222.67L255.64 222.67L255.64 214.9L261.91 214.9L261.79 214.27L255.64 214.27L255.64 206.5L260.74 206.5L260.65 205.88L255.64 205.88L255.64 198.25C255.09 197.96 254.53 197.7 253.96 197.46L248.48 197.46L248.48 196.07L247.86 195.96L247.86 197.46L246.03 197.46L245.86 198.08L247.86 198.08L247.86 205.88L243.82 205.88L243.66 206.5L247.87 206.5L247.87 214.27L241.6 214.27L241.44 214.9L247.86 214.9L247.86 222.67L241.33 222.67L241.33 215.29L240.71 217.65L240.71 222.63L239.39 222.63L239.23 223.25L240.71 223.25L240.71 227.19L241.33 228.72L241.33 223.29L247.86 223.29L247.86 231.07L242.26 231.07L242.51 231.69L247.86 231.69L247.86 239.47L245.69 239.47L245.94 240.09L247.89 240.09L247.89 244.92L248.52 246.46L248.52 240.09L255.02 240.09L255.02 247.86L249.05 247.86L249.31 248.48L255.02 248.48L255.02 256.26L248.48 256.26L248.48 254.11L247.86 254.33L247.86 256.26L242.3 256.26L240.51 256.88L240.71 256.88L240.71 264.66L234.18 264.66L234.18 259.06L233.56 259.28L233.56 264.63L233.38 264.63L234.18 266.96L234.18 265.25L240.71 265.25L240.71 275.82L241.33 275.82L241.33 265.25L247.86 265.25L247.86 275.74L248.48 275.74L248.48 265.26L255.02 265.26L255.02 275.54L255.64 275.54L255.64 265.26L262.17 265.26L262.17 275.21L262.79 275.16L262.79 265.26L269.32 265.26L269.32 273.79L269.94 273.56L269.94 265.26L276.47 265.26L276.47 269.17C276.69 268.91 276.9 268.66 277.1 268.39ZM247.86 264.66L241.33 264.66L241.33 256.88L247.86 256.88L247.86 264.66ZM255.02 264.66L248.48 264.66L248.48 256.88L255.02 256.88L255.02 264.66ZM255.02 239.47L248.48 239.47L248.48 231.7L255.02 231.7L255.02 239.47ZM255.02 231.07L248.48 231.07L248.48 223.29L255.02 223.29L255.02 231.07ZM255.02 222.68L248.48 222.68L248.48 214.9L255.02 214.9L255.02 222.68ZM255.02 214.28L248.48 214.28L248.48 206.5L255.02 206.5L255.02 214.28ZM255.02 205.88L248.48 205.88L248.48 198.11L255.02 198.11L255.02 205.88ZM262.17 264.66L255.64 264.66L255.64 256.88L262.17 256.88L262.17 264.66ZM262.17 256.26L255.64 256.26L255.64 248.49L262.17 248.49L262.17 256.26ZM262.17 247.87L255.64 247.87L255.64 240.09L262.17 240.09L262.17 247.87ZM262.17 239.47L255.64 239.47L255.64 231.7L262.17 231.7L262.17 239.47ZM262.17 231.07L255.64 231.07L255.64 223.29L262.17 223.29L262.17 231.07ZM269.32 264.66L262.79 264.66L262.79 256.88L269.32 256.88L269.32 264.66ZM269.32 256.26L262.79 256.26L262.79 248.49L269.32 248.49L269.32 256.26ZM269.32 247.87L262.79 247.87L262.79 240.09L269.32 240.09L269.32 247.87ZM269.94 264.66L269.94 256.88L276.47 256.88L276.47 264.66L269.94 264.66Z" fill="#263238" fill-opacity="1.000000" fill-rule="nonzero"/>
		</g>
		<path id="Vector" d="M239.19 223.44L251.2 253.15L231.76 259.92L237.22 275.86C237.22 275.86 251.18 275.9 262.1 275.24C273.02 274.58 280.69 267.99 278.94 260.13C277.19 252.28 270.64 240.91 265.4 227.37C260.15 213.83 261.78 205.76 259.38 201.61C256.97 197.46 250.2 196.37 250.2 196.37L246.47 195.75" stroke="#263238" stroke-opacity="1.000000" stroke-width="1.000000"/>
		<path id="Vector" d="M262.89 250.13C258.93 250.86 255.02 251.87 251.2 253.14C251.2 253.14 259.49 247.68 264.08 247.25" stroke="#263238" stroke-opacity="1.000000" stroke-width="1.000000"/>
		<path id="Vector" d="M268.45 249.87C267.59 249.74 266.72 249.71 265.85 249.78" stroke="#263238" stroke-opacity="1.000000" stroke-width="1.000000"/>
		<path id="Vector" d="M237.44 257.5C237.44 257.5 241.85 261.73 243.16 265C244.47 268.27 243.99 277.16 243.12 278.03C242.25 278.9 225.99 278.79 223.32 275.45C222.62 274.58 227.39 272.57 224.99 267.77C222.59 262.96 221.5 262.53 221.5 262.53C221.5 262.53 219.53 261.43 223.24 259.03C226.96 256.63 235.47 254.89 237.44 257.5Z" fill="#263238" fill-opacity="1.000000" fill-rule="nonzero"/>
		<path id="Vector" d="M243.16 265C244.47 268.27 243.99 277.16 243.12 278.03C242.25 278.9 225.99 278.79 223.32 275.45C222.62 274.58 227.39 272.57 224.99 267.77C222.59 262.96 221.5 262.53 221.5 262.53C221.5 262.53 219.53 261.43 223.24 259.03C226.96 256.63 235.47 254.89 237.44 257.5C237.44 257.5 241.85 261.73 243.16 265Z" stroke="#263238" stroke-opacity="1.000000" stroke-width="1.000000"/>
		<path id="Vector" d="M276.16 291.18L260.04 291.18L258.02 259.31L278.17 259.31L276.16 291.18Z" fill="#263238" fill-opacity="1.000000" fill-rule="nonzero"/>
		<path id="Vector" d="M260.04 291.18L258.02 259.31L278.17 259.31L276.16 291.18L260.04 291.18Z" stroke="#263238" stroke-opacity="1.000000" stroke-width="1.000000" stroke-linejoin="round"/>
		<path id="Vector" d="M279.07 259.36L257.13 259.36L257.13 264L279.07 264L279.07 259.36Z" fill="#FFFFFF" fill-opacity="1.000000" fill-rule="nonzero"/>
		<path id="Vector" d="M279.07 259.36L279.07 264L257.13 264L257.13 259.36L279.07 259.36Z" stroke="#263238" stroke-opacity="1.000000" stroke-width="1.000000" stroke-linejoin="round"/>
		<path id="Vector" d="M279.07 259.53L257.13 259.53L259.32 256.78L276.87 256.78L279.07 259.53Z" fill="#FFFFFF" fill-opacity="1.000000" fill-rule="nonzero"/>
		<path id="Vector" d="M257.13 259.53L259.32 256.78L276.87 256.78L279.07 259.53L257.13 259.53Z" stroke="#263238" stroke-opacity="1.000000" stroke-width="1.000000" stroke-linejoin="round"/>
		<path id="Vector" d="M276.75 281.83L277.55 269.14L258.64 269.14L259.44 281.83L276.75 281.83Z" fill="#FFFFFF" fill-opacity="1.000000" fill-rule="nonzero"/>
		<path id="Vector" d="M277.55 269.14L258.64 269.14L259.44 281.83L276.75 281.83L277.55 269.14Z" stroke="#263238" stroke-opacity="1.000000" stroke-width="1.000000" stroke-linejoin="round"/>
		<path id="Vector" d="M183.25 293.3L203.12 288.05L203.12 290.74L183.25 296.3L183.25 293.3Z" fill="#263238" fill-opacity="1.000000" fill-rule="nonzero"/>
		<path id="Vector" d="M203.12 288.05L203.12 290.74L183.25 296.3L183.25 293.3L203.12 288.05Z" stroke="#263238" stroke-opacity="1.000000" stroke-width="1.000000" stroke-linejoin="round"/>
		<path id="Vector" d="M203.12 288.05L99.25 288.05L79.17 293.3L183.25 293.3L203.12 288.05Z" fill="#FFFFFF" fill-opacity="1.000000" fill-rule="nonzero"/>
		<path id="Vector" d="M99.25 288.05L79.17 293.3L183.25 293.3L203.12 288.05L99.25 288.05Z" stroke="#263238" stroke-opacity="1.000000" stroke-width="1.000000" stroke-linejoin="round"/>
		<path id="Vector" d="M183.25 233.28L79.17 233.28L79.17 296.3L183.25 296.3L183.25 233.28Z" fill="#FFFFFF" fill-opacity="1.000000" fill-rule="nonzero"/>
		<path id="Vector" d="M183.25 233.28L183.25 296.3L79.17 296.3L79.17 233.28L183.25 233.28Z" stroke="#263238" stroke-opacity="1.000000" stroke-width="1.000000" stroke-linejoin="round"/>
		<path id="Vector" d="M183.25 242.39C160.61 243.47 147.12 264.34 127.09 278.32C108.83 291.07 86.27 293.25 79.19 293.59L79.19 296.3L183.25 296.3L183.25 242.39Z" fill="#263238" fill-opacity="1.000000" fill-rule="nonzero"/>
		<path id="Vector" d="M127.09 278.32C108.83 291.07 86.27 293.25 79.19 293.59L79.19 296.3L183.25 296.3L183.25 242.39C160.61 243.47 147.12 264.34 127.09 278.32Z" stroke="#263238" stroke-opacity="1.000000" stroke-width="1.000000" stroke-linejoin="round"/>
		<path id="Vector" d="M183.25 293.3L79.17 293.3L79.17 296.3L183.25 296.3L183.25 293.3Z" fill="#FFFFFF" fill-opacity="1.000000" fill-rule="nonzero"/>
		<path id="Vector" d="M183.25 293.3L183.25 296.3L79.17 296.3L79.17 293.3L183.25 293.3Z" stroke="#263238" stroke-opacity="1.000000" stroke-width="1.000000"/>
		<path id="Vector" d="M48.36 272.51C48.36 272.51 39.68 258.64 46.64 250.83C53.61 243.02 64.85 246.78 67.17 254.01C69.49 261.24 64.57 273.38 64.57 273.38L48.36 272.51Z" fill="#FFFFFF" fill-opacity="1.000000" fill-rule="nonzero"/>
		<path id="Vector" d="M46.64 250.83C53.61 243.02 64.85 246.78 67.17 254.01C69.49 261.24 64.57 273.38 64.57 273.38L48.36 272.51C48.36 272.51 39.68 258.64 46.64 250.83Z" stroke="#263238" stroke-opacity="1.000000" stroke-width="1.000000" stroke-linejoin="round"/>
		<path id="Vector" d="M48.64 256.61C47.2 256.61 41.71 254.59 39.97 251.99C38.24 249.39 37.94 243.6 42.86 243.6C47.79 243.6 49.51 252.27 49.51 252.27L49.8 255.45M48.62 256.13L48.64 256.11C48.92 256.11 49.14 256.33 49.14 256.61C49.14 256.89 48.92 257.11 48.64 257.11L48.62 257.09L48.62 256.13ZM50.27 255.39L50.3 255.41C50.32 255.68 50.12 255.92 49.84 255.95C49.56 255.97 49.33 255.77 49.3 255.5L49.32 255.47L50.27 255.39Z" fill="#FFFFFF" fill-opacity="1.000000" fill-rule="nonzero"/>
		<path id="Vector" d="M48.64 256.61C47.2 256.61 41.71 254.59 39.97 251.99C38.24 249.39 37.94 243.6 42.86 243.6C47.79 243.6 49.51 252.27 49.51 252.27L49.8 255.45" stroke="#263238" stroke-opacity="1.000000" stroke-width="1.000000" stroke-linejoin="round" stroke-linecap="round"/>
		<path id="Vector" d="M53.09 251.21C51.8 250.59 47.78 246.31 47.39 243.2C47 240.1 49.33 234.8 53.72 236.98C58.12 239.17 55.8 247.71 55.8 247.71L54.64 250.69M53.28 250.77L53.31 250.76C53.56 250.88 53.66 251.17 53.54 251.43C53.42 251.68 53.12 251.78 52.87 251.66L52.86 251.63L53.28 250.77ZM55.09 250.84L55.1 250.87C55 251.13 54.72 251.25 54.46 251.15C54.2 251.05 54.07 250.77 54.17 250.5L54.2 250.49L55.09 250.84Z" fill="#FFFFFF" fill-opacity="1.000000" fill-rule="nonzero"/>
		<path id="Vector" d="M53.09 251.21C51.8 250.59 47.78 246.31 47.39 243.2C47 240.1 49.33 234.8 53.72 236.98C58.12 239.17 55.8 247.71 55.8 247.71L54.64 250.69" stroke="#263238" stroke-opacity="1.000000" stroke-width="1.000000" stroke-linejoin="round" stroke-linecap="round"/>
		<path id="Vector" d="M58.34 252.66C57.62 251.42 56.65 245.64 58.04 242.84C59.43 240.04 64.31 236.92 66.75 241.19C69.19 245.46 62.52 251.26 62.52 251.26L59.91 253.09M58.74 252.41L58.77 252.41C58.91 252.66 58.83 252.96 58.59 253.1C58.35 253.24 58.05 253.16 57.91 252.91L57.91 252.89L58.74 252.41ZM60.2 253.48L60.19 253.5C59.96 253.66 59.66 253.61 59.5 253.38C59.34 253.15 59.39 252.84 59.62 252.68L59.65 252.69L60.2 253.48Z" fill="#FFFFFF" fill-opacity="1.000000" fill-rule="nonzero"/>
		<path id="Vector" d="M58.34 252.66C57.62 251.42 56.65 245.64 58.04 242.84C59.43 240.04 64.31 236.92 66.75 241.19C69.19 245.46 62.52 251.26 62.52 251.26L59.91 253.09" stroke="#263238" stroke-opacity="1.000000" stroke-width="1.000000" stroke-linejoin="round" stroke-linecap="round"/>
		<path id="Vector" d="M60.06 263.03C59.83 261.6 60.91 255.85 63.17 253.7C65.44 251.54 71.1 250.31 71.92 255.15C72.73 260 64.45 263.15 64.45 263.15L61.34 263.96M60.53 262.93L60.56 262.95C60.6 263.22 60.42 263.47 60.14 263.52C59.87 263.57 59.61 263.38 59.57 263.11L59.58 263.09L60.53 262.93ZM61.48 264.42L61.47 264.44C61.2 264.51 60.93 264.36 60.86 264.09C60.79 263.81 60.95 263.55 61.22 263.48L61.24 263.49L61.48 264.42Z" fill="#FFFFFF" fill-opacity="1.000000" fill-rule="nonzero"/>
		<path id="Vector" d="M60.06 263.03C59.83 261.6 60.91 255.85 63.17 253.7C65.44 251.54 71.1 250.31 71.92 255.15C72.73 260 64.45 263.15 64.45 263.15L61.34 263.96" stroke="#263238" stroke-opacity="1.000000" stroke-width="1.000000" stroke-linejoin="round" stroke-linecap="round"/>
		<path id="Vector" d="M40.61 248.5L41.58 250.03" stroke="#FFFFFF" stroke-opacity="1.000000" stroke-width="1.000000" stroke-linejoin="round" stroke-linecap="round"/>
		<path id="Vector" d="M43.4 252.27L44.93 253.52" stroke="#FFFFFF" stroke-opacity="1.000000" stroke-width="1.000000" stroke-linejoin="round" stroke-linecap="round"/>
		<path id="Vector" d="M41.73 245.57L43.26 247.8" stroke="#FFFFFF" stroke-opacity="1.000000" stroke-width="1.000000" stroke-linejoin="round" stroke-linecap="round"/>
		<path id="Vector" d="M45.35 249.62L47.02 252.68" stroke="#FFFFFF" stroke-opacity="1.000000" stroke-width="1.000000" stroke-linejoin="round" stroke-linecap="round"/>
		<path id="Vector" d="M49.25 242.22L49.81 243.89" stroke="#FFFFFF" stroke-opacity="1.000000" stroke-width="1.000000" stroke-linejoin="round" stroke-linecap="round"/>
		<path id="Vector" d="M51.2 246.96L52.18 248.36" stroke="#FFFFFF" stroke-opacity="1.000000" stroke-width="1.000000" stroke-linejoin="round" stroke-linecap="round"/>
		<path id="Vector" d="M50.79 238.87L52.04 241.66" stroke="#FFFFFF" stroke-opacity="1.000000" stroke-width="1.000000" stroke-linejoin="round" stroke-linecap="round"/>
		<path id="Vector" d="M45.91 258.54L46.33 261.05" stroke="#FFFFFF" stroke-opacity="1.000000" stroke-width="1.000000" stroke-linejoin="round" stroke-linecap="round"/>
		<path id="Vector" d="M47.16 263.42L47.72 265.51" stroke="#FFFFFF" stroke-opacity="1.000000" stroke-width="1.000000" stroke-linejoin="round" stroke-linecap="round"/>
		<path id="Vector" d="M48.55 258.68L49.11 261.47" stroke="#FFFFFF" stroke-opacity="1.000000" stroke-width="1.000000" stroke-linejoin="round" stroke-linecap="round"/>
		<path id="Vector" d="M50.37 263.42L50.79 265.51" stroke="#FFFFFF" stroke-opacity="1.000000" stroke-width="1.000000" stroke-linejoin="round" stroke-linecap="round"/>
		<path id="Vector" d="M51.35 255.05L52.18 258.96" stroke="#FFFFFF" stroke-opacity="1.000000" stroke-width="1.000000" stroke-linejoin="round" stroke-linecap="round"/>
		<path id="Vector" d="M53.3 262.72L53.44 264.54" stroke="#FFFFFF" stroke-opacity="1.000000" stroke-width="1.000000" stroke-linejoin="round" stroke-linecap="round"/>
		<path id="Vector" d="M54.83 253.8L55.53 257.42" stroke="#FFFFFF" stroke-opacity="1.000000" stroke-width="1.000000" stroke-linejoin="round" stroke-linecap="round"/>
		<path id="Vector" d="M55.53 261.19L55.81 264.95" stroke="#FFFFFF" stroke-opacity="1.000000" stroke-width="1.000000" stroke-linejoin="round" stroke-linecap="round"/>
		<path id="Vector" d="M58.88 255.19L58.88 258.26" stroke="#FFFFFF" stroke-opacity="1.000000" stroke-width="1.000000" stroke-linejoin="round" stroke-linecap="round"/>
		<path id="Vector" d="M58.46 262.17L58.6 264.54" stroke="#FFFFFF" stroke-opacity="1.000000" stroke-width="1.000000" stroke-linejoin="round" stroke-linecap="round"/>
		<path id="Vector" d="M62.36 240.68L61.67 242.36" stroke="#FFFFFF" stroke-opacity="1.000000" stroke-width="1.000000" stroke-linejoin="round" stroke-linecap="round"/>
		<path id="Vector" d="M61.39 244.31L60.69 246.69" stroke="#FFFFFF" stroke-opacity="1.000000" stroke-width="1.000000" stroke-linejoin="round" stroke-linecap="round"/>
		<path id="Vector" d="M65.43 243.89L64.32 246.13" stroke="#FFFFFF" stroke-opacity="1.000000" stroke-width="1.000000" stroke-linejoin="round" stroke-linecap="round"/>
		<path id="Vector" d="M61.95 248.64L60.69 250.03" stroke="#FFFFFF" stroke-opacity="1.000000" stroke-width="1.000000" stroke-linejoin="round" stroke-linecap="round"/>
		<path id="Vector" d="M59.3 243.76L58.88 245.57" stroke="#FFFFFF" stroke-opacity="1.000000" stroke-width="1.000000" stroke-linejoin="round" stroke-linecap="round"/>
		<path id="Vector" d="M65.43 253.8L63.9 256.31" stroke="#FFFFFF" stroke-opacity="1.000000" stroke-width="1.000000" stroke-linejoin="round" stroke-linecap="round"/>
		<path id="Vector" d="M62.92 257.84L62.08 260.07" stroke="#FFFFFF" stroke-opacity="1.000000" stroke-width="1.000000" stroke-linejoin="round" stroke-linecap="round"/>
		<path id="Vector" d="M64.18 261.19L66.69 259.79" stroke="#FFFFFF" stroke-opacity="1.000000" stroke-width="1.000000" stroke-linejoin="round" stroke-linecap="round"/>
		<path id="Vector" d="M68.22 253.8L66.97 255.89" stroke="#FFFFFF" stroke-opacity="1.000000" stroke-width="1.000000" stroke-linejoin="round" stroke-linecap="round"/>
		<path id="Vector" d="M69.48 256.17L67.81 257.42" stroke="#FFFFFF" stroke-opacity="1.000000" stroke-width="1.000000" stroke-linejoin="round" stroke-linecap="round"/>
		<path id="Vector" d="M67.67 267.67L43.96 267.67L43.96 291.38L67.67 291.38L67.67 267.67Z" fill="#263238" fill-opacity="1.000000" fill-rule="nonzero"/>
		<path id="Vector" d="M67.67 267.67L67.67 291.38L43.96 291.38L43.96 267.67L67.67 267.67Z" stroke="#263238" stroke-opacity="1.000000" stroke-width="1.000000" stroke-linejoin="round"/>
	</g>
</svg>
