<svg width="340.000000" height="340.000000" viewBox="0 0 340 340" fill="none" xmlns="http://www.w3.org/2000/svg" xmlns:xlink="http://www.w3.org/1999/xlink">
	<desc>
			Created with Pixso.
	</desc>
	<defs>
		<clipPath id="clip580_1530">
			<rect id="Webinar-bro 2" width="340.000000" height="340.000000" fill="white" fill-opacity="0"/>
		</clipPath>
	</defs>
	<rect id="Webinar-bro 2" width="340.000000" height="340.000000" fill="#FFFFFF" fill-opacity="0"/>
	<g clip-path="url(#clip580_1530)">
		<path id="Vector" d="M324.81 156.97C321.25 139.54 314.99 122.52 307.55 106.88C294.73 79.9 273.72 57.5 246.84 44.2C180.88 11.56 133.28 25.15 107.44 51.67C81.6 78.19 89.08 123.76 61.2 143.48C33.32 163.2 13.6 172.04 12.24 208.08C10.88 244.12 28.56 271.32 57.12 280.16C85.68 289 128.52 317.56 214.2 301.24C299.88 284.92 320.96 239.36 326.4 206.72C329.12 190.29 328.18 173.44 324.81 156.97Z" fill="#CBCBCB" fill-opacity="1.000000" fill-rule="nonzero"/>
		<g opacity="0.700000">
			<path id="Vector" d="M324.81 156.97C321.25 139.54 314.99 122.52 307.55 106.88C294.73 79.9 273.72 57.5 246.84 44.2C180.88 11.56 133.28 25.15 107.44 51.67C81.6 78.19 89.08 123.76 61.2 143.48C33.32 163.2 13.6 172.04 12.24 208.08C10.88 244.12 28.56 271.32 57.12 280.16C85.68 289 128.52 317.56 214.2 301.24C299.88 284.92 320.96 239.36 326.4 206.72C329.12 190.29 328.18 173.44 324.81 156.97Z" fill="#FFFFFF" fill-opacity="1.000000" fill-rule="nonzero"/>
		</g>
		<path id="Vector" d="M123.97 57.47L117.81 57.47L117.81 84.77L123.97 84.77L123.97 57.47Z" fill="#C9C9C9" fill-opacity="1.000000" fill-rule="nonzero"/>
		<path id="Vector" d="M123.97 57.47L123.97 84.77L117.81 84.77L117.81 57.47L123.97 57.47Z" stroke="#263238" stroke-opacity="1.000000" stroke-width="1.000000" stroke-linejoin="round"/>
		<path id="Vector" d="M123.97 61.58L117.81 61.58L117.81 64.24L123.97 64.24L123.97 61.58Z" fill="#FFFFFF" fill-opacity="1.000000" fill-rule="nonzero"/>
		<path id="Vector" d="M123.97 61.58L123.97 64.24L117.81 64.24L117.81 61.58L123.97 61.58Z" stroke="#263238" stroke-opacity="1.000000" stroke-width="1.000000" stroke-linejoin="round"/>
		<path id="Vector" d="M123.97 78.51L117.81 78.51L117.81 81.18L123.97 81.18L123.97 78.51Z" fill="#FFFFFF" fill-opacity="1.000000" fill-rule="nonzero"/>
		<path id="Vector" d="M123.97 78.51L123.97 81.18L117.81 81.18L117.81 78.51L123.97 78.51Z" stroke="#263238" stroke-opacity="1.000000" stroke-width="1.000000" stroke-linejoin="round"/>
		<path id="Vector" d="M131.16 57.47L122.54 57.47L122.54 84.77L131.16 84.77L131.16 57.47Z" fill="#878787" fill-opacity="1.000000" fill-rule="nonzero"/>
		<path id="Vector" d="M131.16 57.47L131.16 84.77L122.54 84.77L122.54 57.47L131.16 57.47Z" stroke="#263238" stroke-opacity="1.000000" stroke-width="1.000000" stroke-linejoin="round"/>
		<path id="Vector" d="M130.55 57.47L124.39 57.47L124.39 84.77L130.55 84.77L130.55 57.47Z" fill="#C9C9C9" fill-opacity="1.000000" fill-rule="nonzero"/>
		<path id="Vector" d="M130.55 57.47L130.55 84.77L124.39 84.77L124.39 57.47L130.55 57.47Z" stroke="#263238" stroke-opacity="1.000000" stroke-width="1.000000" stroke-linejoin="round"/>
		<path id="Vector" d="M130.55 61.58L124.39 61.58L124.39 64.24L130.55 64.24L130.55 61.58Z" fill="#FFFFFF" fill-opacity="1.000000" fill-rule="nonzero"/>
		<path id="Vector" d="M130.55 61.58L130.55 64.24L124.39 64.24L124.39 61.58L130.55 61.58Z" stroke="#263238" stroke-opacity="1.000000" stroke-width="1.000000" stroke-linejoin="round"/>
		<path id="Vector" d="M130.55 78.51L124.39 78.51L124.39 81.18L130.55 81.18L130.55 78.51Z" fill="#FFFFFF" fill-opacity="1.000000" fill-rule="nonzero"/>
		<path id="Vector" d="M130.55 78.51L130.55 81.18L124.39 81.18L124.39 78.51L130.55 78.51Z" stroke="#263238" stroke-opacity="1.000000" stroke-width="1.000000" stroke-linejoin="round"/>
		<path id="Vector" d="M137.73 57.47L129.11 57.47L129.11 84.77L137.73 84.77L137.73 57.47Z" fill="#878787" fill-opacity="1.000000" fill-rule="nonzero"/>
		<path id="Vector" d="M137.73 57.47L137.73 84.77L129.11 84.77L129.11 57.47L137.73 57.47Z" stroke="#263238" stroke-opacity="1.000000" stroke-width="1.000000" stroke-linejoin="round"/>
		<path id="Vector" d="M137.12 57.47L130.96 57.47L130.96 84.77L137.12 84.77L137.12 57.47Z" fill="#C9C9C9" fill-opacity="1.000000" fill-rule="nonzero"/>
		<path id="Vector" d="M137.12 57.47L137.12 84.77L130.96 84.77L130.96 57.47L137.12 57.47Z" stroke="#263238" stroke-opacity="1.000000" stroke-width="1.000000" stroke-linejoin="round"/>
		<path id="Vector" d="M137.12 61.58L130.96 61.58L130.96 64.24L137.12 64.24L137.12 61.58Z" fill="#FFFFFF" fill-opacity="1.000000" fill-rule="nonzero"/>
		<path id="Vector" d="M137.12 61.58L137.12 64.24L130.96 64.24L130.96 61.58L137.12 61.58Z" stroke="#263238" stroke-opacity="1.000000" stroke-width="1.000000" stroke-linejoin="round"/>
		<path id="Vector" d="M137.12 78.51L130.96 78.51L130.96 81.18L137.12 81.18L137.12 78.51Z" fill="#FFFFFF" fill-opacity="1.000000" fill-rule="nonzero"/>
		<path id="Vector" d="M137.12 78.51L137.12 81.18L130.96 81.18L130.96 78.51L137.12 78.51Z" stroke="#263238" stroke-opacity="1.000000" stroke-width="1.000000" stroke-linejoin="round"/>
		<path id="Vector" d="M144.3 57.47L135.68 57.47L135.68 84.77L144.3 84.77L144.3 57.47Z" fill="#C9C9C9" fill-opacity="1.000000" fill-rule="nonzero"/>
		<path id="Vector" d="M144.3 57.47L144.3 84.77L135.68 84.77L135.68 57.47L144.3 57.47Z" stroke="#263238" stroke-opacity="1.000000" stroke-width="1.000000" stroke-linejoin="round"/>
		<path id="Vector" d="M149.92 85.05L164.39 85.05L168.23 81.57L149.92 81.57L149.92 85.05Z" fill="#FFFFFF" fill-opacity="1.000000" fill-rule="nonzero"/>
		<path id="Vector" d="M164.39 85.05L168.23 81.57L149.92 81.57L149.92 85.05L164.39 85.05Z" stroke="#263238" stroke-opacity="1.000000" stroke-width="1.000000" stroke-linejoin="round"/>
		<path id="Vector" d="M166.6 85.23L166.13 84.43L149.62 84.4L150.09 85.23L166.6 85.23Z" fill="#FFFFFF" fill-opacity="1.000000" fill-rule="nonzero"/>
		<path id="Vector" d="M166.13 84.43L149.62 84.4L150.09 85.23L166.6 85.23L166.13 84.43Z" stroke="#263238" stroke-opacity="1.000000" stroke-width="1.000000" stroke-linejoin="round"/>
		<path id="Vector" d="M141.54 58.04L136.2 61.12L149.87 84.76L155.21 81.67L141.54 58.04Z" fill="#C9C9C9" fill-opacity="1.000000" fill-rule="nonzero"/>
		<path id="Vector" d="M141.54 58.04L155.21 81.67L149.87 84.76L136.2 61.12L141.54 58.04Z" stroke="#263238" stroke-opacity="1.000000" stroke-width="1.000000" stroke-linejoin="round"/>
		<path id="Vector" d="M143.6 61.58L138.26 64.67L139.6 66.97L144.93 63.89L143.6 61.58Z" fill="#FFFFFF" fill-opacity="1.000000" fill-rule="nonzero"/>
		<path id="Vector" d="M143.6 61.58L144.93 63.89L139.6 66.97L138.26 64.67L143.6 61.58Z" stroke="#263238" stroke-opacity="1.000000" stroke-width="1.000000" stroke-linejoin="round"/>
		<path id="Vector" d="M152.08 76.24L146.75 79.33L148.08 81.64L153.41 78.55L152.08 76.24Z" fill="#FFFFFF" fill-opacity="1.000000" fill-rule="nonzero"/>
		<path id="Vector" d="M152.08 76.24L153.41 78.55L148.08 81.64L146.75 79.33L152.08 76.24Z" stroke="#263238" stroke-opacity="1.000000" stroke-width="1.000000" stroke-linejoin="round"/>
		<path id="Vector" d="M168.14 81.81L155.06 81.77L141.39 58.13L154.47 58.17L168.14 81.81Z" fill="#C9C9C9" fill-opacity="1.000000" fill-rule="nonzero"/>
		<path id="Vector" d="M155.06 81.77L141.39 58.13L154.47 58.17L168.14 81.81L155.06 81.77Z" stroke="#263238" stroke-opacity="1.000000" stroke-width="1.000000" stroke-linejoin="round"/>
		<path id="Vector" d="M175.27 71.23C175.27 71.23 172.89 70.37 172.21 66.63C171.53 62.89 170.34 57.62 171.7 56.43C173.06 55.25 175.61 54.57 175.95 56.95C176.29 59.33 175.78 63.91 176.29 64.93C176.8 65.96 178.5 65.28 178.5 63.24C178.5 59.88 177.14 56.43 177.62 53.04C178.3 48.34 183.06 47.82 183.57 53.04C183.85 55.92 183.94 58.86 183.94 61.76C183.94 62.95 185.98 63.63 185.81 60.74C185.68 58.7 187.17 56.32 189.21 57C191.25 57.68 189.55 66.69 188.87 68.22C188.19 69.75 183.94 70.04 183.94 70.04L183.94 73.94L178.84 74.12L178.67 70.21C177.63 70.81 176.46 71.15 175.27 71.23Z" fill="#CBCBCB" fill-opacity="1.000000" fill-rule="nonzero"/>
		<path id="Vector" d="M172.21 66.63C171.53 62.89 170.34 57.62 171.7 56.43C173.06 55.25 175.61 54.57 175.95 56.95C176.29 59.33 175.78 63.91 176.29 64.93C176.8 65.96 178.5 65.28 178.5 63.24C178.5 59.88 177.14 56.43 177.62 53.04C178.3 48.34 183.06 47.82 183.57 53.04C183.85 55.92 183.94 58.86 183.94 61.76C183.94 62.95 185.98 63.63 185.81 60.74C185.68 58.7 187.17 56.32 189.21 57C191.25 57.68 189.55 66.69 188.87 68.22C188.19 69.75 183.94 70.04 183.94 70.04L183.94 73.94L178.84 74.12L178.67 70.21C177.63 70.81 176.46 71.15 175.27 71.23C175.27 71.23 172.89 70.37 172.21 66.63Z" stroke="#263238" stroke-opacity="1.000000" stroke-width="1.000000" stroke-linejoin="round"/>
		<path id="Vector" d="M179.86 63.77C179.92 64.62 179.96 65.13 179.96 65.13" stroke="#263238" stroke-opacity="1.000000" stroke-width="1.000000" stroke-linejoin="round" stroke-linecap="round"/>
		<path id="Vector" d="M180.2 50.59C180.2 50.59 179.08 51.36 179.16 53.69C179.22 55.1 179.49 59.02 179.7 61.88" stroke="#263238" stroke-opacity="1.000000" stroke-width="1.000000" stroke-linejoin="round" stroke-linecap="round"/>
		<path id="Vector" d="M182.11 58.6L182.29 64.3" stroke="#263238" stroke-opacity="1.000000" stroke-width="1.000000" stroke-linejoin="round" stroke-linecap="round"/>
		<path id="Vector" d="M184.6 68C184.21 68.06 183.81 68.09 183.41 68.1" stroke="#263238" stroke-opacity="1.000000" stroke-width="1.000000" stroke-linejoin="round" stroke-linecap="round"/>
		<path id="Vector" d="M188.15 58.43C187.76 59.18 187.55 60.01 187.55 60.85C187.55 62.21 187.64 66.02 186.77 67.06C186.56 67.29 186.3 67.47 186.02 67.6" stroke="#263238" stroke-opacity="1.000000" stroke-width="1.000000" stroke-linejoin="round" stroke-linecap="round"/>
		<path id="Vector" d="M173.4 66.08C173.6 67.11 174.09 68.05 174.81 68.8C175.24 69.14 175.76 69.34 176.31 69.35C176.85 69.37 177.39 69.2 177.83 68.89" stroke="#263238" stroke-opacity="1.000000" stroke-width="1.000000" stroke-linejoin="round" stroke-linecap="round"/>
		<path id="Vector" d="M173.23 56.88C173.23 56.88 171.51 56.88 172.11 59.9C172.37 61.17 172.61 62.73 172.91 64.21" stroke="#263238" stroke-opacity="1.000000" stroke-width="1.000000" stroke-linejoin="round" stroke-linecap="round"/>
		<path id="Vector" d="M179.7 68.35L180.05 72.05" stroke="#263238" stroke-opacity="1.000000" stroke-width="1.000000" stroke-linejoin="round" stroke-linecap="round"/>
		<path id="Vector" d="M188.53 72.41L187.91 77.49L187.49 80.94L187 84.96L174.76 84.96L174.27 80.94L173.85 77.49L173.23 72.41L188.53 72.41Z" fill="#FFFFFF" fill-opacity="1.000000" fill-rule="nonzero"/>
		<path id="Vector" d="M187.91 77.49L187.49 80.94L187 84.96L174.76 84.96L174.27 80.94L173.85 77.49L173.23 72.41L188.53 72.41L187.91 77.49Z" stroke="#263238" stroke-opacity="1.000000" stroke-width="1.000000" stroke-linejoin="round"/>
		<path id="Vector" d="M187.91 77.49L187.49 80.94L174.27 80.94L173.85 77.49L187.91 77.49Z" fill="#CBCBCB" fill-opacity="1.000000" fill-rule="nonzero"/>
		<path id="Vector" d="M187.49 80.94L174.27 80.94L173.85 77.49L187.91 77.49L187.49 80.94Z" stroke="#263238" stroke-opacity="1.000000" stroke-width="1.000000" stroke-linejoin="round"/>
		<path id="Vector" d="M195.24 84.96L116.72 84.96L116.72 90.16L195.24 90.16L195.24 84.96Z" fill="#FFFFFF" fill-opacity="1.000000" fill-rule="nonzero"/>
		<path id="Vector" d="M195.24 84.96L195.24 90.16L116.72 90.16L116.72 84.96L195.24 84.96Z" stroke="#263238" stroke-opacity="1.000000" stroke-width="1.000000" stroke-linejoin="round"/>
		<path id="Vector" d="M195.24 84.96L177.14 84.96L177.14 90.16L195.24 90.16L195.24 84.96Z" fill="#FFFFFF" fill-opacity="1.000000" fill-rule="nonzero"/>
		<path id="Vector" d="M195.24 84.96L195.24 90.16L177.14 90.16L177.14 84.96L195.24 84.96Z" stroke="#263238" stroke-opacity="1.000000" stroke-width="1.000000" stroke-linejoin="round"/>
		<path id="Vector" d="M175.38 90.18C183.79 93.28 182.28 99.15 182.28 99.15L190.24 99.15L190.24 90.18L175.38 90.18Z" fill="#919191" fill-opacity="1.000000" fill-rule="nonzero"/>
		<path id="Vector" d="M182.28 99.15L190.24 99.15L190.24 90.18L175.38 90.18C183.79 93.28 182.28 99.15 182.28 99.15Z" stroke="#263238" stroke-opacity="1.000000" stroke-width="1.000000" stroke-linejoin="round"/>
		<path id="Vector" d="M178.07 90.18C186.47 93.28 184.96 99.15 184.96 99.15L192.93 99.15L192.93 90.18L178.07 90.18Z" fill="#FFFFFF" fill-opacity="1.000000" fill-rule="nonzero"/>
		<path id="Vector" d="M184.96 99.15L192.93 99.15L192.93 90.18L178.07 90.18C186.47 93.28 184.96 99.15 184.96 99.15Z" stroke="#263238" stroke-opacity="1.000000" stroke-width="1.000000" stroke-linejoin="round"/>
		<path id="Vector" d="M121.49 90.18C129.9 93.28 128.39 99.15 128.39 99.15L136.35 99.15L136.35 90.18L121.49 90.18Z" fill="#919191" fill-opacity="1.000000" fill-rule="nonzero"/>
		<path id="Vector" d="M128.39 99.15L136.35 99.15L136.35 90.18L121.49 90.18C129.9 93.28 128.39 99.15 128.39 99.15Z" stroke="#263238" stroke-opacity="1.000000" stroke-width="1.000000" stroke-linejoin="round"/>
		<path id="Vector" d="M124.18 90.18C132.58 93.28 131.07 99.15 131.07 99.15L139.03 99.15L139.03 90.18L124.18 90.18Z" fill="#FFFFFF" fill-opacity="1.000000" fill-rule="nonzero"/>
		<path id="Vector" d="M131.07 99.15L139.03 99.15L139.03 90.18L124.18 90.18C132.58 93.28 131.07 99.15 131.07 99.15Z" stroke="#263238" stroke-opacity="1.000000" stroke-width="1.000000" stroke-linejoin="round"/>
		<path id="Vector" d="M304.66 58.44L234.24 58.44L234.24 156.2L304.66 156.2L304.66 58.44Z" fill="#919191" fill-opacity="1.000000" fill-rule="nonzero"/>
		<path id="Vector" d="M304.66 58.44L304.66 156.2L234.24 156.2L234.24 58.44L304.66 58.44Z" stroke="#263238" stroke-opacity="1.000000" stroke-width="1.000000" stroke-linejoin="round"/>
		<path id="Vector" d="M237.3 62.68L301.61 62.68L301.61 151.95L237.3 151.95L237.3 62.68Z" fill="#CBCBCB" fill-opacity="1.000000" fill-rule="evenodd"/>
		<g opacity="0.500000">
			<path id="Vector" d="M237.3 62.68L301.61 62.68L301.61 151.95L237.3 151.95L237.3 62.68Z" fill="#FFFFFF" fill-opacity="1.000000" fill-rule="evenodd"/>
		</g>
		<path id="Vector" d="M251.44 145.17C249.71 147.81 247.54 150.11 245.01 151.98L301.61 151.98L301.61 62.68L291.18 62.68L289.82 63.11C279.62 66.33 269.08 75.64 263.1 92.56" stroke="#263238" stroke-opacity="1.000000" stroke-width="1.000000" stroke-linejoin="round" stroke-linecap="round"/>
		<path id="Vector" d="M262.11 95.52C259.73 103.59 258.42 111.93 258.21 120.34C257.83 130.43 255.68 137.69 252.81 142.9" stroke="#263238" stroke-opacity="1.000000" stroke-width="1.000000" stroke-linejoin="round" stroke-linecap="round"/>
		<path id="Vector" d="M295.32 85.34C285.97 90.78 275.08 99.92 271.02 113.94C268.83 121.42 270.88 128.16 274.93 133.94" stroke="#263238" stroke-opacity="1.000000" stroke-width="1.000000" stroke-linejoin="round" stroke-linecap="round"/>
		<path id="Vector" d="M277.12 136.75C282.73 143.32 290.72 148.49 297.18 151.96L301.61 151.96L301.61 82.04C300.35 82.64 299 83.3 297.6 84.08" stroke="#263238" stroke-opacity="1.000000" stroke-width="1.000000" stroke-linejoin="round" stroke-linecap="round"/>
		<path id="Vector" d="M247.99 85.96C252.91 75.92 253.43 67.96 252.87 62.68L237.32 62.68L237.32 103.53C239.61 100.25 242.43 95.88 245.83 90.02C246.04 89.66 246.24 89.34 246.43 88.96" stroke="#263238" stroke-opacity="1.000000" stroke-width="1.000000" stroke-linejoin="round" stroke-linecap="round"/>
		<path id="Vector" d="M254.08 124.62C253.33 129.56 251.06 133.15 248.38 133.15C245.08 133.15 242.4 127.71 242.4 120.98C242.4 114.25 245.08 108.81 248.38 108.81C251.68 108.81 254.36 114.25 254.36 120.98" stroke="#263238" stroke-opacity="1.000000" stroke-width="1.000000" stroke-linejoin="round" stroke-linecap="round"/>
		<path id="Vector" d="M254.36 100.7C252.94 100.7 251.8 98.59 251.8 96C251.8 93.41 252.94 91.3 254.36 91.3C255.77 91.3 256.92 93.4 256.92 96C256.92 98.59 255.78 100.7 254.36 100.7Z" stroke="#263238" stroke-opacity="1.000000" stroke-width="1.000000" stroke-linejoin="round"/>
		<path id="Vector" d="M289.55 115.85C292.01 117.02 293.63 119.08 293.63 121.41C293.63 125.06 289.61 128.03 284.66 128.03C279.7 128.03 275.69 125.06 275.69 121.41C275.69 117.76 279.71 114.79 284.66 114.79C285.45 114.79 286.24 114.86 287.01 115.02" stroke="#263238" stroke-opacity="1.000000" stroke-width="1.000000" stroke-linejoin="round" stroke-linecap="round"/>
		<path id="Vector" d="M284.68 124.18C282.6 124.18 280.92 122.94 280.92 121.41C280.92 119.88 282.6 118.63 284.68 118.63C286.75 118.63 288.44 119.87 288.44 121.41C288.44 122.94 286.76 124.18 284.68 124.18Z" stroke="#263238" stroke-opacity="1.000000" stroke-width="1.000000" stroke-linejoin="round"/>
		<path id="Vector" d="M289.8 108.38C287.21 108.38 285.1 106.66 285.1 104.54C285.1 102.42 287.21 100.7 289.8 100.7C292.4 100.7 294.5 102.42 294.5 104.54C294.5 106.66 292.4 108.38 289.8 108.38Z" stroke="#263238" stroke-opacity="1.000000" stroke-width="1.000000" stroke-linejoin="round"/>
		<path id="Vector" d="M260.55 83.19C258.78 83.19 257.35 79.65 257.35 75.28C257.35 70.92 258.78 67.38 260.55 67.38C262.32 67.38 263.75 70.92 263.75 75.28C263.75 79.65 262.32 83.19 260.55 83.19Z" stroke="#263238" stroke-opacity="1.000000" stroke-width="1.000000" stroke-linejoin="round"/>
		<path id="Vector" d="M268.55 145.68C268.06 146.42 267.36 147 266.54 147.34C265.72 147.68 264.82 147.77 263.95 147.59C263.07 147.42 262.28 146.99 261.65 146.36C261.02 145.74 260.59 144.94 260.42 144.07C260.25 143.19 260.34 142.29 260.68 141.47C261.01 140.65 261.59 139.95 262.33 139.46C263.07 138.97 263.93 138.7 264.82 138.7C266.01 138.7 267.15 139.17 268 140.02C268.84 140.86 269.31 142 269.31 143.19C269.31 144.08 269.05 144.95 268.55 145.68Z" stroke="#263238" stroke-opacity="1.000000" stroke-width="1.000000" stroke-linejoin="round"/>
		<path id="Vector" d="M289.77 78.11C289.46 78.57 289.03 78.93 288.52 79.14C288.01 79.35 287.45 79.41 286.91 79.3C286.37 79.19 285.87 78.93 285.49 78.54C285.1 78.15 284.83 77.65 284.72 77.11C284.62 76.57 284.67 76.01 284.88 75.5C285.1 74.99 285.45 74.56 285.91 74.25C286.37 73.95 286.91 73.79 287.46 73.79C288.19 73.79 288.9 74.08 289.42 74.6C289.94 75.12 290.23 75.83 290.23 76.56C290.23 77.11 290.07 77.65 289.77 78.11Z" stroke="#263238" stroke-opacity="1.000000" stroke-width="1.000000" stroke-linejoin="round"/>
		<path id="Vector" d="M272.47 97.04C272.31 97.29 272.08 97.48 271.8 97.6C271.53 97.71 271.23 97.74 270.94 97.68C270.65 97.63 270.38 97.48 270.17 97.28C269.96 97.07 269.82 96.8 269.76 96.51C269.7 96.22 269.73 95.92 269.84 95.64C269.96 95.37 270.15 95.14 270.4 94.97C270.64 94.81 270.93 94.72 271.23 94.72C271.42 94.72 271.62 94.76 271.8 94.83C271.98 94.9 272.15 95.01 272.28 95.15C272.42 95.29 272.53 95.46 272.61 95.64C272.68 95.82 272.72 96.01 272.72 96.21C272.72 96.5 272.64 96.79 272.47 97.04Z" stroke="#263238" stroke-opacity="1.000000" stroke-width="1.000000" stroke-linejoin="round"/>
		<path id="Vector" d="M301.61 62.68L301.61 151.95L237.3 151.95L237.3 62.68L301.61 62.68Z" stroke="#263238" stroke-opacity="1.000000" stroke-width="1.000000" stroke-linejoin="round"/>
		<path id="Vector" d="M196.51 189.98L179.04 189.98L179.04 196.56L196.51 196.56L196.51 189.98Z" fill="#263238" fill-opacity="1.000000" fill-rule="nonzero"/>
		<path id="Vector" d="M196.51 189.98L196.51 196.56L179.04 196.56L179.04 189.98L196.51 189.98Z" stroke="#263238" stroke-opacity="1.000000" stroke-width="1.000000" stroke-linejoin="round"/>
		<path id="Vector" d="M219.95 190.97L150.42 190.97L153.71 137.08L223.25 137.08L219.95 190.97Z" fill="#919191" fill-opacity="1.000000" fill-rule="nonzero"/>
		<path id="Vector" d="M150.42 190.97L153.71 137.08L223.25 137.08L219.95 190.97L150.42 190.97Z" stroke="#263238" stroke-opacity="1.000000" stroke-width="1.000000" stroke-linejoin="round"/>
		<path id="Vector" d="M217.96 190.97L148.43 190.97L151.72 137.08L221.25 137.08L217.96 190.97Z" fill="#263238" fill-opacity="1.000000" fill-rule="nonzero"/>
		<path id="Vector" d="M148.43 190.97L151.72 137.08L221.25 137.08L217.96 190.97L148.43 190.97Z" stroke="#263238" stroke-opacity="1.000000" stroke-width="1.000000" stroke-linejoin="round"/>
		<path id="Vector" d="M214.28 187.97L152.47 187.97L155.39 140.07L217.2 140.07L214.28 187.97Z" fill="#FFFFFF" fill-opacity="1.000000" fill-rule="nonzero"/>
		<path id="Vector" d="M152.47 187.97L155.39 140.07L217.2 140.07L214.28 187.97L152.47 187.97Z" stroke="#263238" stroke-opacity="1.000000" stroke-width="1.000000" stroke-linejoin="round"/>
		<path id="Vector" d="M196.3 180.83L154.31 180.83L156.57 143.92L198.56 143.92L196.3 180.83Z" fill="#919191" fill-opacity="1.000000" fill-rule="nonzero"/>
		<path id="Vector" d="M154.31 180.83L156.57 143.92L198.56 143.92L196.3 180.83L154.31 180.83Z" stroke="#263238" stroke-opacity="1.000000" stroke-width="1.000000" stroke-linejoin="round"/>
		<path id="Vector" d="M170.88 164.98C170.88 164.98 162.13 168.44 162.08 169.37C162.03 170.3 160.31 180.83 160.31 180.83L186.32 180.83L184.13 168.7L174.5 164.71L170.88 164.98Z" fill="#FFFFFF" fill-opacity="1.000000" fill-rule="nonzero"/>
		<path id="Vector" d="M162.08 169.37C162.03 170.3 160.31 180.83 160.31 180.83L186.32 180.83L184.13 168.7L174.5 164.71L170.88 164.98C170.88 164.98 162.13 168.44 162.08 169.37Z" stroke="#263238" stroke-opacity="1.000000" stroke-width="1.000000" stroke-linejoin="round"/>
		<path id="Vector" d="M171.14 162.84C170.48 163.02 169.87 163.33 169.35 163.77C168.67 164.45 167.84 166.7 167.84 166.7L167.81 169.37L171.25 167.51L174.76 167.28L178.03 170.34L178.45 165.68C178.45 165.68 177.95 163.01 176.89 162.88C175.83 162.74 171.14 162.84 171.14 162.84Z" fill="#FFFFFF" fill-opacity="1.000000" fill-rule="nonzero"/>
		<path id="Vector" d="M169.35 163.77C168.67 164.45 167.84 166.7 167.84 166.7L167.81 169.37L171.25 167.51L174.76 167.28L178.03 170.34L178.45 165.68C178.45 165.68 177.95 163.01 176.89 162.88C175.83 162.74 171.14 162.84 171.14 162.84C170.48 163.02 169.87 163.33 169.35 163.77Z" stroke="#263238" stroke-opacity="1.000000" stroke-width="1.000000" stroke-linejoin="round"/>
		<path id="Vector" d="M171.03 160.31L170.88 164.98L172.94 168.31L176.35 164.84L176.88 160.58L171.03 160.31Z" fill="#FFFFFF" fill-opacity="1.000000" fill-rule="nonzero"/>
		<path id="Vector" d="M170.88 164.98L172.94 168.31L176.35 164.84L176.88 160.58L171.03 160.31L170.88 164.98Z" stroke="#263238" stroke-opacity="1.000000" stroke-width="1.000000" stroke-linejoin="round"/>
		<path id="Vector" d="M179.43 154.86C179.19 158.77 176.59 163.51 173.74 163.51C170.89 163.51 168.87 158.75 169.11 154.86C169.35 150.97 171.83 147.78 174.7 147.78C177.57 147.78 179.67 150.96 179.43 154.86Z" fill="#FFFFFF" fill-opacity="1.000000" fill-rule="nonzero"/>
		<path id="Vector" d="M173.74 163.51C170.89 163.51 168.87 158.75 169.11 154.86C169.35 150.97 171.83 147.78 174.7 147.78C177.57 147.78 179.67 150.96 179.43 154.86C179.19 158.77 176.59 163.51 173.74 163.51Z" stroke="#263238" stroke-opacity="1.000000" stroke-width="1.000000" stroke-linejoin="round"/>
		<path id="Vector" d="M169.06 155.38C169.06 155.38 168.15 152.98 167.77 154.85C167.38 156.71 169.26 158.71 169.26 158.71L169.06 155.38Z" fill="#FFFFFF" fill-opacity="1.000000" fill-rule="nonzero"/>
		<path id="Vector" d="M167.77 154.85C167.38 156.71 169.26 158.71 169.26 158.71L169.06 155.38C169.06 155.38 168.15 152.98 167.77 154.85Z" stroke="#263238" stroke-opacity="1.000000" stroke-width="1.000000" stroke-linejoin="round"/>
		<path id="Vector" d="M179.43 154.86C179.43 154.86 181.68 153.91 181.03 155.91C180.86 156.48 180.57 157 180.17 157.44C179.77 157.88 179.29 158.22 178.74 158.44L179.43 154.86Z" fill="#FFFFFF" fill-opacity="1.000000" fill-rule="nonzero"/>
		<path id="Vector" d="M181.03 155.91C180.86 156.48 180.57 157 180.17 157.44C179.77 157.88 179.29 158.22 178.74 158.44L179.43 154.86C179.43 154.86 181.68 153.91 181.03 155.91Z" stroke="#263238" stroke-opacity="1.000000" stroke-width="1.000000" stroke-linejoin="round"/>
		<path id="Vector" d="M173.46 155.38C173.48 155.14 173.45 154.89 173.37 154.67C173.29 154.44 173.16 154.23 173 154.06C172.83 153.88 172.63 153.74 172.41 153.65C172.19 153.56 171.95 153.51 171.71 153.51C171.21 153.53 170.73 153.72 170.36 154.07C170 154.41 169.77 154.88 169.73 155.38C169.71 155.62 169.74 155.86 169.83 156.08C169.91 156.31 170.03 156.52 170.2 156.7C170.36 156.87 170.56 157.01 170.78 157.11C171 157.2 171.24 157.25 171.48 157.25C171.99 157.23 172.47 157.03 172.83 156.69C173.2 156.34 173.42 155.88 173.46 155.38Z" fill="#FFFFFF" fill-opacity="1.000000" fill-rule="nonzero"/>
		<path id="Vector" d="M173.37 154.67C173.29 154.44 173.16 154.23 173 154.06C172.83 153.88 172.63 153.74 172.41 153.65C172.19 153.56 171.95 153.51 171.71 153.51C171.21 153.53 170.73 153.72 170.36 154.07C170 154.41 169.77 154.88 169.73 155.38C169.71 155.62 169.74 155.86 169.83 156.08C169.91 156.31 170.03 156.52 170.2 156.7C170.36 156.87 170.56 157.01 170.78 157.11C171 157.2 171.24 157.25 171.48 157.25C171.99 157.23 172.47 157.03 172.83 156.69C173.2 156.34 173.42 155.88 173.46 155.38C173.48 155.14 173.45 154.89 173.37 154.67Z" stroke="#263238" stroke-opacity="1.000000" stroke-width="1.000000" stroke-linejoin="round"/>
		<path id="Vector" d="M177.99 155.38L180.03 154.85" stroke="#263238" stroke-opacity="1.000000" stroke-width="1.000000" stroke-linejoin="round" stroke-linecap="round"/>
		<path id="Vector" d="M177.99 155.38C178.01 155.14 177.98 154.89 177.9 154.67C177.82 154.44 177.69 154.24 177.53 154.06C177.36 153.88 177.16 153.75 176.94 153.65C176.72 153.56 176.48 153.51 176.24 153.51C175.74 153.52 175.26 153.72 174.9 154.06C174.53 154.41 174.3 154.88 174.26 155.38C174.24 155.62 174.27 155.86 174.35 156.08C174.43 156.31 174.56 156.52 174.73 156.7C174.89 156.87 175.09 157.01 175.31 157.11C175.53 157.2 175.77 157.25 176.01 157.25C176.52 157.23 177 157.03 177.36 156.69C177.73 156.34 177.95 155.88 177.99 155.38Z" fill="#FFFFFF" fill-opacity="1.000000" fill-rule="nonzero"/>
		<path id="Vector" d="M177.9 154.67C177.82 154.44 177.69 154.24 177.53 154.06C177.36 153.88 177.16 153.75 176.94 153.65C176.72 153.56 176.48 153.51 176.24 153.51C175.74 153.52 175.26 153.72 174.9 154.06C174.53 154.41 174.3 154.88 174.26 155.38C174.24 155.62 174.27 155.86 174.35 156.08C174.43 156.31 174.56 156.52 174.73 156.7C174.89 156.87 175.09 157.01 175.31 157.11C175.53 157.2 175.77 157.25 176.01 157.25C176.52 157.23 177 157.03 177.36 156.69C177.73 156.34 177.95 155.88 177.99 155.38C178.01 155.14 177.98 154.89 177.9 154.67Z" stroke="#263238" stroke-opacity="1.000000" stroke-width="1.000000" stroke-linejoin="round"/>
		<path id="Vector" d="M174.24 146.98C174.24 146.98 172.2 145.92 170.67 146.58C169.14 147.25 168.01 150.85 168.08 151.78C168.32 153 168.65 154.2 169.06 155.38L170.68 150.71L174.93 148.85L174.24 146.98Z" fill="#263238" fill-opacity="1.000000" fill-rule="nonzero"/>
		<path id="Vector" d="M170.67 146.58C169.14 147.25 168.01 150.85 168.08 151.78C168.32 153 168.65 154.2 169.06 155.38L170.68 150.71L174.93 148.85L174.24 146.98C174.24 146.98 172.2 145.92 170.67 146.58Z" stroke="#263238" stroke-opacity="1.000000" stroke-width="1.000000" stroke-linejoin="round"/>
		<path id="Vector" d="M172.19 147.92C172.19 147.92 175.54 145.25 178.26 146.56C179.1 146.92 179.79 147.55 180.22 148.34C180.65 149.14 180.81 150.06 180.66 150.96C180.62 151.64 180.57 154.68 180.57 154.68L178.95 154.95L178.16 152.44C177.24 152.08 176.34 151.66 175.48 151.18C175.48 151.18 171.88 150.71 172.19 147.92Z" fill="#263238" fill-opacity="1.000000" fill-rule="nonzero"/>
		<path id="Vector" d="M178.26 146.56C179.1 146.92 179.79 147.55 180.22 148.34C180.65 149.14 180.81 150.06 180.66 150.96C180.62 151.64 180.57 154.68 180.57 154.68L178.95 154.95L178.16 152.44C177.24 152.08 176.34 151.66 175.48 151.18C175.48 151.18 171.88 150.71 172.19 147.92C172.19 147.92 175.54 145.25 178.26 146.56Z" stroke="#263238" stroke-opacity="1.000000" stroke-width="1.000000" stroke-linejoin="round"/>
		<path id="Vector" d="M173.46 155.38L173.23 159.24L174.16 159.24M172.98 155.37L172.96 155.34C172.98 155.07 173.21 154.86 173.49 154.88C173.77 154.89 173.98 155.13 173.96 155.41L173.94 155.42L172.98 155.37ZM174.14 158.76L174.16 158.74C174.44 158.74 174.66 158.96 174.66 159.24C174.66 159.52 174.44 159.74 174.16 159.74L174.14 159.72L174.14 158.76Z" fill="#FFFFFF" fill-opacity="1.000000" fill-rule="nonzero"/>
		<path id="Vector" d="M173.46 155.38L173.23 159.24L174.16 159.24" stroke="#263238" stroke-opacity="1.000000" stroke-width="1.000000" stroke-linejoin="round" stroke-linecap="round"/>
		<path id="Vector" d="M172.76 161.19L172.74 161.21C172.46 161.21 172.24 160.99 172.24 160.71C172.24 160.43 172.46 160.21 172.74 160.21L172.76 160.23L172.76 161.19ZM174.72 160.23L174.74 160.21C175.02 160.21 175.24 160.43 175.24 160.71C175.24 160.99 175.02 161.21 174.74 161.21L174.72 161.19L174.72 160.23Z" fill="#FFFFFF" fill-opacity="1.000000" fill-rule="nonzero"/>
		<path id="Vector" d="M172.74 160.71L174.74 160.71" stroke="#263238" stroke-opacity="1.000000" stroke-width="1.000000" stroke-linejoin="round" stroke-linecap="round"/>
		<path id="Vector" d="M172.94 168.31L172.2 180.43" stroke="#263238" stroke-opacity="1.000000" stroke-width="1.000000" stroke-linejoin="round" stroke-linecap="round"/>
		<path id="Vector" d="M184.11 168.7C184.11 168.7 181.33 174.97 181.25 176.31C181.17 177.64 180.86 180.57 180.86 180.57" stroke="#263238" stroke-opacity="1.000000" stroke-width="1.000000" stroke-linejoin="round" stroke-linecap="round"/>
		<path id="Vector" d="M162.08 169.37C162.08 169.37 164.85 174.17 165.21 174.81C165.57 175.45 165.13 180.54 165.13 180.54" stroke="#263238" stroke-opacity="1.000000" stroke-width="1.000000" stroke-linejoin="round" stroke-linecap="round"/>
		<path id="Vector" d="M185.97 173.24L186.89 169.1L188.45 167.51L189.93 165.11L190.59 165.11L189.78 167.64L191.84 166.44L193.18 164.31L193.95 164.7L192.05 169.64L189.03 171.1L188.51 173.1L185.97 173.24Z" fill="#FFFFFF" fill-opacity="1.000000" fill-rule="nonzero"/>
		<path id="Vector" d="M186.89 169.1L188.45 167.51L189.93 165.11L190.59 165.11L189.78 167.64L191.84 166.44L193.18 164.31L193.95 164.7L192.05 169.64L189.03 171.1L188.51 173.1L185.97 173.24L186.89 169.1Z" stroke="#263238" stroke-opacity="1.000000" stroke-width="1.000000" stroke-linejoin="round"/>
		<path id="Vector" d="M188.55 180.83L188.8 172.57L185.77 172.04L183.38 180.83L188.55 180.83Z" fill="#FFFFFF" fill-opacity="1.000000" fill-rule="nonzero"/>
		<path id="Vector" d="M188.8 172.57L185.77 172.04L183.38 180.83L188.55 180.83L188.8 172.57Z" stroke="#263238" stroke-opacity="1.000000" stroke-width="1.000000" stroke-linejoin="round"/>
		<path id="Vector" d="M196.11 183.9L154.12 183.9L154.31 180.83L196.3 180.83L196.11 183.9Z" fill="#FFFFFF" fill-opacity="1.000000" fill-rule="nonzero"/>
		<path id="Vector" d="M154.12 183.9L154.31 180.83L196.3 180.83L196.11 183.9L154.12 183.9Z" stroke="#263238" stroke-opacity="1.000000" stroke-width="1.000000" stroke-linejoin="round"/>
		<path id="Vector" d="M155.86 182.52L155.84 182.54C155.56 182.54 155.34 182.32 155.34 182.04C155.34 181.76 155.56 181.54 155.84 181.54L155.86 181.56L155.86 182.52ZM194.34 181.56L194.36 181.54C194.64 181.54 194.86 181.76 194.86 182.04C194.86 182.32 194.64 182.54 194.36 182.54L194.34 182.52L194.34 181.56Z" fill="#FFFFFF" fill-opacity="1.000000" fill-rule="nonzero"/>
		<path id="Vector" d="M155.84 182.04L194.36 182.04" stroke="#263238" stroke-opacity="1.000000" stroke-width="1.000000" stroke-linejoin="round" stroke-linecap="round"/>
		<path id="Vector" d="M214.35 153.77L200.21 153.77L200.81 144.04L214.94 144.04L214.35 153.77Z" fill="#CBCBCB" fill-opacity="1.000000" fill-rule="nonzero"/>
		<path id="Vector" d="M200.21 153.77L200.81 144.04L214.94 144.04L214.35 153.77L200.21 153.77Z" stroke="#263238" stroke-opacity="1.000000" stroke-width="1.000000" stroke-linejoin="round"/>
		<path id="Vector" d="M214.35 153.77L200.21 153.77L200.32 152.17L214.45 152.17L214.35 153.77Z" fill="#FFFFFF" fill-opacity="1.000000" fill-rule="nonzero"/>
		<path id="Vector" d="M200.21 153.77L200.32 152.17L214.45 152.17L214.35 153.77L200.21 153.77Z" stroke="#263238" stroke-opacity="1.000000" stroke-width="1.000000" stroke-linejoin="round"/>
		<path id="Vector" d="M209.78 148.34L206.11 146.14L205.85 150.53L209.78 148.34Z" fill="#FFFFFF" fill-opacity="1.000000" fill-rule="nonzero"/>
		<path id="Vector" d="M206.11 146.14L205.85 150.53L209.78 148.34L206.11 146.14Z" stroke="#263238" stroke-opacity="1.000000" stroke-width="1.000000" stroke-linejoin="round"/>
		<path id="Vector" d="M213.43 168.83L199.3 168.83L199.89 159.11L214.02 159.11L213.43 168.83Z" fill="#CBCBCB" fill-opacity="1.000000" fill-rule="nonzero"/>
		<path id="Vector" d="M199.3 168.83L199.89 159.11L214.02 159.11L213.43 168.83L199.3 168.83Z" stroke="#263238" stroke-opacity="1.000000" stroke-width="1.000000" stroke-linejoin="round"/>
		<path id="Vector" d="M213.43 168.83L199.3 168.83L199.4 167.23L213.52 167.23L213.43 168.83Z" fill="#FFFFFF" fill-opacity="1.000000" fill-rule="nonzero"/>
		<path id="Vector" d="M199.3 168.83L199.4 167.23L213.52 167.23L213.43 168.83L199.3 168.83Z" stroke="#263238" stroke-opacity="1.000000" stroke-width="1.000000" stroke-linejoin="round"/>
		<path id="Vector" d="M208.86 163.41L205.19 161.21L204.93 165.6L208.86 163.41Z" fill="#FFFFFF" fill-opacity="1.000000" fill-rule="nonzero"/>
		<path id="Vector" d="M205.19 161.21L204.93 165.6L208.86 163.41L205.19 161.21Z" stroke="#263238" stroke-opacity="1.000000" stroke-width="1.000000" stroke-linejoin="round"/>
		<path id="Vector" d="M212.5 183.9L198.38 183.9L198.97 174.17L213.1 174.17L212.5 183.9Z" fill="#CBCBCB" fill-opacity="1.000000" fill-rule="nonzero"/>
		<path id="Vector" d="M198.38 183.9L198.97 174.17L213.1 174.17L212.5 183.9L198.38 183.9Z" stroke="#263238" stroke-opacity="1.000000" stroke-width="1.000000" stroke-linejoin="round"/>
		<path id="Vector" d="M212.5 183.9L198.38 183.9L198.47 182.3L212.6 182.3L212.5 183.9Z" fill="#FFFFFF" fill-opacity="1.000000" fill-rule="nonzero"/>
		<path id="Vector" d="M198.38 183.9L198.47 182.3L212.6 182.3L212.5 183.9L198.38 183.9Z" stroke="#263238" stroke-opacity="1.000000" stroke-width="1.000000" stroke-linejoin="round"/>
		<path id="Vector" d="M207.94 178.47L204.27 176.27L204 180.66L207.94 178.47Z" fill="#FFFFFF" fill-opacity="1.000000" fill-rule="nonzero"/>
		<path id="Vector" d="M204.27 176.27L204 180.66L207.94 178.47L204.27 176.27Z" stroke="#263238" stroke-opacity="1.000000" stroke-width="1.000000" stroke-linejoin="round"/>
		<path id="Vector" d="M200.26 155.38L213.98 155.38" stroke="#263238" stroke-opacity="1.000000" stroke-width="1.000000" stroke-linejoin="round" stroke-linecap="round"/>
		<path id="Vector" d="M200.15 156.98L213.88 156.98" stroke="#263238" stroke-opacity="1.000000" stroke-width="1.000000" stroke-linejoin="round" stroke-linecap="round"/>
		<path id="Vector" d="M199.32 170.57L213.05 170.57" stroke="#263238" stroke-opacity="1.000000" stroke-width="1.000000" stroke-linejoin="round" stroke-linecap="round"/>
		<path id="Vector" d="M199.23 172.17L212.96 172.17" stroke="#263238" stroke-opacity="1.000000" stroke-width="1.000000" stroke-linejoin="round" stroke-linecap="round"/>
		<path id="Vector" d="M193.24 196.56L182.92 196.56C182.92 195.53 183.33 194.54 184.05 193.81C184.78 193.08 185.77 192.67 186.8 192.67L189.34 192.67C190.37 192.67 191.36 193.08 192.09 193.81C192.82 194.54 193.22 195.53 193.22 196.56L193.24 196.56Z" fill="#FFFFFF" fill-opacity="1.000000" fill-rule="nonzero"/>
		<path id="Vector" d="M182.92 196.56C182.92 195.53 183.33 194.54 184.05 193.81C184.78 193.08 185.77 192.67 186.8 192.67L189.34 192.67C190.37 192.67 191.36 193.08 192.09 193.81C192.82 194.54 193.22 195.53 193.22 196.56L193.24 196.56L182.92 196.56Z" stroke="#263238" stroke-opacity="1.000000" stroke-width="1.000000" stroke-linejoin="round"/>
		<path id="Vector" d="M178 194.44L127.53 194.44L127.53 196.56L178 196.56L178 194.44Z" fill="#919191" fill-opacity="1.000000" fill-rule="nonzero"/>
		<path id="Vector" d="M178 194.44L178 196.56L127.53 196.56L127.53 194.44L178 194.44Z" stroke="#263238" stroke-opacity="1.000000" stroke-width="1.000000" stroke-linejoin="round"/>
		<path id="Vector" d="M177.99 194.44L165.3 194.44L165.3 196.56L177.99 196.56L177.99 194.44Z" fill="#FFFFFF" fill-opacity="1.000000" fill-rule="nonzero"/>
		<path id="Vector" d="M177.99 194.44L177.99 196.56L165.3 196.56L165.3 194.44L177.99 194.44Z" stroke="#263238" stroke-opacity="1.000000" stroke-width="1.000000" stroke-linejoin="round"/>
		<path id="Vector" d="M106.84 92.9L106.84 52.72" stroke="#263238" stroke-opacity="1.000000" stroke-width="1.000000" stroke-linejoin="round" stroke-linecap="round"/>
		<path id="Vector" d="M106.84 294L106.84 96.9" stroke="#263238" stroke-opacity="1.000000" stroke-width="1.000000" stroke-linejoin="round" stroke-linecap="round"/>
		<path id="Vector" d="M198.6 210.66L204.72 293.16C204.75 293.46 204.9 293.74 205.13 293.94C205.36 294.14 205.65 294.24 205.96 294.23C206.26 294.21 206.55 294.09 206.76 293.87C206.97 293.65 207.09 293.36 207.1 293.06L206.18 210.66L198.6 210.66Z" fill="#919191" fill-opacity="1.000000" fill-rule="nonzero"/>
		<path id="Vector" d="M204.72 293.16C204.75 293.46 204.9 293.74 205.13 293.94C205.36 294.14 205.65 294.24 205.96 294.23C206.26 294.21 206.55 294.09 206.76 293.87C206.97 293.65 207.09 293.36 207.1 293.06L206.18 210.66L198.6 210.66L204.72 293.16Z" stroke="#263238" stroke-opacity="1.000000" stroke-width="1.000000" stroke-linejoin="round"/>
		<path id="Vector" d="M203.22 210.66L206.45 294.12C206.64 294.01 206.8 293.86 206.91 293.68C207.02 293.49 207.08 293.28 207.08 293.06L206.18 210.66L203.22 210.66Z" fill="#FFFFFF" fill-opacity="1.000000" fill-rule="nonzero"/>
		<path id="Vector" d="M206.45 294.12C206.64 294.01 206.8 293.86 206.91 293.68C207.02 293.49 207.08 293.28 207.08 293.06L206.18 210.66L203.22 210.66L206.45 294.12Z" stroke="#263238" stroke-opacity="1.000000" stroke-width="1.000000" stroke-linejoin="round"/>
		<path id="Vector" d="M237.07 210.66L243.19 293.16C243.22 293.46 243.37 293.74 243.6 293.94C243.83 294.14 244.12 294.24 244.43 294.23C244.73 294.21 245.01 294.09 245.23 293.87C245.44 293.65 245.56 293.36 245.56 293.06L244.65 210.66L237.07 210.66Z" fill="#919191" fill-opacity="1.000000" fill-rule="nonzero"/>
		<path id="Vector" d="M243.19 293.16C243.22 293.46 243.37 293.74 243.6 293.94C243.83 294.14 244.12 294.24 244.43 294.23C244.73 294.21 245.01 294.09 245.23 293.87C245.44 293.65 245.56 293.36 245.56 293.06L244.65 210.66L237.07 210.66L243.19 293.16Z" stroke="#263238" stroke-opacity="1.000000" stroke-width="1.000000" stroke-linejoin="round"/>
		<path id="Vector" d="M241.33 210.66L245.09 293.99C245.24 293.88 245.35 293.74 245.43 293.58C245.51 293.42 245.55 293.24 245.54 293.06L244.65 210.66L241.33 210.66Z" fill="#FFFFFF" fill-opacity="1.000000" fill-rule="nonzero"/>
		<path id="Vector" d="M245.09 293.99C245.24 293.88 245.35 293.74 245.43 293.58C245.51 293.42 245.55 293.24 245.54 293.06L244.65 210.66L241.33 210.66L245.09 293.99Z" stroke="#263238" stroke-opacity="1.000000" stroke-width="1.000000" stroke-linejoin="round"/>
		<path id="Vector" d="M135.67 211.56L129.55 293.16C129.53 293.46 129.39 293.74 129.17 293.94C128.95 294.15 128.67 294.26 128.37 294.26C128.21 294.26 128.05 294.23 127.91 294.17C127.76 294.12 127.63 294.03 127.51 293.92C127.4 293.81 127.31 293.68 127.25 293.53C127.19 293.39 127.16 293.23 127.16 293.07L128.06 211.34L135.67 211.56Z" fill="#263238" fill-opacity="1.000000" fill-rule="nonzero"/>
		<path id="Vector" d="M129.55 293.16C129.53 293.46 129.39 293.74 129.17 293.94C128.95 294.15 128.67 294.26 128.37 294.26C128.21 294.26 128.05 294.23 127.91 294.17C127.76 294.12 127.63 294.03 127.51 293.92C127.4 293.81 127.31 293.68 127.25 293.53C127.19 293.39 127.16 293.23 127.16 293.07L128.06 211.34L135.67 211.56L129.55 293.16Z" stroke="#263238" stroke-opacity="1.000000" stroke-width="1.000000" stroke-linejoin="round"/>
		<path id="Vector" d="M97.23 211.56L91.12 293.16C91.09 293.46 90.96 293.74 90.74 293.94C90.52 294.15 90.23 294.26 89.93 294.26C89.77 294.26 89.62 294.23 89.48 294.16C89.33 294.1 89.2 294.01 89.09 293.9C88.98 293.79 88.89 293.66 88.83 293.51C88.78 293.37 88.75 293.21 88.75 293.06L89.65 211.32L97.23 211.56Z" fill="#263238" fill-opacity="1.000000" fill-rule="nonzero"/>
		<path id="Vector" d="M91.12 293.16C91.09 293.46 90.96 293.74 90.74 293.94C90.52 294.15 90.23 294.26 89.93 294.26C89.77 294.26 89.62 294.23 89.48 294.16C89.33 294.1 89.2 294.01 89.09 293.9C88.98 293.79 88.89 293.66 88.83 293.51C88.78 293.37 88.75 293.21 88.75 293.06L89.65 211.32L97.23 211.56L91.12 293.16Z" stroke="#263238" stroke-opacity="1.000000" stroke-width="1.000000" stroke-linejoin="round"/>
		<path id="Vector" d="M246.9 198.47L87.35 198.47L87.35 211.33L246.9 211.33L246.9 198.47Z" fill="#919191" fill-opacity="1.000000" fill-rule="nonzero"/>
		<path id="Vector" d="M246.9 198.47L246.9 211.33L87.35 211.33L87.35 198.47L246.9 198.47Z" stroke="#263238" stroke-opacity="1.000000" stroke-width="1.000000" stroke-linejoin="round"/>
		<path id="Vector" d="M246.9 198.47L201.17 198.47L201.17 211.33L246.9 211.33L246.9 198.47Z" fill="#FFFFFF" fill-opacity="1.000000" fill-rule="nonzero"/>
		<path id="Vector" d="M246.9 198.47L246.9 211.33L201.17 211.33L201.17 198.47L246.9 198.47Z" stroke="#263238" stroke-opacity="1.000000" stroke-width="1.000000" stroke-linejoin="round"/>
		<path id="Vector" d="M246.9 200.51L87.35 200.51L87.35 204.06L246.9 204.06L246.9 200.51Z" fill="#263238" fill-opacity="1.000000" fill-rule="nonzero"/>
		<path id="Vector" d="M246.9 200.51L246.9 204.06L87.35 204.06L87.35 200.51L246.9 200.51Z" stroke="#263238" stroke-opacity="1.000000" stroke-width="1.000000" stroke-linejoin="round"/>
		<path id="Vector" d="M249.19 196.63L85.05 196.63L85.05 200.93L249.19 200.93L249.19 196.63Z" fill="#919191" fill-opacity="1.000000" fill-rule="nonzero"/>
		<path id="Vector" d="M249.19 196.63L249.19 200.93L85.05 200.93L85.05 196.63L249.19 196.63Z" stroke="#263238" stroke-opacity="1.000000" stroke-width="1.000000" stroke-linejoin="round"/>
		<path id="Vector" d="M249.19 196.63L204.11 196.63L204.11 200.93L249.19 200.93L249.19 196.63Z" fill="#FFFFFF" fill-opacity="1.000000" fill-rule="nonzero"/>
		<path id="Vector" d="M249.19 196.63L249.19 200.93L204.11 200.93L204.11 196.63L249.19 196.63Z" stroke="#263238" stroke-opacity="1.000000" stroke-width="1.000000" stroke-linejoin="round"/>
		<path id="Vector" d="M200.79 116.96L178.64 116.96C177.48 116.96 176.38 117.41 175.56 118.23C174.75 119.05 174.29 120.15 174.29 121.31L174.29 129.47C174.29 130.04 174.4 130.61 174.62 131.13C174.83 131.66 175.15 132.14 175.56 132.55C175.96 132.95 176.44 133.27 176.97 133.49C177.5 133.71 178.07 133.82 178.64 133.82L190.24 133.82L185.89 145.96L194.22 133.82L200.79 133.82C201.36 133.82 201.93 133.71 202.46 133.49C202.99 133.27 203.47 132.95 203.87 132.55C204.28 132.14 204.6 131.66 204.82 131.13C205.03 130.61 205.15 130.04 205.14 129.47L205.14 121.31C205.14 120.15 204.69 119.05 203.87 118.23C203.05 117.41 201.95 116.96 200.79 116.96Z" fill="#FFFFFF" fill-opacity="1.000000" fill-rule="nonzero"/>
		<path id="Vector" d="M178.64 116.96C177.48 116.96 176.38 117.41 175.56 118.23C174.75 119.05 174.29 120.15 174.29 121.31L174.29 129.47C174.29 130.04 174.4 130.61 174.62 131.13C174.83 131.66 175.15 132.14 175.56 132.55C175.96 132.95 176.44 133.27 176.97 133.49C177.5 133.71 178.07 133.82 178.64 133.82L190.24 133.82L185.89 145.96L194.22 133.82L200.79 133.82C201.36 133.82 201.93 133.71 202.46 133.49C202.99 133.27 203.47 132.95 203.87 132.55C204.28 132.14 204.6 131.66 204.82 131.13C205.03 130.61 205.15 130.04 205.14 129.47L205.14 121.31C205.14 120.15 204.69 119.05 203.87 118.23C203.05 117.41 201.95 116.96 200.79 116.96L178.64 116.96Z" stroke="#263238" stroke-opacity="1.000000" stroke-width="1.000000" stroke-linejoin="round"/>
		<path id="Vector" d="M185.36 125.66C185.36 126.53 184.65 127.24 183.78 127.24C182.9 127.24 182.19 126.53 182.19 125.66C182.19 124.78 182.9 124.08 183.78 124.08C184.65 124.08 185.36 124.78 185.36 125.66Z" fill="#263238" fill-opacity="1.000000" fill-rule="evenodd"/>
		<path id="Vector" d="M191.3 125.66C191.3 126.53 190.59 127.24 189.72 127.24C188.84 127.24 188.13 126.53 188.13 125.66C188.13 124.78 188.84 124.08 189.72 124.08C190.59 124.08 191.3 124.78 191.3 125.66Z" fill="#263238" fill-opacity="1.000000" fill-rule="evenodd"/>
		<path id="Vector" d="M197.23 125.66C197.23 125.35 197.14 125.04 196.96 124.78C196.79 124.52 196.54 124.31 196.25 124.19C195.96 124.08 195.64 124.04 195.33 124.11C195.03 124.17 194.74 124.32 194.52 124.54C194.3 124.76 194.15 125.05 194.09 125.35C194.03 125.66 194.06 125.98 194.18 126.27C194.3 126.56 194.51 126.81 194.77 126.98C195.03 127.15 195.34 127.25 195.65 127.24C195.86 127.24 196.07 127.2 196.26 127.12C196.45 127.04 196.62 126.93 196.77 126.78C196.92 126.63 197.03 126.46 197.11 126.27C197.19 126.07 197.23 125.87 197.23 125.66Z" fill="#263238" fill-opacity="1.000000" fill-rule="nonzero"/>
		<path id="Vector" d="M306 294.44L324.35 294.44" stroke="#263238" stroke-opacity="1.000000" stroke-width="1.000000" stroke-linejoin="round" stroke-linecap="round"/>
		<path id="Vector" d="M16.31 294.44L296.48 294.44" stroke="#263238" stroke-opacity="1.000000" stroke-width="1.000000" stroke-linejoin="round" stroke-linecap="round"/>
		<path id="Vector" d="M124.19 174.27C122.2 170.87 116.34 157.78 116.34 157.78C116.51 156.38 116.8 155 117.19 153.64C117.68 152.28 118.89 148.16 118.65 147.3C118.4 146.45 114.87 144.87 114.51 144.75C114.15 144.62 115 142.56 113.66 142.07C112.32 141.58 111.84 142.31 111.84 142.31L111.33 145.71L109.76 148.16C109.11 147.67 108.43 147.21 107.72 146.8C106.63 146.19 104.07 145.94 103.95 146.92C103.83 147.9 105.99 148.75 106.74 149.36C107.5 149.97 108.45 152.89 109.31 153.74C110.08 154.59 110.82 155.49 111.5 156.42L111.98 158C111.98 158 113.65 174.04 113.85 178.03C114.05 182.02 114.64 192.59 115.84 194.18C117.04 195.77 117.24 196.77 120.6 195.58C123.96 194.38 124.59 192.78 125.36 189.19C126.14 185.6 126.18 177.65 124.19 174.27Z" fill="#FFFFFF" fill-opacity="1.000000" fill-rule="nonzero"/>
		<path id="Vector" d="M116.34 157.78C116.51 156.38 116.8 155 117.19 153.64C117.68 152.28 118.89 148.16 118.65 147.3C118.4 146.45 114.87 144.87 114.51 144.75C114.15 144.62 115 142.56 113.66 142.07C112.32 141.58 111.84 142.31 111.84 142.31L111.33 145.71L109.76 148.16C109.11 147.67 108.43 147.21 107.72 146.8C106.63 146.19 104.07 145.94 103.95 146.92C103.83 147.9 105.99 148.75 106.74 149.36C107.5 149.97 108.45 152.89 109.31 153.74C110.08 154.59 110.82 155.49 111.5 156.42L111.98 158C111.98 158 113.65 174.04 113.85 178.03C114.05 182.02 114.64 192.59 115.84 194.18C117.04 195.77 117.24 196.77 120.6 195.58C123.96 194.38 124.59 192.78 125.36 189.19C126.14 185.6 126.18 177.65 124.19 174.27C122.2 170.87 116.34 157.78 116.34 157.78Z" stroke="#263238" stroke-opacity="1.000000" stroke-width="1.000000" stroke-linejoin="round"/>
		<path id="Vector" d="M125.39 189.21C126.18 185.63 126.18 177.65 124.19 174.25C123.97 173.88 123.71 173.4 123.41 172.82C118.9 171.51 114.62 173.65 114.62 173.65L113.53 174.13C113.67 175.8 113.78 177.19 113.82 178.04C114.02 182.02 114.62 192.59 115.81 194.18C117.01 195.77 117.21 196.78 120.57 195.58C123.93 194.39 124.58 192.8 125.39 189.21Z" fill="#CBCBCB" fill-opacity="1.000000" fill-rule="nonzero"/>
		<path id="Vector" d="M124.19 174.25C123.97 173.88 123.71 173.4 123.41 172.82C118.9 171.51 114.62 173.65 114.62 173.65L113.53 174.13C113.67 175.8 113.78 177.19 113.82 178.04C114.02 182.02 114.62 192.59 115.81 194.18C117.01 195.77 117.21 196.78 120.57 195.58C123.93 194.39 124.58 192.8 125.39 189.21C126.18 185.63 126.18 177.65 124.19 174.25Z" stroke="#263238" stroke-opacity="1.000000" stroke-width="1.000000" stroke-linejoin="round"/>
		<path id="Vector" d="M109.65 120.36C110.14 122.16 110.42 124.02 110.47 125.88C110.47 128.54 109.65 130.18 110.88 131C112.11 131.81 113.13 131.82 112.92 133.46C112.84 134.36 112.48 135.22 111.9 135.91C111.9 135.91 111.49 144.31 111.08 145.13C110.67 145.95 105.35 144.92 104.12 144.71C102.89 144.5 99.41 146.15 97.15 141.65C94.9 137.14 96.75 130.39 100.84 126.9C103.66 124.56 106.6 122.38 109.65 120.36Z" fill="#FFFFFF" fill-opacity="1.000000" fill-rule="nonzero"/>
		<path id="Vector" d="M110.47 125.88C110.47 128.54 109.65 130.18 110.88 131C112.11 131.81 113.13 131.82 112.92 133.46C112.84 134.36 112.48 135.22 111.9 135.91C111.9 135.91 111.49 144.31 111.08 145.13C110.67 145.95 105.35 144.92 104.12 144.71C102.89 144.5 99.41 146.15 97.15 141.65C94.9 137.14 96.75 130.39 100.84 126.9C103.66 124.56 106.6 122.38 109.65 120.36C110.14 122.16 110.42 124.02 110.47 125.88Z" stroke="#263238" stroke-opacity="1.000000" stroke-width="1.000000" stroke-linejoin="round"/>
		<path id="Vector" d="M110.47 125.85C110.47 125.85 109.36 125.02 108.78 126.48" stroke="#263238" stroke-opacity="1.000000" stroke-width="1.000000" stroke-linejoin="round" stroke-linecap="round"/>
		<path id="Vector" d="M109.48 129.24C109.32 130.06 109.37 130.91 109.63 131.71" stroke="#263238" stroke-opacity="1.000000" stroke-width="1.000000" stroke-linejoin="round" stroke-linecap="round"/>
		<path id="Vector" d="M111.52 138.85C111.33 138.91 111.14 138.93 110.95 138.91C110.76 138.89 110.58 138.83 110.41 138.73C110.25 138.63 110.11 138.5 110 138.35C109.88 138.19 109.81 138.02 109.77 137.83" stroke="#263238" stroke-opacity="1.000000" stroke-width="1.000000" stroke-linejoin="round" stroke-linecap="round"/>
		<path id="Vector" d="M113.83 177.34C113.83 177.34 113.15 180.45 112.55 182.1C111.94 183.75 101.09 186.76 96.36 187.39C93.25 187.78 90.12 187.99 86.98 188.01L87.28 196.62C87.28 196.62 96.43 196.8 97.08 196.62C97.73 196.43 113.13 189.55 113.13 189.55L119.78 188.68C119.78 188.68 122.58 188 122.69 185.83C122.8 183.66 120.33 177.49 119.21 176.53C118.08 175.57 115.72 173.03 114.3 174.59C112.88 176.16 113.83 177.34 113.83 177.34Z" fill="#FFFFFF" fill-opacity="1.000000" fill-rule="nonzero"/>
		<path id="Vector" d="M112.55 182.1C111.94 183.75 101.09 186.76 96.36 187.39C93.25 187.78 90.12 187.99 86.98 188.01L87.28 196.62C87.28 196.62 96.43 196.8 97.08 196.62C97.73 196.43 113.13 189.55 113.13 189.55L119.78 188.68C119.78 188.68 122.58 188 122.69 185.83C122.8 183.66 120.33 177.49 119.21 176.53C118.08 175.57 115.72 173.03 114.3 174.59C112.88 176.16 113.83 177.34 113.83 177.34C113.83 177.34 113.15 180.45 112.55 182.1Z" stroke="#263238" stroke-opacity="1.000000" stroke-width="1.000000" stroke-linejoin="round"/>
		<path id="Vector" d="M93.43 192.8C93.43 189.08 94.38 188.98 95.47 187.51C92.66 187.82 89.83 187.99 87 188.01L86.78 195.91C86.78 195.91 91.79 196.37 94.84 196.59C94.59 196.98 93.43 195.19 93.43 192.8Z" fill="#CBCBCB" fill-opacity="1.000000" fill-rule="nonzero"/>
		<path id="Vector" d="M95.47 187.51C92.66 187.82 89.83 187.99 87 188.01L86.78 195.91C86.78 195.91 91.79 196.37 94.84 196.59C94.59 196.98 93.43 195.19 93.43 192.8C93.43 189.08 94.38 188.98 95.47 187.51Z" stroke="#263238" stroke-opacity="1.000000" stroke-width="1.000000" stroke-linejoin="round"/>
		<path id="Vector" d="M122.98 209.52C119.36 205.45 114.76 202.38 109.61 200.6L97.67 205.69C96.74 203.41 95.51 201.27 94.01 199.32L91.78 196.6L93.22 188.8C93.22 188.8 101.81 182.92 102.92 180.37L102.96 180.28C104.69 182.96 112.18 194.52 113.59 195.65C115.18 196.92 119.95 197.08 122.02 195.17C124.09 193.26 125.05 191.99 124.57 189.12C124.57 189.12 121.39 182.28 119.63 179.25C117.88 176.22 114.07 165.41 112.15 162.06C110.79 159.67 110.23 157.98 109.26 156.85C108.59 155.7 107.8 154.62 106.9 153.63C104.99 151.59 99.74 151.08 98.62 150.6C97.51 150.13 97.35 149.96 90.99 148.06C84.62 146.15 77.45 145.03 72.36 149.01C72.36 149.01 65.52 157.13 62.84 170.5C60.16 183.87 59.97 197.4 59.66 199.79C59.35 202.17 56.63 213.79 55.84 220.48C55.04 227.16 62.02 233.87 66.32 235.96C70.61 238.04 89.07 238.34 99.9 235.96C110.73 233.57 127.92 222.74 127.92 222.74C127.92 222.74 128.55 216.05 122.98 209.52Z" fill="#CBCBCB" fill-opacity="1.000000" fill-rule="nonzero"/>
		<path id="Vector" d="M109.61 200.6L97.67 205.69C96.74 203.41 95.51 201.27 94.01 199.32L91.78 196.6L93.22 188.8C93.22 188.8 101.81 182.92 102.92 180.37L102.96 180.28C104.69 182.96 112.18 194.52 113.59 195.65C115.18 196.92 119.95 197.08 122.02 195.17C124.09 193.26 125.05 191.99 124.57 189.12C124.57 189.12 121.39 182.28 119.63 179.25C117.88 176.22 114.07 165.41 112.15 162.06C110.79 159.67 110.23 157.98 109.26 156.85C108.59 155.7 107.8 154.62 106.9 153.63C104.99 151.59 99.74 151.08 98.62 150.6C97.51 150.13 97.35 149.96 90.99 148.06C84.62 146.15 77.45 145.03 72.36 149.01C72.36 149.01 65.52 157.13 62.84 170.5C60.16 183.87 59.97 197.4 59.66 199.79C59.35 202.17 56.63 213.79 55.84 220.48C55.04 227.16 62.02 233.87 66.32 235.96C70.61 238.04 89.07 238.34 99.9 235.96C110.73 233.57 127.92 222.74 127.92 222.74C127.92 222.74 128.55 216.05 122.98 209.52C119.36 205.45 114.76 202.38 109.61 200.6Z" stroke="#263238" stroke-opacity="1.000000" stroke-width="1.000000" stroke-linejoin="round"/>
		<path id="Vector" d="M94.83 180.11L92.65 180.04" stroke="#263238" stroke-opacity="1.000000" stroke-width="1.000000" stroke-linejoin="round" stroke-linecap="round"/>
		<path id="Vector" d="M94.01 176.64C97.07 177.67 100.05 178.92 102.92 180.39L97.32 180.2" stroke="#263238" stroke-opacity="1.000000" stroke-width="1.000000" stroke-linejoin="round" stroke-linecap="round"/>
		<path id="Vector" d="M123.59 180.66C124.21 181.64 124.6 182.76 124.71 183.93C124.71 185.43 124.97 187.44 124.34 186.82C123.71 186.19 123.46 184.05 123.46 184.05L123.59 180.66Z" fill="#FFFFFF" fill-opacity="1.000000" fill-rule="nonzero"/>
		<path id="Vector" d="M124.71 183.93C124.71 185.43 124.97 187.44 124.34 186.82C123.71 186.19 123.46 184.05 123.46 184.05L123.59 180.66C124.21 181.64 124.6 182.76 124.71 183.93Z" stroke="#263238" stroke-opacity="1.000000" stroke-width="1.000000" stroke-linejoin="round"/>
		<path id="Vector" d="M119.82 178.9C119.82 178.9 122.17 177.62 123.22 179.16C124.27 180.7 123.99 183.77 123.22 185.28C122.45 186.8 121.57 185.35 121.68 184C121.79 182.66 119.82 178.9 119.82 178.9Z" fill="#FFFFFF" fill-opacity="1.000000" fill-rule="nonzero"/>
		<path id="Vector" d="M123.22 179.16C124.27 180.7 123.99 183.77 123.22 185.28C122.45 186.8 121.57 185.35 121.68 184C121.79 182.66 119.82 178.9 119.82 178.9C119.82 178.9 122.17 177.62 123.22 179.16Z" stroke="#263238" stroke-opacity="1.000000" stroke-width="1.000000" stroke-linejoin="round"/>
		<path id="Vector" d="M118.93 177.27C118.93 177.27 121.29 175.99 122.33 177.53C123.37 179.07 123.1 182.13 122.33 183.65C121.57 185.17 120.69 183.72 120.8 182.37C120.91 181.03 118.93 177.27 118.93 177.27Z" fill="#FFFFFF" fill-opacity="1.000000" fill-rule="nonzero"/>
		<path id="Vector" d="M122.33 177.53C123.37 179.07 123.1 182.13 122.33 183.65C121.57 185.17 120.69 183.72 120.8 182.37C120.91 181.03 118.93 177.27 118.93 177.27C118.93 177.27 121.29 175.99 122.33 177.53Z" stroke="#263238" stroke-opacity="1.000000" stroke-width="1.000000" stroke-linejoin="round"/>
		<path id="Vector" d="M117.85 175.51C117.85 175.51 120.21 174.23 121.25 175.77C122.29 177.31 122.02 180.37 121.25 181.89C120.48 183.41 119.61 181.96 119.72 180.61C119.83 179.26 117.85 175.51 117.85 175.51Z" fill="#FFFFFF" fill-opacity="1.000000" fill-rule="nonzero"/>
		<path id="Vector" d="M121.25 175.77C122.29 177.31 122.02 180.37 121.25 181.89C120.48 183.41 119.61 181.96 119.72 180.61C119.83 179.26 117.85 175.51 117.85 175.51C117.85 175.51 120.21 174.23 121.25 175.77Z" stroke="#263238" stroke-opacity="1.000000" stroke-width="1.000000" stroke-linejoin="round"/>
		<path id="Vector" d="M111.88 113.97C111.92 116.41 111.29 118.82 110.06 120.93C106.58 126.26 103.31 125.64 101.9 129.94C100.49 134.25 98.39 138.72 100.64 141.2C102.88 143.69 104.72 142.22 104.72 142.22C104.72 142.22 106.15 145.91 102.46 149.6C98.78 153.28 92.43 151.85 90.8 151.23C89.76 150.84 88.8 150.28 87.93 149.6C87.93 149.6 86.91 152.47 81.81 152.47C76.72 152.47 70.93 148.98 70.93 142.63C70.93 136.28 74.41 131.99 75.23 129.53C76.05 127.07 73.8 119.5 77.27 114.79C80.75 110.09 86.11 106.63 90.19 106.63C94.27 106.63 102.23 108.87 102.27 108.88C102.8 109.18 106.25 107.78 107.18 107.84C110.6 108.03 111.84 110.84 111.88 113.97Z" fill="#263238" fill-opacity="1.000000" fill-rule="nonzero"/>
		<path id="Vector" d="M110.06 120.93C106.58 126.26 103.31 125.64 101.9 129.94C100.49 134.25 98.39 138.72 100.64 141.2C102.88 143.69 104.72 142.22 104.72 142.22C104.72 142.22 106.15 145.91 102.46 149.6C98.78 153.28 92.43 151.85 90.8 151.23C89.76 150.84 88.8 150.28 87.93 149.6C87.93 149.6 86.91 152.47 81.81 152.47C76.72 152.47 70.93 148.98 70.93 142.63C70.93 136.28 74.41 131.99 75.23 129.53C76.05 127.07 73.8 119.5 77.27 114.79C80.75 110.09 86.11 106.63 90.19 106.63C94.27 106.63 102.23 108.87 102.27 108.88C102.8 109.18 106.25 107.78 107.18 107.84C110.6 108.03 111.84 110.84 111.88 113.97C111.92 116.41 111.29 118.82 110.06 120.93Z" stroke="#263238" stroke-opacity="1.000000" stroke-width="1.000000" stroke-linejoin="round"/>
		<path id="Vector" d="M98.6 143.09C99.34 143.19 100.09 143.19 100.83 143.09" stroke="#919191" stroke-opacity="1.000000" stroke-width="1.000000" stroke-linejoin="round" stroke-linecap="round"/>
		<path id="Vector" d="M108.93 117.54C108.61 119.36 107.94 121.11 106.95 122.67C103.77 127.67 100.15 129.47 95.82 134.23C93.04 137.31 93.56 140.39 95.82 142" stroke="#919191" stroke-opacity="1.000000" stroke-width="1.000000" stroke-linejoin="round" stroke-linecap="round"/>
		<path id="Vector" d="M108.99 112.23C109.12 112.98 109.19 113.74 109.19 114.5" stroke="#919191" stroke-opacity="1.000000" stroke-width="1.000000" stroke-linejoin="round" stroke-linecap="round"/>
		<path id="Vector" d="M104.72 117C104.72 117 104.04 124.03 101.08 128.12C98.13 132.21 92.24 134.24 92.45 138.57" stroke="#919191" stroke-opacity="1.000000" stroke-width="1.000000" stroke-linejoin="round" stroke-linecap="round"/>
		<path id="Vector" d="M132.12 234.81C132.12 234.81 136.36 256.61 139.99 267.2C143.62 277.8 147.26 287.49 148.15 288.4C149.05 289.31 151.49 292.63 151.49 292.63C150.36 293.53 148.99 294.06 147.55 294.15C145.43 294.15 142.71 291.43 140.28 289.91C137.85 288.38 137.56 287.49 132.71 285.67C127.86 283.85 131.81 279.01 133.02 276.59C133.72 275.28 134.13 273.83 134.23 272.35C132.3 265.53 128.89 259.22 124.24 253.88C116.68 245.41 115.17 225.76 115.17 225.76L129.7 220.32L132.12 234.81Z" fill="#FFFFFF" fill-opacity="1.000000" fill-rule="nonzero"/>
		<path id="Vector" d="M139.99 267.2C143.62 277.8 147.26 287.49 148.15 288.4C149.05 289.31 151.49 292.63 151.49 292.63C150.36 293.53 148.99 294.06 147.55 294.15C145.43 294.15 142.71 291.43 140.28 289.91C137.85 288.38 137.56 287.49 132.71 285.67C127.86 283.85 131.81 279.01 133.02 276.59C133.72 275.28 134.13 273.83 134.23 272.35C132.3 265.53 128.89 259.22 124.24 253.88C116.68 245.41 115.17 225.76 115.17 225.76L129.7 220.32L132.12 234.81C132.12 234.81 136.36 256.61 139.99 267.2Z" stroke="#263238" stroke-opacity="1.000000" stroke-width="1.000000" stroke-linejoin="round"/>
		<path id="Vector" d="M147.56 287.31L146.68 287.49C146.68 287.49 141.53 280.52 137.6 278.1C136.26 277.18 134.68 276.65 133.06 276.59C131.84 279.01 127.91 283.85 132.75 285.67C137.59 287.49 137.9 288.39 140.32 289.91C142.74 291.42 145.47 294.15 147.59 294.15C149.03 294.06 150.4 293.53 151.53 292.63C151.53 292.63 149.1 289.3 148.19 288.4C147.94 288.06 147.72 287.7 147.56 287.31Z" fill="#CBCBCB" fill-opacity="1.000000" fill-rule="nonzero"/>
		<path id="Vector" d="M146.68 287.49C146.68 287.49 141.53 280.52 137.6 278.1C136.26 277.18 134.68 276.65 133.06 276.59C131.84 279.01 127.91 283.85 132.75 285.67C137.59 287.49 137.9 288.39 140.32 289.91C142.74 291.42 145.47 294.15 147.59 294.15C149.03 294.06 150.4 293.53 151.53 292.63C151.53 292.63 149.1 289.3 148.19 288.4C147.94 288.06 147.72 287.7 147.56 287.31L146.68 287.49Z" stroke="#263238" stroke-opacity="1.000000" stroke-width="1.000000" stroke-linejoin="round"/>
		<path id="Vector" d="M145.11 293.29C142.72 291.63 140.56 287.96 136.66 285.67C133.12 283.59 131.3 283.51 130.54 283.66C130.73 284.15 131.02 284.58 131.41 284.93C131.79 285.28 132.26 285.53 132.76 285.67C137.61 287.49 137.91 288.39 140.33 289.91C141.86 290.89 143.54 292.4 145.11 293.29Z" fill="#CBCBCB" fill-opacity="1.000000" fill-rule="nonzero"/>
		<path id="Vector" d="M136.66 285.67C133.12 283.59 131.3 283.51 130.54 283.66C130.73 284.15 131.02 284.58 131.41 284.93C131.79 285.28 132.26 285.53 132.76 285.67C137.61 287.49 137.91 288.39 140.33 289.91C141.86 290.89 143.54 292.4 145.11 293.29C142.72 291.63 140.56 287.96 136.66 285.67Z" stroke="#263238" stroke-opacity="1.000000" stroke-width="1.000000" stroke-linejoin="round"/>
		<path id="Vector" d="M147.56 294.15C147.4 294.14 147.25 294.13 147.09 294.1C147.25 294.13 147.4 294.15 147.56 294.15Z" fill="#CBCBCB" fill-opacity="1.000000" fill-rule="nonzero"/>
		<path id="Vector" d="M147.09 294.1C147.25 294.13 147.4 294.15 147.56 294.15C147.4 294.14 147.25 294.13 147.09 294.1Z" stroke="#263238" stroke-opacity="1.000000" stroke-width="1.000000" stroke-linejoin="round"/>
		<path id="Vector" d="M105.14 201.96C105.14 201.96 119.69 196.8 121.05 200.2C122.41 203.6 128.64 216.28 126.37 221.49C124.1 226.7 108.13 206.53 105.86 206.1C103.59 205.66 104.87 203.48 105.14 201.96Z" fill="#FFFFFF" fill-opacity="1.000000" fill-rule="nonzero"/>
		<path id="Vector" d="M121.05 200.2C122.41 203.6 128.64 216.28 126.37 221.49C124.1 226.7 108.13 206.53 105.86 206.1C103.59 205.66 104.87 203.48 105.14 201.96C105.14 201.96 119.69 196.8 121.05 200.2Z" stroke="#263238" stroke-opacity="1.000000" stroke-width="1.000000" stroke-linejoin="round"/>
		<path id="Vector" d="M119.4 208.6C119.4 208.6 135.94 207.24 139.12 210.19C142.29 213.14 131.41 248.49 125.52 259.6C116.28 276.97 119.07 281.51 119.07 281.51C119.07 281.51 119.75 284.24 124.29 288.55C128.82 292.86 130.18 293.53 128.59 294.21C127 294.89 120.21 294.21 119.53 293.76C118.85 293.3 113.86 289.23 109.33 287.87C104.79 286.51 105.47 285.6 107.51 281.51C109.55 277.44 109.33 280.84 111.59 273.81C114.3 265.15 116.45 256.33 118.01 247.39C119.21 240.11 121.05 232.11 120.53 224.71L119.4 208.6Z" fill="#FFFFFF" fill-opacity="1.000000" fill-rule="nonzero"/>
		<path id="Vector" d="M139.12 210.19C142.29 213.14 131.41 248.49 125.52 259.6C116.28 276.97 119.07 281.51 119.07 281.51C119.07 281.51 119.75 284.24 124.29 288.55C128.82 292.86 130.18 293.53 128.59 294.21C127 294.89 120.21 294.21 119.53 293.76C118.85 293.3 113.86 289.23 109.33 287.87C104.79 286.51 105.47 285.6 107.51 281.51C109.55 277.44 109.33 280.84 111.59 273.81C114.3 265.15 116.45 256.33 118.01 247.39C119.21 240.11 121.05 232.11 120.53 224.71L119.4 208.6C119.4 208.6 135.94 207.24 139.12 210.19Z" stroke="#263238" stroke-opacity="1.000000" stroke-width="1.000000" stroke-linejoin="round"/>
		<path id="Vector" d="M131.51 219.67C129.78 215.49 126.8 211.95 122.98 209.52C115.75 204.91 109.61 200.6 109.61 200.6L97.67 205.69C97.67 205.69 100.58 210.63 85.62 213.12C74.1 215.04 63.53 212.26 57.82 208.91C57.03 212.86 56.2 217.25 55.78 220.47C54.99 227.15 61.99 233.83 66.29 235.91C70.59 237.98 105.21 242.27 114.54 236.28C131.51 225.42 131.51 219.67 131.51 219.67Z" fill="#263238" fill-opacity="1.000000" fill-rule="nonzero"/>
		<path id="Vector" d="M122.98 209.52C115.75 204.91 109.61 200.6 109.61 200.6L97.67 205.69C97.67 205.69 100.58 210.63 85.62 213.12C74.1 215.04 63.53 212.26 57.82 208.91C57.03 212.86 56.2 217.25 55.78 220.47C54.99 227.15 61.99 233.83 66.29 235.91C70.59 237.98 105.21 242.27 114.54 236.28C131.51 225.42 131.51 219.67 131.51 219.67C129.78 215.49 126.8 211.95 122.98 209.52Z" stroke="#263238" stroke-opacity="1.000000" stroke-width="1.000000" stroke-linejoin="round"/>
		<path id="Vector" d="M96.32 209.44C94.72 210.75 91.6 212.16 85.62 213.13C74.1 215.05 63.53 212.26 57.82 208.91C57.62 209.93 57.41 210.95 57.21 212.01C61.12 214.36 69.33 218.34 78.6 217.21C89.65 215.85 94.56 212.84 96.32 209.44Z" fill="#CBCBCB" fill-opacity="1.000000" fill-rule="nonzero"/>
		<path id="Vector" d="M85.62 213.13C74.1 215.05 63.53 212.26 57.82 208.91C57.62 209.93 57.41 210.95 57.21 212.01C61.12 214.36 69.33 218.34 78.6 217.21C89.65 215.85 94.56 212.84 96.32 209.44C94.72 210.75 91.6 212.16 85.62 213.13Z" stroke="#263238" stroke-opacity="1.000000" stroke-width="1.000000" stroke-linejoin="round"/>
		<path id="Vector" d="M87.49 224C86.96 224.68 86.41 225.36 85.85 226.04" stroke="#FFFFFF" stroke-opacity="1.000000" stroke-width="1.000000" stroke-linejoin="round" stroke-linecap="round"/>
		<path id="Vector" d="M95.82 211.09C93.73 214.94 91.39 218.65 88.83 222.21" stroke="#FFFFFF" stroke-opacity="1.000000" stroke-width="1.000000" stroke-linejoin="round" stroke-linecap="round"/>
		<path id="Vector" d="M90.84 215.4C90.84 215.4 86.76 220.84 82.45 224.01" stroke="#FFFFFF" stroke-opacity="1.000000" stroke-width="1.000000" stroke-linejoin="round" stroke-linecap="round"/>
		<path id="Vector" d="M124.29 288.53C119.75 284.24 119.07 281.51 119.07 281.51C118.92 281.37 118.8 281.2 118.72 281.01C118.41 281.33 117.49 281.94 115.22 281.07C113.26 280.31 111.39 279.03 109.43 278.16C108.96 279 108.5 279.52 107.51 281.51C105.47 285.6 104.79 286.51 109.33 287.87C113.86 289.23 118.85 293.31 119.53 293.76C120.21 294.2 127.01 294.89 128.59 294.21C130.17 293.53 128.82 292.84 124.29 288.53Z" fill="#CBCBCB" fill-opacity="1.000000" fill-rule="nonzero"/>
		<path id="Vector" d="M119.07 281.51C118.92 281.37 118.8 281.2 118.72 281.01C118.41 281.33 117.49 281.94 115.22 281.07C113.26 280.31 111.39 279.03 109.43 278.16C108.96 279 108.5 279.52 107.51 281.51C105.47 285.6 104.79 286.51 109.33 287.87C113.86 289.23 118.85 293.31 119.53 293.76C120.21 294.2 127.01 294.89 128.59 294.21C130.17 293.53 128.82 292.84 124.29 288.53C119.75 284.24 119.07 281.51 119.07 281.51Z" stroke="#263238" stroke-opacity="1.000000" stroke-width="1.000000" stroke-linejoin="round"/>
		<path id="Vector" d="M128.46 221.97L136.17 217.21" stroke="#263238" stroke-opacity="1.000000" stroke-width="1.000000" stroke-linejoin="round" stroke-linecap="round"/>
		<path id="Vector" d="M36.34 178.88C36.34 178.88 60.9 175.8 76.6 180.24L78.98 239.95L42.16 239.95C42.16 239.95 44.53 207.87 36.34 178.88Z" fill="#919191" fill-opacity="1.000000" fill-rule="nonzero"/>
		<path id="Vector" d="M76.6 180.24L78.98 239.95L42.16 239.95C42.16 239.95 44.53 207.87 36.34 178.88C36.34 178.88 60.9 175.8 76.6 180.24Z" stroke="#263238" stroke-opacity="1.000000" stroke-width="1.000000" stroke-linejoin="round"/>
		<path id="Vector" d="M76.6 180.24C60.9 175.8 36.34 178.88 36.34 178.88C38.97 188.54 40.72 198.42 41.56 208.4C55.27 215.25 67.83 224.2 78.79 234.92L76.6 180.24Z" fill="#757575" fill-opacity="1.000000" fill-rule="nonzero"/>
		<path id="Vector" d="M36.34 178.88C38.97 188.54 40.72 198.42 41.56 208.4C55.27 215.25 67.83 224.2 78.79 234.92L76.6 180.24C60.9 175.8 36.34 178.88 36.34 178.88Z" stroke="#263238" stroke-opacity="1.000000" stroke-width="1.000000" stroke-linejoin="round"/>
		<path id="Vector" d="M122.91 295.79C122.63 295.8 122.36 295.71 122.13 295.55C121.91 295.4 121.73 295.17 121.63 294.91C116.19 280.25 114.83 242.19 114.75 240.58C114.74 240.22 114.87 239.87 115.12 239.6C115.36 239.34 115.7 239.18 116.06 239.17C116.43 239.16 116.78 239.29 117.04 239.54C117.3 239.78 117.46 240.12 117.47 240.48C117.47 240.88 118.89 279.71 124.18 293.96C124.31 294.3 124.29 294.67 124.14 295C123.99 295.33 123.72 295.58 123.38 295.71C123.23 295.77 123.07 295.8 122.91 295.79Z" fill="#FFFFFF" fill-opacity="1.000000" fill-rule="nonzero"/>
		<path id="Vector" d="M122.13 295.55C121.91 295.4 121.73 295.17 121.63 294.91C116.19 280.25 114.83 242.19 114.75 240.58C114.74 240.22 114.87 239.87 115.12 239.6C115.36 239.34 115.7 239.18 116.06 239.17C116.43 239.16 116.78 239.29 117.04 239.54C117.3 239.78 117.46 240.12 117.47 240.48C117.47 240.88 118.89 279.71 124.18 293.96C124.31 294.3 124.29 294.67 124.14 295C123.99 295.33 123.72 295.58 123.38 295.71C123.23 295.77 123.07 295.8 122.91 295.79C122.63 295.8 122.36 295.71 122.13 295.55Z" stroke="#263238" stroke-opacity="1.000000" stroke-width="1.000000" stroke-linejoin="round"/>
		<path id="Vector" d="M93.3 295.79C93.02 295.79 92.75 295.71 92.52 295.55C92.3 295.39 92.12 295.17 92.03 294.91C86.59 280.25 85.23 242.19 85.14 240.58C85.13 240.22 85.26 239.87 85.5 239.6C85.75 239.34 86.09 239.18 86.45 239.17C86.81 239.16 87.16 239.29 87.43 239.54C87.69 239.78 87.85 240.12 87.86 240.48C87.86 240.88 89.27 279.71 94.58 293.96C94.7 294.3 94.69 294.67 94.54 295C94.39 295.33 94.11 295.58 93.77 295.71C93.62 295.77 93.46 295.8 93.3 295.79Z" fill="#FFFFFF" fill-opacity="1.000000" fill-rule="nonzero"/>
		<path id="Vector" d="M92.52 295.55C92.3 295.39 92.12 295.17 92.03 294.91C86.59 280.25 85.23 242.19 85.14 240.58C85.13 240.22 85.26 239.87 85.5 239.6C85.75 239.34 86.09 239.18 86.45 239.17C86.81 239.16 87.16 239.29 87.43 239.54C87.69 239.78 87.85 240.12 87.86 240.48C87.86 240.88 89.27 279.71 94.58 293.96C94.7 294.3 94.69 294.67 94.54 295C94.39 295.33 94.11 295.58 93.77 295.71C93.62 295.77 93.46 295.8 93.3 295.79C93.02 295.79 92.75 295.71 92.52 295.55Z" stroke="#263238" stroke-opacity="1.000000" stroke-width="1.000000" stroke-linejoin="round"/>
		<path id="Vector" d="M122.55 239.92L41.51 239.92L41.51 237.2L119.84 237.2C120.56 237.2 121.25 237.49 121.76 238C122.27 238.51 122.56 239.2 122.56 239.92L122.55 239.92Z" fill="#919191" fill-opacity="1.000000" fill-rule="nonzero"/>
		<path id="Vector" d="M41.51 239.92L41.51 237.2L119.84 237.2C120.56 237.2 121.25 237.49 121.76 238C122.27 238.51 122.56 239.2 122.56 239.92L122.55 239.92L41.51 239.92Z" stroke="#263238" stroke-opacity="1.000000" stroke-width="1.000000" stroke-linejoin="round"/>
		<path id="Vector" d="M122.54 239.26L41.51 239.26L41.51 241.96L122.54 241.96L122.54 239.26Z" fill="#FFFFFF" fill-opacity="1.000000" fill-rule="nonzero"/>
		<path id="Vector" d="M122.54 239.26L122.54 241.96L41.51 241.96L41.51 239.26L122.54 239.26Z" stroke="#263238" stroke-opacity="1.000000" stroke-width="1.000000" stroke-linejoin="round"/>
		<path id="Vector" d="M75.99 295.79C75.79 295.8 75.58 295.76 75.4 295.67C75.21 295.59 75.05 295.46 74.92 295.3C74.79 295.15 74.69 294.96 74.64 294.76C74.59 294.56 74.59 294.36 74.63 294.16C82.32 257.72 75.31 181.11 75.22 180.34C75.2 180.16 75.22 179.98 75.27 179.81C75.33 179.64 75.41 179.48 75.53 179.34C75.64 179.2 75.78 179.09 75.94 179C76.1 178.92 76.27 178.87 76.45 178.85C76.81 178.82 77.17 178.93 77.45 179.16C77.73 179.39 77.9 179.73 77.94 180.09C78.01 180.86 85.08 257.88 77.3 294.71C77.24 295.02 77.08 295.29 76.84 295.49C76.6 295.68 76.3 295.79 75.99 295.79Z" fill="#FFFFFF" fill-opacity="1.000000" fill-rule="nonzero"/>
		<path id="Vector" d="M75.4 295.67C75.21 295.59 75.05 295.46 74.92 295.3C74.79 295.15 74.69 294.96 74.64 294.76C74.59 294.56 74.59 294.36 74.63 294.16C82.32 257.72 75.31 181.11 75.22 180.34C75.2 180.16 75.22 179.98 75.27 179.81C75.33 179.64 75.41 179.48 75.53 179.34C75.64 179.2 75.78 179.09 75.94 179C76.1 178.92 76.27 178.87 76.45 178.85C76.81 178.82 77.17 178.93 77.45 179.16C77.73 179.39 77.9 179.73 77.94 180.09C78.01 180.86 85.08 257.88 77.3 294.71C77.24 295.02 77.08 295.29 76.84 295.49C76.6 295.68 76.3 295.79 75.99 295.79C75.79 295.8 75.58 295.76 75.4 295.67Z" stroke="#263238" stroke-opacity="1.000000" stroke-width="1.000000" stroke-linejoin="round"/>
		<path id="Vector" d="M33.83 294.8C33.71 294.8 33.58 294.79 33.46 294.75C33.11 294.65 32.82 294.42 32.64 294.1C32.47 293.79 32.42 293.42 32.52 293.07C50.2 230.31 35.19 179.77 35.04 179.27C34.96 178.93 35 178.57 35.18 178.27C35.35 177.97 35.63 177.74 35.96 177.64C36.3 177.53 36.66 177.56 36.97 177.72C37.28 177.88 37.52 178.15 37.64 178.47C37.8 178.99 53.06 230.24 35.14 293.81C35.06 294.09 34.89 294.35 34.65 294.53C34.42 294.7 34.13 294.8 33.83 294.8Z" fill="#FFFFFF" fill-opacity="1.000000" fill-rule="nonzero"/>
		<path id="Vector" d="M33.46 294.75C33.11 294.65 32.82 294.42 32.64 294.1C32.47 293.79 32.42 293.42 32.52 293.07C50.2 230.31 35.19 179.77 35.04 179.27C34.96 178.93 35 178.57 35.18 178.27C35.35 177.97 35.63 177.74 35.96 177.64C36.3 177.53 36.66 177.56 36.97 177.72C37.28 177.88 37.52 178.15 37.64 178.47C37.8 178.99 53.06 230.24 35.14 293.81C35.06 294.09 34.89 294.35 34.65 294.53C34.42 294.7 34.13 294.8 33.83 294.8C33.71 294.8 33.58 294.79 33.46 294.75Z" stroke="#263238" stroke-opacity="1.000000" stroke-width="1.000000" stroke-linejoin="round"/>
		<path id="Vector" d="M282.45 182.68C282.45 182.68 274.1 178.03 273.48 188.56C272.86 199.09 271.32 267.5 271.32 267.5" stroke="#263238" stroke-opacity="1.000000" stroke-width="2.000000" stroke-linejoin="round" stroke-linecap="round"/>
		<path id="Vector" d="M269.14 189.48C269.14 189.48 275.94 204.66 272.86 266.57" stroke="#263238" stroke-opacity="1.000000" stroke-width="2.000000" stroke-linejoin="round" stroke-linecap="round"/>
		<path id="Vector" d="M275.84 184.8C275.84 184.8 272.63 186.84 270.82 184.5C269 182.16 272.05 177.86 269.36 176.03C266.68 174.19 262.03 176.99 262.03 176.99C262.03 176.99 265.6 178.04 265.49 179.99C265.37 181.94 263.65 182.68 263.45 181.83C263.24 180.98 261.51 176.68 258.61 178.47C257.78 178.96 257.05 179.62 256.47 180.4C255.9 181.19 255.49 182.08 255.27 183.02C255.27 183.02 262.02 182.3 262.43 184.84C262.84 187.38 259.66 184.4 256.87 184.23C254.08 184.07 251.54 184.48 251.72 186.17C251.79 187.66 251.7 189.15 251.46 190.63C252.99 189.36 254.92 188.68 256.9 188.71C259.97 188.89 259.85 190.84 257.06 190.68C254.27 190.52 251.88 193.17 251.88 193.17C251.88 193.17 254.42 197.52 257.65 199.66C260.88 201.81 262.05 201.02 262.41 199.39C262.78 197.75 261.92 193.48 263.88 193.6C265.83 193.71 260.65 200.96 263.14 201.38C265.62 201.81 267.63 201.09 268.28 199.45L268.96 197.81C268.96 197.81 268.09 193.56 268.47 191.91C268.85 190.26 269.31 191.96 269.75 193.95C270.19 195.94 270.47 200.7 271.32 200.47C272.17 200.24 274.9 196.77 275.54 195.41C276.18 194.04 271.95 189.89 272 189.05C272.04 188.21 275.31 189.8 275.82 190.67C276.19 191.34 276.52 192.02 276.82 192.71C276.82 192.71 278.86 191.44 278.8 187.52C278.75 183.6 275.84 184.8 275.84 184.8Z" fill="#CBCBCB" fill-opacity="1.000000" fill-rule="nonzero"/>
		<g opacity="0.300000">
			<path id="Vector" d="M275.84 184.8C275.84 184.8 272.63 186.84 270.82 184.5C269 182.16 272.05 177.86 269.36 176.03C266.68 174.19 262.03 176.99 262.03 176.99C262.03 176.99 265.6 178.04 265.49 179.99C265.37 181.94 263.65 182.68 263.45 181.83C263.24 180.98 261.51 176.68 258.61 178.47C257.78 178.96 257.05 179.62 256.47 180.4C255.9 181.19 255.49 182.08 255.27 183.02C255.27 183.02 262.02 182.3 262.43 184.84C262.84 187.38 259.66 184.4 256.87 184.23C254.08 184.07 251.54 184.48 251.72 186.17C251.79 187.66 251.7 189.15 251.46 190.63C252.99 189.36 254.92 188.68 256.9 188.71C259.97 188.89 259.85 190.84 257.06 190.68C254.27 190.52 251.88 193.17 251.88 193.17C251.88 193.17 254.42 197.52 257.65 199.66C260.88 201.81 262.05 201.02 262.41 199.39C262.78 197.75 261.92 193.48 263.88 193.6C265.83 193.71 260.65 200.96 263.14 201.38C265.62 201.81 267.63 201.09 268.28 199.45L268.96 197.81C268.96 197.81 268.09 193.56 268.47 191.91C268.85 190.26 269.31 191.96 269.75 193.95C270.19 195.94 270.47 200.7 271.32 200.47C272.17 200.24 274.9 196.77 275.54 195.41C276.18 194.04 271.95 189.89 272 189.05C272.04 188.21 275.31 189.8 275.82 190.67C276.19 191.34 276.52 192.02 276.82 192.71C276.82 192.71 278.86 191.44 278.8 187.52C278.75 183.6 275.84 184.8 275.84 184.8Z" fill="#263238" fill-opacity="1.000000" fill-rule="nonzero"/>
		</g>
		<path id="Vector" d="M259.63 193.99C261.71 191.41 264.78 187.92 267.36 186.25" stroke="#263238" stroke-opacity="1.000000" stroke-width="1.000000" stroke-linejoin="round" stroke-linecap="round"/>
		<path id="Vector" d="M257.21 197.12C257.21 197.12 257.74 196.38 258.61 195.26" stroke="#263238" stroke-opacity="1.000000" stroke-width="1.000000" stroke-linejoin="round" stroke-linecap="round"/>
		<path id="Vector" d="M268.72 186.89C268.72 186.89 271.82 191.27 272.39 195.78" stroke="#263238" stroke-opacity="1.000000" stroke-width="1.000000" stroke-linejoin="round" stroke-linecap="round"/>
		<path id="Vector" d="M265.2 189.48C265.2 189.48 266.07 188.97 265.74 194.55" stroke="#263238" stroke-opacity="1.000000" stroke-width="1.000000" stroke-linejoin="round" stroke-linecap="round"/>
		<path id="Vector" d="M267.47 184.28C267.47 184.28 269.25 182.7 268.31 179.57" stroke="#263238" stroke-opacity="1.000000" stroke-width="1.000000" stroke-linejoin="round" stroke-linecap="round"/>
		<path id="Vector" d="M265.08 186.96L263.82 184.65" stroke="#263238" stroke-opacity="1.000000" stroke-width="1.000000" stroke-linejoin="round" stroke-linecap="round"/>
		<path id="Vector" d="M262.42 189.32C262.42 189.32 258.41 186.29 255.9 186.14" stroke="#263238" stroke-opacity="1.000000" stroke-width="1.000000" stroke-linejoin="round" stroke-linecap="round"/>
		<path id="Vector" d="M287.23 176.54C287.23 176.54 287.1 181.13 283.51 181.36C279.92 181.58 277.71 175.6 274.04 177.04C270.36 178.48 270.01 185.04 270.01 185.04C270.01 185.04 273.49 182.17 275.37 183.62C277.25 185.06 276.81 187.29 275.8 186.93C274.78 186.58 269.33 185.36 269.14 189.48C269.06 190.66 269.23 191.84 269.62 192.95C270.01 194.06 270.62 195.08 271.42 195.94C271.42 195.94 275.3 188.69 278.13 190.01C280.96 191.33 275.8 192.48 273.73 195.16C271.66 197.84 270.33 200.66 272.16 201.64C273.69 202.59 275.13 203.69 276.44 204.93C276.44 204.93 275.95 201.14 278.22 198.2C280.5 195.25 282.37 196.69 280.31 199.37C278.24 202.05 279.26 206.26 279.26 206.26C279.26 206.26 285.34 206.67 289.7 204.9C294.05 203.13 294.07 201.44 292.67 199.94C291.27 198.43 286.43 196.41 287.87 194.5C289.31 192.59 293.04 202.74 295.17 200.54C297.3 198.34 297.94 195.84 296.74 194.07L295.54 192.3C295.54 192.3 290.7 190.26 289.3 188.76C287.9 187.27 289.92 187.96 292.21 188.87C294.5 189.78 299.46 192.76 299.81 191.74C300.17 190.73 298.54 185.62 297.62 184.07C296.69 182.52 289.63 183.9 288.83 183.28C288.03 182.66 291.84 180.48 293.06 180.56C293.97 180.64 294.88 180.76 295.78 180.94C295.78 180.94 295.89 178.03 291.93 175.41C287.98 172.79 287.23 176.54 287.23 176.54Z" fill="#CBCBCB" fill-opacity="1.000000" fill-rule="nonzero"/>
		<g opacity="0.200000">
			<path id="Vector" d="M287.23 176.54C287.23 176.54 287.1 181.13 283.51 181.36C279.92 181.58 277.71 175.6 274.04 177.04C270.36 178.48 270.01 185.04 270.01 185.04C270.01 185.04 273.49 182.17 275.37 183.62C277.25 185.06 276.81 187.29 275.8 186.93C274.78 186.58 269.33 185.36 269.14 189.48C269.06 190.66 269.23 191.84 269.62 192.95C270.01 194.06 270.62 195.08 271.42 195.94C271.42 195.94 275.3 188.69 278.13 190.01C280.96 191.33 275.8 192.48 273.73 195.16C271.66 197.84 270.33 200.66 272.16 201.64C273.69 202.59 275.13 203.69 276.44 204.93C276.44 204.93 275.95 201.14 278.22 198.2C280.5 195.25 282.37 196.69 280.31 199.37C278.24 202.05 279.26 206.26 279.26 206.26C279.26 206.26 285.34 206.67 289.7 204.9C294.05 203.13 294.07 201.44 292.67 199.94C291.27 198.43 286.43 196.41 287.87 194.5C289.31 192.59 293.04 202.74 295.17 200.54C297.3 198.34 297.94 195.84 296.74 194.07L295.54 192.3C295.54 192.3 290.7 190.26 289.3 188.76C287.9 187.27 289.92 187.96 292.21 188.87C294.5 189.78 299.46 192.76 299.81 191.74C300.17 190.73 298.54 185.62 297.62 184.07C296.69 182.52 289.63 183.9 288.83 183.28C288.03 182.66 291.84 180.48 293.06 180.56C293.97 180.64 294.88 180.76 295.78 180.94C295.78 180.94 295.89 178.03 291.93 175.41C287.98 172.79 287.23 176.54 287.23 176.54Z" fill="#263238" fill-opacity="1.000000" fill-rule="nonzero"/>
		</g>
		<path id="Vector" d="M285.38 199.02C284.24 195.16 282.82 189.72 282.92 186.02" stroke="#263238" stroke-opacity="1.000000" stroke-width="1.000000" stroke-linejoin="round" stroke-linecap="round"/>
		<path id="Vector" d="M286.87 203.59C286.87 203.59 286.49 202.54 285.97 200.92" stroke="#263238" stroke-opacity="1.000000" stroke-width="1.000000" stroke-linejoin="round" stroke-linecap="round"/>
		<path id="Vector" d="M284.48 185.09C284.48 185.09 290.97 184.97 295.88 187.47" stroke="#263238" stroke-opacity="1.000000" stroke-width="1.000000" stroke-linejoin="round" stroke-linecap="round"/>
		<path id="Vector" d="M284.68 190.4C284.68 190.4 284.77 189.18 290.12 193.31" stroke="#263238" stroke-opacity="1.000000" stroke-width="1.000000" stroke-linejoin="round" stroke-linecap="round"/>
		<path id="Vector" d="M281.04 184.57C281.04 184.57 280.67 181.73 276.9 180.53" stroke="#263238" stroke-opacity="1.000000" stroke-width="1.000000" stroke-linejoin="round" stroke-linecap="round"/>
		<path id="Vector" d="M282.07 188.78L278.89 188.46" stroke="#263238" stroke-opacity="1.000000" stroke-width="1.000000" stroke-linejoin="round" stroke-linecap="round"/>
		<path id="Vector" d="M282.62 193.05C282.62 193.05 276.84 195 274.99 197.41" stroke="#263238" stroke-opacity="1.000000" stroke-width="1.000000" stroke-linejoin="round" stroke-linecap="round"/>
		<path id="Vector" d="M248.71 207.14C248.71 207.14 266.98 219.21 266.67 265.96" stroke="#263238" stroke-opacity="1.000000" stroke-width="2.000000" stroke-linejoin="round" stroke-linecap="round"/>
		<path id="Vector" d="M271.23 203.95C271.23 203.95 270.65 209.24 266.47 209.16C262.3 209.08 260.35 201.96 255.95 203.28C251.54 204.6 250.54 212.12 250.54 212.12C250.54 212.12 254.84 209.14 256.87 210.99C258.89 212.84 258.18 215.37 257.04 214.86C255.91 214.36 249.73 212.43 249.12 217.17C248.92 218.52 249 219.9 249.35 221.22C249.7 222.53 250.32 223.77 251.16 224.84C251.16 224.84 256.33 216.83 259.46 218.63C262.6 220.42 256.54 221.26 253.9 224.16C251.26 227.05 249.47 230.18 251.47 231.47C253.16 232.72 254.71 234.13 256.11 235.69C256.11 235.69 255.9 231.27 258.8 228.08C261.69 224.89 263.73 226.72 261.09 229.64C258.45 232.56 259.24 237.49 259.24 237.49C259.24 237.49 266.22 238.54 271.41 236.91C276.6 235.28 276.78 233.33 275.31 231.47C273.83 229.6 268.44 226.8 270.28 224.78C272.12 222.75 275.46 234.79 278.13 232.44C280.79 230.09 281.76 227.29 280.55 225.12L279.34 222.96C279.34 222.96 273.95 220.17 272.47 218.3C271 216.43 273.26 217.43 275.82 218.7C278.37 219.96 283.82 223.86 284.32 222.73C284.81 221.6 283.43 215.56 282.51 213.67C281.59 211.77 273.31 212.71 272.44 211.92C271.57 211.14 276.19 208.98 277.59 209.2C278.62 209.38 279.65 209.6 280.67 209.88C280.67 209.88 281.06 206.54 276.74 203.14C272.42 199.74 271.23 203.95 271.23 203.95Z" fill="#CBCBCB" fill-opacity="1.000000" fill-rule="nonzero"/>
		<g opacity="0.300000">
			<path id="Vector" d="M271.23 203.95C271.23 203.95 270.65 209.24 266.47 209.16C262.3 209.08 260.35 201.96 255.95 203.28C251.54 204.6 250.54 212.12 250.54 212.12C250.54 212.12 254.84 209.14 256.87 210.99C258.89 212.84 258.18 215.37 257.04 214.86C255.91 214.36 249.73 212.43 249.12 217.17C248.92 218.52 249 219.9 249.35 221.22C249.7 222.53 250.32 223.77 251.16 224.84C251.16 224.84 256.33 216.83 259.46 218.63C262.6 220.42 256.54 221.26 253.9 224.16C251.26 227.05 249.47 230.18 251.47 231.47C253.16 232.72 254.71 234.13 256.11 235.69C256.11 235.69 255.9 231.27 258.8 228.08C261.69 224.89 263.73 226.72 261.09 229.64C258.45 232.56 259.24 237.49 259.24 237.49C259.24 237.49 266.22 238.54 271.41 236.91C276.6 235.28 276.78 233.33 275.31 231.47C273.83 229.6 268.44 226.8 270.28 224.78C272.12 222.75 275.46 234.79 278.13 232.44C280.79 230.09 281.76 227.29 280.55 225.12L279.34 222.96C279.34 222.96 273.95 220.17 272.47 218.3C271 216.43 273.26 217.43 275.82 218.7C278.37 219.96 283.82 223.86 284.32 222.73C284.81 221.6 283.43 215.56 282.51 213.67C281.59 211.77 273.31 212.71 272.44 211.92C271.57 211.14 276.19 208.98 277.59 209.2C278.62 209.38 279.65 209.6 280.67 209.88C280.67 209.88 281.06 206.54 276.74 203.14C272.42 199.74 271.23 203.95 271.23 203.95Z" fill="#263238" fill-opacity="1.000000" fill-rule="nonzero"/>
		</g>
		<path id="Vector" d="M266.98 229.72C266 225.18 264.9 218.75 265.35 214.47" stroke="#263238" stroke-opacity="1.000000" stroke-width="1.000000" stroke-linejoin="round" stroke-linecap="round"/>
		<path id="Vector" d="M268.27 235.13C268.27 235.13 267.93 233.88 267.47 231.96" stroke="#263238" stroke-opacity="1.000000" stroke-width="1.000000" stroke-linejoin="round" stroke-linecap="round"/>
		<path id="Vector" d="M267.24 213.56C267.24 213.56 274.72 214.03 280.16 217.38" stroke="#263238" stroke-opacity="1.000000" stroke-width="1.000000" stroke-linejoin="round" stroke-linecap="round"/>
		<path id="Vector" d="M266.98 219.64C266.98 219.64 267.19 218.24 272.99 223.51" stroke="#263238" stroke-opacity="1.000000" stroke-width="1.000000" stroke-linejoin="round" stroke-linecap="round"/>
		<path id="Vector" d="M263.32 212.63C263.32 212.63 263.17 209.31 258.93 207.57" stroke="#263238" stroke-opacity="1.000000" stroke-width="1.000000" stroke-linejoin="round" stroke-linecap="round"/>
		<path id="Vector" d="M264.11 217.58L260.48 216.92" stroke="#263238" stroke-opacity="1.000000" stroke-width="1.000000" stroke-linejoin="round" stroke-linecap="round"/>
		<path id="Vector" d="M264.35 222.56C264.35 222.56 257.5 224.27 255.13 226.88" stroke="#263238" stroke-opacity="1.000000" stroke-width="1.000000" stroke-linejoin="round" stroke-linecap="round"/>
		<path id="Vector" d="M255.83 243.97C255.83 243.97 267.6 252.95 268.83 266.26L266.36 221.68" stroke="#263238" stroke-opacity="1.000000" stroke-width="2.000000" stroke-linejoin="round" stroke-linecap="round"/>
		<path id="Vector" d="M284.31 237.47C268.83 234.68 268.83 266.26 268.83 266.26" stroke="#263238" stroke-opacity="1.000000" stroke-width="2.000000" stroke-linejoin="round" stroke-linecap="round"/>
		<path id="Vector" d="M270.69 265.96C270.69 265.96 261.71 200.64 287.69 200.64" stroke="#263238" stroke-opacity="1.000000" stroke-width="2.000000" stroke-linejoin="round" stroke-linecap="round"/>
		<path id="Vector" d="M278.41 235.6C276.3 233.22 271.81 233.22 269.17 239.29C266.53 245.37 268.9 244.32 268.9 244.32C268.9 244.32 273.92 242.73 277.1 241.67C280.27 240.62 284.49 237.98 284.76 239.56C285.02 241.14 282.64 242.73 279.73 243.26C276.82 243.79 269.17 245.9 269.96 247.52C270.74 249.13 272.6 253.86 272.6 253.86C274.86 251.94 277.24 250.18 279.73 248.58C283.17 246.46 285.29 247.25 283.44 249.63C281.59 252.01 276.3 254.65 277.36 257.82C278.42 261 284.76 264.96 284.76 264.96C284.76 264.96 285.56 258.35 287.4 256.24C289.25 254.13 289.25 256.51 288.72 260.2C288.46 261.78 288.28 263.37 288.19 264.96L295.59 267.61C296.8 265.77 298.13 264 299.56 262.32L300.92 260.97C300.92 260.97 295.1 255.95 294.84 252.81C294.57 249.66 298.8 252.81 300.12 253.34C301.44 253.87 303.55 257.57 303.55 257.57C303.55 257.57 304.88 251.49 305.15 249.37L305.41 247.26C305.41 247.26 299.85 245.14 297.74 245.14C295.63 245.14 294.57 246.73 294.57 244.62C294.57 242.51 296.69 241.18 299.07 241.44C301.22 241.8 303.34 242.33 305.41 243.03C305.41 243.03 307 241.71 306.46 237.74C305.93 233.78 304.62 233.78 301.45 234.83C298.28 235.89 296.16 238.27 293.78 238.27C291.4 238.27 292.72 235.36 294.31 234.58C295.89 233.79 299.85 232.2 300.65 231.93C301.45 231.66 296.42 227.97 293.78 227.44C291.13 226.9 287.71 228.8 287.96 231.4C288.46 236.91 280.53 238 278.41 235.6Z" fill="#CBCBCB" fill-opacity="1.000000" fill-rule="nonzero"/>
		<path id="Vector" d="M295.43 262.81C295.51 263.6 295.56 264.4 295.59 265.2" stroke="#263238" stroke-opacity="1.000000" stroke-width="1.000000" stroke-linejoin="round" stroke-linecap="round"/>
		<path id="Vector" d="M290.12 243.84C292.45 249.07 294.13 254.57 295.12 260.21" stroke="#263238" stroke-opacity="1.000000" stroke-width="1.000000" stroke-linejoin="round" stroke-linecap="round"/>
		<path id="Vector" d="M289.17 241.72C287.86 238.9 286.87 237.18 286.87 237.18C288.32 236.5 289.51 235.39 290.31 234.01C290.93 232.76 291.83 231.67 292.95 230.84" stroke="#263238" stroke-opacity="1.000000" stroke-width="1.000000" stroke-linejoin="round" stroke-linecap="round"/>
		<path id="Vector" d="M277.63 246.16C277.63 246.16 287.15 242.19 287.15 242.98" stroke="#263238" stroke-opacity="1.000000" stroke-width="1.000000" stroke-linejoin="round" stroke-linecap="round"/>
		<path id="Vector" d="M292.4 241.14C292.4 241.14 296.62 239.03 300.32 239.03" stroke="#263238" stroke-opacity="1.000000" stroke-width="1.000000" stroke-linejoin="round" stroke-linecap="round"/>
		<path id="Vector" d="M290.84 247.52C289 249.02 287.32 250.71 285.81 252.54C284.27 254.36 283.02 256.41 282.11 258.61" stroke="#263238" stroke-opacity="1.000000" stroke-width="1.000000" stroke-linejoin="round" stroke-linecap="round"/>
		<path id="Vector" d="M293.76 248.55C293.76 248.55 299.31 246.96 302.21 249.6" stroke="#263238" stroke-opacity="1.000000" stroke-width="1.000000" stroke-linejoin="round" stroke-linecap="round"/>
		<path id="Vector" d="M303.8 212.84C300.92 211.14 297.74 211.09 296.18 209.3C294.61 207.5 297.68 206.58 299.32 207.26C300.96 207.94 304.76 209.89 305.47 210.31C306.19 210.73 305.7 204.53 304.36 202.15C303.03 199.78 299.38 198.45 297.56 200.36C293.72 204.4 287.72 199.11 288.13 195.95C288.54 192.8 285.6 189.4 279.29 191.39C272.99 193.37 275.33 194.48 275.33 194.48C275.33 194.48 279.82 197.24 282.7 198.94C285.58 200.64 290.34 202.1 289.32 203.34C288.29 204.57 285.53 203.82 283.23 201.98C280.92 200.13 274.31 195.73 273.63 197.37C272.95 199 270.57 203.52 270.57 203.52C273.5 203.97 276.39 204.61 279.24 205.44C283.09 206.65 283.88 208.77 280.87 208.93C277.86 209.1 272.4 206.84 270.67 209.71C268.94 212.59 270.13 219.98 270.13 219.98C270.13 219.98 275.64 216.25 278.45 216.26C281.26 216.26 279.46 217.83 276.32 219.85C274.96 220.69 273.64 221.59 272.38 222.57L275.24 229.9C277.42 229.6 279.62 229.44 281.83 229.42L283.69 229.56C283.69 229.56 283.69 221.87 285.89 219.59C288.1 217.32 288.49 222.59 288.96 223.93C289.43 225.28 288.02 229.3 288.02 229.3C288.02 229.3 293.46 226.31 295.25 225.12L297.02 223.94C297.02 223.94 294.98 218.36 293.59 216.77C292.19 215.17 290.31 215.41 291.91 214.05C293.5 212.69 295.89 213.37 297.25 215.37C298.39 217.23 299.38 219.17 300.21 221.19C300.21 221.19 302.25 221.53 304.89 218.53C307.54 215.53 306.68 214.54 303.8 212.84ZM278.79 221.29C276.68 220.23 281.7 218.12 281.7 218.12C283.56 217.86 280.9 222.36 278.79 221.29ZM282.35 211.43C281.45 210.98 284.15 210.07 284.15 210.07C288.06 210.8 283.25 211.88 282.35 211.43L282.35 211.43Z" fill="#CBCBCB" fill-opacity="1.000000" fill-rule="nonzero"/>
		<path id="Vector" d="M278.73 226.68C278.18 227.26 277.61 227.82 277.03 228.37" stroke="#263238" stroke-opacity="1.000000" stroke-width="1.000000" stroke-linejoin="round" stroke-linecap="round"/>
		<path id="Vector" d="M289.57 210.23C287.14 215.42 284.09 220.28 280.47 224.72" stroke="#263238" stroke-opacity="1.000000" stroke-width="1.000000" stroke-linejoin="round" stroke-linecap="round"/>
		<path id="Vector" d="M290.55 208.12C291.82 205.29 292.47 203.42 292.47 203.42C293.93 204.06 295.55 204.24 297.12 203.93C298.47 203.58 299.89 203.55 301.25 203.85" stroke="#263238" stroke-opacity="1.000000" stroke-width="1.000000" stroke-linejoin="round" stroke-linecap="round"/>
		<path id="Vector" d="M288.25 207.43C288.85 206.91 279.62 202.32 279.62 202.32" stroke="#263238" stroke-opacity="1.000000" stroke-width="1.000000" stroke-linejoin="round" stroke-linecap="round"/>
		<path id="Vector" d="M293.12 210.2C293.12 210.2 297.49 212.01 299.92 214.81" stroke="#263238" stroke-opacity="1.000000" stroke-width="1.000000" stroke-linejoin="round" stroke-linecap="round"/>
		<path id="Vector" d="M287.29 213.17C284.95 212.77 282.57 212.6 280.2 212.67C277.82 212.7 275.45 213.1 273.19 213.86" stroke="#263238" stroke-opacity="1.000000" stroke-width="1.000000" stroke-linejoin="round" stroke-linecap="round"/>
		<path id="Vector" d="M288.4 216.06C288.4 216.06 293.23 219.21 293.16 223.14" stroke="#263238" stroke-opacity="1.000000" stroke-width="1.000000" stroke-linejoin="round" stroke-linecap="round"/>
		<path id="Vector" d="M262.73 249.45C260.41 248.09 257.85 248.06 256.61 246.61C255.36 245.16 257.81 244.44 259.13 244.98C260.45 245.52 263.51 247.1 264.09 247.44C264.66 247.78 264.26 242.78 263.19 240.89C262.12 239.01 259.18 237.91 257.72 239.45C254.62 242.7 249.79 238.44 250.13 235.9C250.46 233.36 248.09 230.63 242.99 232.23C237.9 233.83 239.8 234.72 239.8 234.72C239.8 234.72 243.41 236.93 245.73 238.3C248.05 239.67 251.89 240.85 251.06 241.84C250.23 242.84 248.02 242.24 246.16 240.75C244.31 239.26 238.98 235.72 238.44 237.04C237.89 238.36 235.98 241.99 235.98 241.99C238.33 242.35 240.66 242.87 242.95 243.54C246.05 244.51 246.68 246.21 244.26 246.34C241.84 246.47 237.46 244.65 236.1 246.97C234.74 249.29 235.66 255.23 235.66 255.23C235.66 255.23 240.1 252.23 242.35 252.23C244.61 252.24 243.17 253.5 240.65 255.13C239.55 255.8 238.49 256.53 237.48 257.32L239.77 263.21C241.53 262.97 243.3 262.85 245.07 262.84L246.58 262.94C246.58 262.94 246.58 256.76 248.35 254.92C250.13 253.08 250.44 257.33 250.81 258.42C251.19 259.5 250.06 262.73 250.06 262.73C250.06 262.73 254.45 260.33 255.87 259.37L257.3 258.42C257.3 258.42 255.66 253.93 254.54 252.64C253.42 251.36 251.9 251.55 253.18 250.44C254.46 249.32 256.38 249.91 257.48 251.49C258.4 252.99 259.19 254.56 259.86 256.19C259.86 256.19 261.5 256.45 263.63 254.04C265.76 251.64 265.04 250.83 262.73 249.45ZM242.6 256.25C240.9 255.4 244.94 253.7 244.94 253.7C246.43 253.5 244.3 257.12 242.6 256.26L242.6 256.25ZM245.48 248.32C244.75 247.96 246.92 247.24 246.92 247.24C250.06 247.84 246.19 248.69 245.48 248.32Z" fill="#CBCBCB" fill-opacity="1.000000" fill-rule="nonzero"/>
		<path id="Vector" d="M242.56 260.6C242.12 261.06 241.66 261.52 241.2 261.96" stroke="#263238" stroke-opacity="1.000000" stroke-width="1.000000" stroke-linejoin="round" stroke-linecap="round"/>
		<path id="Vector" d="M251.28 247.36C249.33 251.53 246.87 255.45 243.96 259.02" stroke="#263238" stroke-opacity="1.000000" stroke-width="1.000000" stroke-linejoin="round" stroke-linecap="round"/>
		<path id="Vector" d="M252.07 245.66C253.09 243.38 253.62 241.88 253.62 241.88C254.79 242.39 256.1 242.54 257.35 242.29C258.44 242.01 259.58 241.98 260.67 242.23" stroke="#263238" stroke-opacity="1.000000" stroke-width="1.000000" stroke-linejoin="round" stroke-linecap="round"/>
		<path id="Vector" d="M243.27 240.99C243.27 240.99 250.7 244.69 250.22 245.07" stroke="#263238" stroke-opacity="1.000000" stroke-width="1.000000" stroke-linejoin="round" stroke-linecap="round"/>
		<path id="Vector" d="M254.13 247.34C254.13 247.34 257.65 248.79 259.57 251.04" stroke="#263238" stroke-opacity="1.000000" stroke-width="1.000000" stroke-linejoin="round" stroke-linecap="round"/>
		<path id="Vector" d="M249.44 249.73C247.56 249.41 245.65 249.27 243.74 249.32C241.82 249.34 239.92 249.67 238.1 250.28" stroke="#263238" stroke-opacity="1.000000" stroke-width="1.000000" stroke-linejoin="round" stroke-linecap="round"/>
		<path id="Vector" d="M250.34 252.05C250.34 252.05 254.23 254.59 254.15 257.74" stroke="#263238" stroke-opacity="1.000000" stroke-width="1.000000" stroke-linejoin="round" stroke-linecap="round"/>
		<path id="Vector" d="M253.29 205.81C253.29 205.81 250.38 207.93 248.53 205.81C246.68 203.7 249.32 199.47 246.68 197.88C244.03 196.3 239.81 199.2 239.81 199.2C239.81 199.2 243.25 200 243.25 201.85C243.25 203.7 241.66 204.49 241.4 203.7C241.13 202.9 239.28 198.94 236.64 200.79C235.87 201.31 235.22 201.97 234.72 202.74C234.22 203.51 233.89 204.38 233.73 205.28C233.73 205.28 240.07 204.23 240.6 206.61C241.13 208.99 237.96 206.34 235.32 206.34C232.67 206.34 230.29 206.87 230.56 208.46C230.7 209.86 230.7 211.28 230.56 212.69C231.93 211.4 233.71 210.65 235.58 210.57C238.49 210.57 238.49 212.42 235.85 212.42C233.21 212.42 231.09 215.07 231.09 215.07C231.09 215.07 233.73 219.03 236.9 220.88C240.07 222.73 241.13 221.93 241.4 220.35C241.66 218.77 240.6 214.8 242.45 214.8C244.3 214.8 239.81 221.93 242.18 222.2C244.56 222.46 246.41 221.67 246.94 220.08L247.47 218.5C247.47 218.5 246.41 214.54 246.68 212.95C246.94 211.37 247.47 212.95 248 214.8C248.52 216.65 249.06 221.14 249.85 220.88C250.65 220.62 253.02 217.17 253.55 215.85C254.08 214.54 249.85 210.84 249.85 210.04C249.85 209.25 253.02 210.57 253.55 211.36C254.08 212.15 254.61 213.21 254.61 213.21C254.61 213.21 256.46 211.89 256.19 208.19C255.93 204.49 253.29 205.81 253.29 205.81Z" fill="#CBCBCB" fill-opacity="1.000000" fill-rule="nonzero"/>
		<path id="Vector" d="M238.48 215.4C240.31 212.85 243.02 209.38 245.36 207.66" stroke="#263238" stroke-opacity="1.000000" stroke-width="1.000000" stroke-linejoin="round" stroke-linecap="round"/>
		<path id="Vector" d="M236.37 218.5C236.37 218.5 236.84 217.77 237.59 216.66" stroke="#263238" stroke-opacity="1.000000" stroke-width="1.000000" stroke-linejoin="round" stroke-linecap="round"/>
		<path id="Vector" d="M246.68 208.19C246.68 208.19 249.85 212.16 250.64 216.39" stroke="#263238" stroke-opacity="1.000000" stroke-width="1.000000" stroke-linejoin="round" stroke-linecap="round"/>
		<path id="Vector" d="M243.51 210.84C243.51 210.84 244.3 210.31 244.3 215.6" stroke="#263238" stroke-opacity="1.000000" stroke-width="1.000000" stroke-linejoin="round" stroke-linecap="round"/>
		<path id="Vector" d="M245.36 205.81C245.36 205.81 246.94 204.23 245.89 201.32" stroke="#263238" stroke-opacity="1.000000" stroke-width="1.000000" stroke-linejoin="round" stroke-linecap="round"/>
		<path id="Vector" d="M243.25 208.46L241.93 206.34" stroke="#263238" stroke-opacity="1.000000" stroke-width="1.000000" stroke-linejoin="round" stroke-linecap="round"/>
		<path id="Vector" d="M240.87 210.84C240.87 210.84 236.9 208.19 234.52 208.19" stroke="#263238" stroke-opacity="1.000000" stroke-width="1.000000" stroke-linejoin="round" stroke-linecap="round"/>
		<path id="Vector" d="M279.98 265.03L259.54 265.03L259.54 294.44L279.98 294.44L279.98 265.03Z" fill="#263238" fill-opacity="1.000000" fill-rule="nonzero"/>
		<path id="Vector" d="M279.98 265.03L279.98 294.44L259.54 294.44L259.54 265.03L279.98 265.03Z" stroke="#263238" stroke-opacity="1.000000" stroke-width="2.000000" stroke-linejoin="round"/>
	</g>
</svg>
